  0
SECTION
  2
HEADER
  9
$EXTMIN
 10
-0.005000
 20
-0.005000
  9
$EXTMAX
 10
2.705000
 20
2.105000
  9
$LIMMIN
 10
-0.005000
 20
-0.005000
  9
$LIMMAX
 10
2.705000
 20
2.105000
  9
$FILLMODE
 70
  1
  0
ENDSEC
  0
SECTION
  2
TABLES
  0
TABLE
  2
LTYPE
 70
  1
  0
LTYPE
  2
CONTINUOUS
 70
 64
  3
Solid line
 72
 65
 73
  0
 40
0.0
  0
ENDTAB
  0
TABLE
  2
LAYER
 70
 1
  0
LAYER
  2
0
 70
  0
 62
7
  6
CONTINUOUS
  0
LAYER
  2
gko
 70
  0
 62
1
  6
CONTINUOUS
  0
ENDTAB
  0
TABLE
  2
STYLE
 70
  1
  0
STYLE
  2
STANDARD
 70
  0
 40
0.0
 41
1.0
 50
0.0
 71
  0
 42
0.2
  3
txt
  4

  0
ENDTAB
  0
ENDSEC
  0
SECTION
  2
BLOCKS
  0
BLOCK
  8
0
  2
D10
 70
64
 10
0.0
 20
0.0
  3
D10
  0
CIRCLE
  8
0
 10
0.000000
 20
0.000000
 40
0.005000
 0
ENDBLK
  8
0
  0
BLOCK
  8
0
  2
D11
 70
64
 10
0.0
 20
0.0
  3
D11
  0
CIRCLE
  8
0
 10
0.000000
 20
0.000000
 40
0.009100
 0
ENDBLK
  8
0
  0
ENDSEC
  0
SECTION
  2
ENTITIES
  0
POLYLINE
  8
gko
 62
1
 40
0.000000
 41
0.000000
 66
  1
  0
VERTEX
  8
gko
 10
0.000000
 20
2.100000
  0
VERTEX
  8
gko
 10
2.540000
 20
2.100000
  0
VERTEX
  8
gko
 10
2.600000
 20
2.040000
  0
VERTEX
  8
gko
 10
2.600000
 20
1.590000
  0
VERTEX
  8
gko
 10
2.700000
 20
1.490000
  0
VERTEX
  8
gko
 10
2.700000
 20
0.200000
  0
VERTEX
  8
gko
 10
2.600000
 20
0.100000
  0
VERTEX
  8
gko
 10
2.600000
 20
0.000000
  0
VERTEX
  8
gko
 10
0.000000
 20
0.000000
  0
VERTEX
  8
gko
 10
0.000000
 20
2.100000
  0
SEQEND
  8
gko
  0
POLYLINE
  8
gko
 62
1
 40
0.000000
 41
0.000000
 66
  1
  0
VERTEX
  8
gko
 10
2.671063
 20
0.300000
  0
VERTEX
  8
gko
 10
2.671063
 20
0.300000
  0
VERTEX
  8
gko
 10
2.671063
 20
0.300000
 42
1.000000
  0
VERTEX
  8
gko
 10
2.528937
 20
0.300000
  0
VERTEX
  8
gko
 10
2.528937
 20
0.300000
  0
VERTEX
  8
gko
 10
2.528937
 20
0.300000
 42
1.000000
  0
VERTEX
  8
gko
 10
2.671063
 20
0.300000
  0
VERTEX
  8
gko
 10
2.671063
 20
0.300000
  0
SEQEND
  8
gko
  0
POLYLINE
  8
gko
 62
1
 40
0.000000
 41
0.000000
 66
  1
  0
VERTEX
  8
gko
 10
2.672111
 20
1.400000
  0
VERTEX
  8
gko
 10
2.672111
 20
1.400000
  0
VERTEX
  8
gko
 10
2.672111
 20
1.400000
 42
1.000000
  0
VERTEX
  8
gko
 10
2.527889
 20
1.400000
  0
VERTEX
  8
gko
 10
2.527889
 20
1.400000
  0
VERTEX
  8
gko
 10
2.527889
 20
1.400000
 42
1.000000
  0
VERTEX
  8
gko
 10
2.672111
 20
1.400000
  0
VERTEX
  8
gko
 10
2.672111
 20
1.400000
  0
SEQEND
  8
gko
  0
POLYLINE
  8
gko
 62
1
 40
0.000000
 41
0.000000
 66
  1
  0
VERTEX
  8
gko
 10
0.672111
 20
2.000000
  0
VERTEX
  8
gko
 10
0.672111
 20
2.000000
  0
VERTEX
  8
gko
 10
0.672111
 20
2.000000
 42
1.000000
  0
VERTEX
  8
gko
 10
0.527889
 20
2.000000
  0
VERTEX
  8
gko
 10
0.527889
 20
2.000000
  0
VERTEX
  8
gko
 10
0.527889
 20
2.000000
 42
1.000000
  0
VERTEX
  8
gko
 10
0.672111
 20
2.000000
  0
VERTEX
  8
gko
 10
0.672111
 20
2.000000
  0
SEQEND
  8
gko
  0
POLYLINE
  8
gko
 62
1
 40
0.000000
 41
0.000000
 66
  1
  0
VERTEX
  8
gko
 10
0.620711
 20
0.100000
  0
VERTEX
  8
gko
 10
0.620711
 20
0.100000
  0
VERTEX
  8
gko
 10
0.620711
 20
0.100000
 42
1.000000
  0
VERTEX
  8
gko
 10
0.479289
 20
0.100000
  0
VERTEX
  8
gko
 10
0.479289
 20
0.100000
  0
VERTEX
  8
gko
 10
0.479289
 20
0.100000
 42
1.000000
  0
VERTEX
  8
gko
 10
0.620711
 20
0.100000
  0
VERTEX
  8
gko
 10
0.620711
 20
0.100000
  0
SEQEND
  8
gko
  0
ENDSEC
  0
EOF
