M48
INCH,LZ
;FILE_FORMAT=2:4
;TYPE=PLATED
;Layer: PTH_Through_Via
;EasyEDA v6.5.51, 2025-11-10 16:22:34
;edf426586456471d89c25727c5112f57,c2dd228c5626426dab0286b5437c322d,10
;Gerber Generator version 0.2
;Holesize 1 = 0.0120 inch
T01C0.0120
%
G05
G90
T01
X023380Y013690
X023040Y012950
X015960Y010320
X016460Y010840
X017920Y009740
X014510Y012810
X012930Y012020
X014190Y011850
X010920Y014850
X009500Y014810
X008110Y014810
X006740Y014790
X008280Y008070
X002540Y013270
X002510Y012358
X007440Y007960
X000652Y003710
X010260Y005410
X008710Y011010
X010270Y006950
X012030Y009940
X004320Y020287
X004180Y016365
X010020Y009740
X003940Y016050
X010270Y009500
X020670Y006190
X010360Y011550
X012570Y003060
X010020Y003060
X005050Y007910
X004920Y006760
X005130Y011364
X005010Y010550
X004710Y007870
X006210Y004130
X008080Y006990
X008990Y007940
X015150Y003910
X013420Y005820
X011750Y007310
X010310Y007940
X011950Y012780
X012340Y011200
X015300Y011260
X016710Y013710
X017680Y005020
X024320Y007170
X024290Y014600
X015740Y006590
X017000Y004340
X015310Y008350
X008850Y005470
X001820Y006790
X001300Y007980
X003550Y004974
X003550Y004140
X003550Y003100
X002000Y001240
X015930Y008460
X015670Y010860
X014730Y010680
X013660Y012580
X018760Y013380
X020890Y010610
X021670Y009060
X023460Y007930
X024840Y006980
X024650Y008400
X004080Y001880
X007880Y005300
X006150Y009680
M30
