G04 Layer: TopSilkscreenLayer*
G04 EasyEDA v6.5.51, 2025-11-10 16:22:34*
G04 edf426586456471d89c25727c5112f57,c2dd228c5626426dab0286b5437c322d,10*
G04 Gerber Generator version 0.2*
G04 Scale: 100 percent, Rotated: No, Reflected: No *
G04 Dimensions in inches *
G04 leading zeros omitted , absolute positions ,3 integer and 6 decimal *
%FSLAX36Y36*%
%MOIN*%

%ADD10C,0.0150*%
%ADD11C,0.0100*%
%ADD12C,0.0060*%
%ADD13C,0.0059*%
%ADD14C,0.0157*%
%ADD15C,0.0080*%
%ADD16C,0.0080*%
%ADD17C,0.0039*%
%ADD18C,0.0174*%
%ADD19C,0.0102*%
%ADD20C,0.0118*%

%LPD*%
G36*
X1306879Y879140D02*
G01*
X1293720Y879100D01*
X1292920Y878720D01*
X1292500Y877800D01*
X1292500Y864760D01*
X1292940Y863820D01*
X1293540Y863520D01*
X1307380Y863340D01*
X1307560Y849500D01*
X1307880Y848860D01*
X1308500Y848560D01*
X1322340Y848379D01*
X1322520Y834539D01*
X1322820Y833920D01*
X1323760Y833500D01*
X1336800Y833500D01*
X1337720Y833920D01*
X1338140Y834840D01*
X1338140Y847880D01*
X1337700Y848820D01*
X1337100Y849120D01*
X1323260Y849300D01*
X1323080Y863139D01*
X1322780Y863760D01*
X1322140Y864080D01*
X1308300Y864260D01*
X1308120Y878100D01*
X1307820Y878700D01*
G37*
G36*
X1471440Y879140D02*
G01*
X1458280Y879100D01*
X1457460Y878720D01*
X1457160Y878100D01*
X1456980Y864260D01*
X1443140Y864080D01*
X1442500Y863760D01*
X1442200Y863139D01*
X1442020Y849300D01*
X1428180Y849120D01*
X1427580Y848820D01*
X1427140Y847880D01*
X1427140Y834840D01*
X1427560Y833920D01*
X1428480Y833500D01*
X1441519Y833500D01*
X1442460Y833920D01*
X1442760Y834539D01*
X1442940Y848379D01*
X1456780Y848560D01*
X1457420Y848860D01*
X1457720Y849500D01*
X1457900Y863340D01*
X1471740Y863520D01*
X1472340Y863820D01*
X1472780Y864760D01*
X1472780Y877800D01*
X1472360Y878720D01*
G37*
G36*
X1336800Y819300D02*
G01*
X1308680Y819260D01*
X1307880Y818880D01*
X1307460Y817960D01*
X1307460Y789960D01*
X1307880Y789040D01*
X1308800Y788620D01*
X1336800Y788620D01*
X1337720Y789040D01*
X1338140Y789960D01*
X1338140Y817960D01*
X1337720Y818880D01*
G37*
G36*
X1456480Y819300D02*
G01*
X1428360Y819260D01*
X1427560Y818880D01*
X1427140Y817960D01*
X1427140Y789960D01*
X1427560Y789040D01*
X1428480Y788620D01*
X1456480Y788620D01*
X1457400Y789040D01*
X1457820Y789960D01*
X1457820Y817960D01*
X1457400Y818880D01*
G37*
G36*
X1291920Y744500D02*
G01*
X1278760Y744460D01*
X1277960Y744080D01*
X1277540Y743160D01*
X1277540Y715160D01*
X1277980Y714220D01*
X1278580Y713920D01*
X1292420Y713740D01*
X1292600Y699900D01*
X1292900Y699300D01*
X1293839Y698860D01*
X1471440Y698860D01*
X1472360Y699280D01*
X1472780Y700200D01*
X1472780Y713560D01*
X1473220Y714020D01*
X1486800Y714020D01*
X1487540Y714760D01*
X1487540Y743560D01*
X1486800Y744300D01*
X1472960Y744300D01*
X1472220Y743560D01*
X1472220Y729800D01*
X1471759Y729340D01*
X1458000Y729340D01*
X1457260Y728600D01*
X1457260Y715000D01*
X1456740Y714580D01*
X1308300Y714659D01*
X1308120Y728500D01*
X1307820Y729140D01*
X1307180Y729440D01*
X1293340Y729620D01*
X1293160Y743460D01*
X1292860Y744060D01*
G37*
G36*
X19600Y1357760D02*
G01*
X19600Y1352960D01*
X45400Y1352960D01*
X48900Y1349540D01*
X48900Y1341639D01*
X45500Y1338360D01*
X24400Y1338360D01*
X24400Y1352960D01*
X19600Y1352960D01*
X19600Y1313940D01*
X24400Y1313940D01*
X24400Y1333560D01*
X30600Y1333560D01*
X48900Y1315340D01*
X48900Y1313940D01*
X53600Y1313940D01*
X53560Y1316780D01*
X53200Y1317580D01*
X52900Y1317960D01*
X37500Y1333560D01*
X47040Y1333600D01*
X47460Y1333720D01*
X48200Y1334259D01*
X53300Y1339420D01*
X53660Y1340260D01*
X53660Y1351040D01*
X53300Y1351879D01*
X47740Y1357360D01*
X47320Y1357580D01*
X46400Y1357760D01*
G37*
G36*
X62500Y1357760D02*
G01*
X62539Y1350160D01*
X62900Y1349319D01*
X63200Y1348940D01*
X76100Y1335860D01*
X63200Y1322760D01*
X62680Y1322000D01*
X62539Y1321579D01*
X62500Y1313940D01*
X67300Y1313940D01*
X67300Y1320140D01*
X79400Y1332440D01*
X91700Y1320140D01*
X91700Y1313940D01*
X96500Y1313940D01*
X96460Y1321579D01*
X96100Y1322380D01*
X95800Y1322760D01*
X82899Y1335940D01*
X95800Y1348940D01*
X96320Y1349720D01*
X96460Y1350160D01*
X96500Y1357760D01*
X91700Y1357760D01*
X91700Y1351560D01*
X79500Y1339259D01*
X67300Y1351560D01*
X67300Y1357760D01*
G37*
G36*
X19600Y1260900D02*
G01*
X19600Y1256100D01*
X34200Y1256100D01*
X34200Y1217000D01*
X39000Y1217000D01*
X39000Y1256100D01*
X53700Y1256100D01*
X53700Y1260900D01*
G37*
G36*
X62500Y1260900D02*
G01*
X62539Y1253260D01*
X62900Y1252460D01*
X76100Y1238900D01*
X62900Y1225540D01*
X62539Y1224680D01*
X62500Y1217100D01*
X67300Y1217100D01*
X67300Y1223300D01*
X79400Y1235600D01*
X91700Y1223300D01*
X91700Y1217100D01*
X96500Y1217100D01*
X96460Y1224680D01*
X96100Y1225540D01*
X82899Y1239000D01*
X96100Y1252460D01*
X96460Y1253260D01*
X96500Y1260900D01*
X91700Y1260900D01*
X91700Y1254700D01*
X79500Y1242400D01*
X67300Y1254700D01*
X67300Y1260900D01*
G37*
G36*
X24500Y1163960D02*
G01*
X24500Y1159160D01*
X48300Y1159160D01*
X48300Y1157460D01*
X34400Y1143760D01*
X33880Y1142920D01*
X33740Y1142500D01*
X33740Y1141560D01*
X34100Y1140720D01*
X34800Y1140040D01*
X35220Y1139820D01*
X36100Y1139660D01*
X39900Y1139660D01*
X48200Y1131260D01*
X48200Y1127860D01*
X40300Y1119960D01*
X27500Y1119960D01*
X22900Y1124560D01*
X19600Y1121160D01*
X24800Y1115860D01*
X25620Y1115320D01*
X26500Y1115160D01*
X41680Y1115200D01*
X42120Y1115320D01*
X42539Y1115540D01*
X52300Y1125260D01*
X52820Y1126020D01*
X52960Y1126460D01*
X52960Y1132740D01*
X52600Y1133580D01*
X52300Y1133960D01*
X42300Y1143920D01*
X41700Y1144160D01*
X52699Y1155220D01*
X53060Y1156060D01*
X53099Y1163960D01*
G37*
G36*
X110300Y1163960D02*
G01*
X110300Y1159160D01*
X134000Y1159160D01*
X134000Y1157460D01*
X120200Y1143760D01*
X119680Y1142920D01*
X119540Y1142500D01*
X119540Y1141560D01*
X119900Y1140720D01*
X120559Y1140040D01*
X120980Y1139820D01*
X121900Y1139660D01*
X125600Y1139660D01*
X134000Y1131260D01*
X134000Y1127860D01*
X126000Y1119960D01*
X113200Y1119960D01*
X108699Y1124560D01*
X105300Y1121160D01*
X110960Y1115540D01*
X111380Y1115320D01*
X112300Y1115160D01*
X127480Y1115200D01*
X127920Y1115320D01*
X128340Y1115540D01*
X138360Y1125620D01*
X138760Y1126460D01*
X138760Y1132740D01*
X138360Y1133580D01*
X128300Y1143760D01*
X127899Y1144060D01*
X127500Y1144160D01*
X138400Y1155220D01*
X138760Y1156060D01*
X138800Y1163960D01*
G37*
G36*
X62200Y1158960D02*
G01*
X62200Y1150760D01*
X76800Y1116460D01*
X77200Y1115800D01*
X77720Y1115320D01*
X78360Y1115040D01*
X79100Y1114960D01*
X79840Y1115040D01*
X80460Y1115320D01*
X80940Y1115800D01*
X81300Y1116460D01*
X96100Y1150660D01*
X96300Y1151660D01*
X96300Y1158960D01*
X91500Y1158960D01*
X91500Y1152160D01*
X79100Y1123560D01*
X67000Y1152160D01*
X67000Y1158960D01*
G37*
G36*
X19600Y1061900D02*
G01*
X19600Y1042500D01*
X40100Y1042500D01*
X48300Y1034300D01*
X48300Y1026200D01*
X40000Y1017900D01*
X19800Y1017900D01*
X19800Y1013100D01*
X41520Y1013139D01*
X41980Y1013280D01*
X42699Y1013800D01*
X52400Y1023500D01*
X52920Y1024280D01*
X53060Y1024720D01*
X53060Y1035819D01*
X52920Y1036260D01*
X52699Y1036620D01*
X42400Y1046860D01*
X41540Y1047260D01*
X24400Y1047300D01*
X24400Y1057100D01*
X53099Y1057100D01*
X53099Y1061900D01*
G37*
G36*
X62200Y1056900D02*
G01*
X62200Y1048700D01*
X76800Y1014400D01*
X77200Y1013740D01*
X77720Y1013280D01*
X78360Y1013000D01*
X79100Y1012900D01*
X79840Y1013000D01*
X80460Y1013280D01*
X80940Y1013740D01*
X81300Y1014400D01*
X96100Y1048600D01*
X96300Y1049600D01*
X96300Y1056900D01*
X91500Y1056900D01*
X91500Y1050100D01*
X79100Y1021500D01*
X67000Y1050100D01*
X67000Y1056900D01*
G37*
G36*
X19600Y959860D02*
G01*
X19600Y951660D01*
X34300Y917360D01*
X34660Y916700D01*
X35140Y916220D01*
X35760Y915939D01*
X36500Y915860D01*
X37240Y915939D01*
X37840Y916220D01*
X38340Y916700D01*
X38700Y917360D01*
X53500Y951560D01*
X53700Y952560D01*
X53700Y959860D01*
X48900Y959860D01*
X48900Y953060D01*
X36500Y924460D01*
X24400Y953060D01*
X24400Y959860D01*
G37*
G36*
X72300Y959860D02*
G01*
X72300Y955060D01*
X77100Y955060D01*
X77100Y920759D01*
X72300Y920759D01*
X72300Y915860D01*
X86900Y915860D01*
X86900Y920759D01*
X82000Y920759D01*
X82000Y955060D01*
X86900Y955060D01*
X86900Y959860D01*
G37*
G36*
X105399Y959860D02*
G01*
X105399Y916060D01*
X110300Y916060D01*
X110300Y952660D01*
X134700Y928060D01*
X134700Y916060D01*
X139500Y916060D01*
X139500Y959860D01*
X134700Y959860D01*
X134700Y935460D01*
X110300Y959860D01*
G37*
G36*
X19600Y862800D02*
G01*
X19600Y818900D01*
X53400Y818900D01*
X53400Y823700D01*
X24400Y823700D01*
X24400Y838400D01*
X43600Y838400D01*
X43600Y843300D01*
X24400Y843300D01*
X24400Y858000D01*
X53400Y858000D01*
X53400Y862800D01*
G37*
G36*
X62200Y862800D02*
G01*
X62200Y858000D01*
X88000Y858000D01*
X91500Y854500D01*
X91500Y846700D01*
X88100Y843300D01*
X67000Y843300D01*
X67000Y858000D01*
X62200Y858000D01*
X62200Y818900D01*
X67000Y818900D01*
X67000Y838500D01*
X73200Y838500D01*
X91500Y820400D01*
X91500Y818900D01*
X96199Y818900D01*
X96160Y821780D01*
X95800Y822640D01*
X80100Y838500D01*
X89640Y838540D01*
X90440Y838900D01*
X95600Y844000D01*
X96120Y844820D01*
X96300Y845699D01*
X96260Y856040D01*
X95900Y856840D01*
X90340Y862360D01*
X89480Y862760D01*
G37*
G36*
X105100Y862800D02*
G01*
X105100Y858000D01*
X130900Y858000D01*
X134400Y854500D01*
X134400Y846700D01*
X131000Y843300D01*
X109900Y843300D01*
X109900Y858000D01*
X105100Y858000D01*
X105100Y818900D01*
X109900Y818900D01*
X109900Y838500D01*
X116100Y838500D01*
X134400Y820400D01*
X134400Y818900D01*
X139100Y818900D01*
X139060Y821780D01*
X138700Y822640D01*
X123000Y838500D01*
X132480Y838540D01*
X133340Y838900D01*
X138760Y844400D01*
X139140Y845260D01*
X139200Y845699D01*
X139200Y855600D01*
X139000Y856460D01*
X138760Y856840D01*
X133200Y862360D01*
X132340Y862760D01*
G37*
G36*
X1078600Y323400D02*
G01*
X1078120Y323360D01*
X1077260Y322960D01*
X1066800Y312440D01*
X1066440Y311580D01*
X1066400Y303100D01*
X1071200Y303100D01*
X1071200Y310100D01*
X1079600Y318600D01*
X1102300Y318600D01*
X1110500Y310300D01*
X1110500Y303000D01*
X1102100Y294600D01*
X1079600Y294600D01*
X1071200Y303100D01*
X1066400Y303100D01*
X1066440Y301680D01*
X1066580Y301220D01*
X1067100Y300500D01*
X1077240Y290260D01*
X1077620Y290000D01*
X1078080Y289840D01*
X1103100Y289800D01*
X1104020Y290000D01*
X1104800Y290600D01*
X1114840Y300640D01*
X1115100Y301020D01*
X1115300Y302000D01*
X1115300Y311400D01*
X1115100Y312240D01*
X1114500Y313000D01*
X1104900Y322600D01*
X1104620Y322960D01*
X1103820Y323360D01*
G37*
G36*
X1086100Y308900D02*
G01*
X1085620Y308860D01*
X1084760Y308500D01*
X1084400Y308200D01*
X1083880Y307380D01*
X1083700Y306500D01*
X1083740Y305980D01*
X1083880Y305520D01*
X1084400Y304800D01*
X1085180Y304280D01*
X1085620Y304140D01*
X1096380Y304140D01*
X1097240Y304500D01*
X1097900Y305140D01*
X1098120Y305520D01*
X1098260Y305980D01*
X1098260Y306940D01*
X1097900Y307800D01*
X1097600Y308200D01*
X1096820Y308720D01*
X1096380Y308860D01*
G37*
G36*
X1066400Y280500D02*
G01*
X1066400Y251900D01*
X1071200Y251900D01*
X1071200Y275700D01*
X1072900Y275700D01*
X1086960Y261500D01*
X1087820Y261140D01*
X1088780Y261140D01*
X1089640Y261500D01*
X1090000Y261800D01*
X1090520Y262620D01*
X1090700Y263500D01*
X1090700Y267300D01*
X1099100Y275600D01*
X1102500Y275600D01*
X1110400Y267700D01*
X1110400Y254899D01*
X1105800Y250300D01*
X1109200Y247000D01*
X1114500Y252200D01*
X1115020Y253020D01*
X1115200Y253900D01*
X1115160Y269080D01*
X1114800Y269940D01*
X1105100Y279700D01*
X1104320Y280220D01*
X1103880Y280360D01*
X1097620Y280360D01*
X1096760Y280000D01*
X1086600Y269900D01*
X1086280Y269500D01*
X1086100Y269100D01*
X1075140Y280100D01*
X1074280Y280460D01*
G37*
G36*
X1078800Y237900D02*
G01*
X1077820Y237740D01*
X1077100Y237300D01*
X1071800Y232160D01*
X1071580Y231759D01*
X1071440Y231260D01*
X1071400Y212000D01*
X1076100Y212000D01*
X1076100Y229700D01*
X1079700Y233100D01*
X1106900Y233100D01*
X1110400Y229700D01*
X1110400Y211900D01*
X1107200Y208800D01*
X1079700Y208800D01*
X1076100Y212000D01*
X1071400Y212000D01*
X1071440Y210440D01*
X1071800Y209540D01*
X1077100Y204600D01*
X1077900Y204000D01*
X1078300Y203840D01*
X1108200Y203800D01*
X1109200Y204000D01*
X1109620Y204240D01*
X1114500Y209300D01*
X1115020Y210020D01*
X1115160Y210479D01*
X1115160Y231080D01*
X1114800Y231940D01*
X1109700Y237200D01*
X1108980Y237719D01*
X1108520Y237860D01*
G37*
G36*
X1071400Y185400D02*
G01*
X1071400Y170700D01*
X1076200Y170700D01*
X1076200Y175600D01*
X1110500Y175600D01*
X1110500Y170700D01*
X1115300Y170700D01*
X1115300Y185400D01*
X1110500Y185400D01*
X1110500Y180500D01*
X1076200Y180500D01*
X1076200Y185400D01*
G37*
G36*
X1168000Y309300D02*
G01*
X1167340Y309220D01*
X1166780Y308940D01*
X1166300Y308520D01*
X1165760Y307580D01*
X1165620Y307140D01*
X1165660Y306600D01*
X1165800Y306200D01*
X1166400Y305400D01*
X1177900Y294300D01*
X1181000Y297600D01*
X1173700Y304800D01*
X1214300Y304800D01*
X1214300Y309300D01*
G37*
G36*
X1165500Y280700D02*
G01*
X1165500Y252100D01*
X1170200Y252100D01*
X1170200Y275900D01*
X1171900Y275900D01*
X1186060Y261700D01*
X1186920Y261340D01*
X1187840Y261340D01*
X1188640Y261700D01*
X1189340Y262400D01*
X1189600Y262820D01*
X1189800Y263700D01*
X1189800Y267500D01*
X1198200Y275800D01*
X1201500Y275800D01*
X1209400Y267900D01*
X1209400Y255100D01*
X1204900Y250500D01*
X1208200Y247200D01*
X1213500Y252399D01*
X1214020Y253220D01*
X1214200Y254100D01*
X1214160Y269280D01*
X1213800Y270140D01*
X1204200Y279900D01*
X1203380Y280420D01*
X1202500Y280600D01*
X1196660Y280560D01*
X1195860Y280200D01*
X1185700Y270100D01*
X1185380Y269700D01*
X1185200Y269300D01*
X1174240Y280300D01*
X1173380Y280660D01*
G37*
G36*
X1177800Y238100D02*
G01*
X1176900Y237940D01*
X1176200Y237500D01*
X1170900Y232360D01*
X1170680Y231960D01*
X1170540Y231460D01*
X1170500Y212200D01*
X1175200Y212200D01*
X1175200Y229899D01*
X1178800Y233299D01*
X1206000Y233299D01*
X1209400Y229899D01*
X1209400Y212100D01*
X1206300Y209000D01*
X1178700Y209000D01*
X1175200Y212200D01*
X1170500Y212200D01*
X1170540Y210640D01*
X1170900Y209740D01*
X1176200Y204800D01*
X1177000Y204200D01*
X1177800Y204000D01*
X1207300Y204000D01*
X1208220Y204200D01*
X1209000Y204800D01*
X1213860Y209840D01*
X1214160Y210680D01*
X1214160Y231280D01*
X1213800Y232140D01*
X1208400Y237700D01*
X1208020Y237920D01*
X1207560Y238060D01*
G37*
G36*
X1170500Y185600D02*
G01*
X1170500Y170900D01*
X1175300Y170900D01*
X1175300Y175799D01*
X1209500Y175799D01*
X1209500Y170900D01*
X1214400Y170900D01*
X1214400Y185600D01*
X1209500Y185600D01*
X1209500Y180700D01*
X1175300Y180700D01*
X1175300Y185600D01*
G37*
G36*
X1269600Y281000D02*
G01*
X1269600Y246900D01*
X1274400Y246900D01*
X1274400Y261500D01*
X1313400Y261500D01*
X1313400Y266400D01*
X1274400Y266400D01*
X1274400Y281000D01*
G37*
G36*
X1276500Y238100D02*
G01*
X1275620Y237920D01*
X1274800Y237399D01*
X1270200Y232800D01*
X1269760Y232020D01*
X1269600Y231100D01*
X1269640Y211080D01*
X1269940Y210240D01*
X1270200Y209899D01*
X1275460Y204700D01*
X1276320Y204340D01*
X1281600Y204300D01*
X1282180Y204360D01*
X1282700Y204540D01*
X1283180Y204860D01*
X1283600Y205300D01*
X1302600Y233200D01*
X1305100Y233200D01*
X1308600Y230000D01*
X1308600Y212300D01*
X1305200Y208800D01*
X1303700Y208800D01*
X1303700Y204000D01*
X1306200Y204000D01*
X1307120Y204200D01*
X1307900Y204800D01*
X1312800Y209600D01*
X1313320Y210420D01*
X1313500Y211300D01*
X1313500Y231000D01*
X1313280Y231900D01*
X1313000Y232360D01*
X1312600Y232800D01*
X1307200Y237600D01*
X1306399Y237960D01*
X1301300Y238000D01*
X1300680Y237940D01*
X1300160Y237719D01*
X1299680Y237380D01*
X1280300Y209100D01*
X1277700Y209100D01*
X1274300Y212500D01*
X1274300Y230100D01*
X1277500Y233200D01*
X1279100Y233200D01*
X1279100Y238100D01*
G37*
G36*
X1276800Y195200D02*
G01*
X1276320Y195159D01*
X1275460Y194800D01*
X1270300Y189600D01*
X1269780Y188860D01*
X1269640Y188440D01*
X1269600Y166000D01*
X1274400Y166000D01*
X1274400Y187000D01*
X1277800Y190400D01*
X1285600Y190400D01*
X1289000Y187100D01*
X1289000Y166000D01*
X1269600Y166000D01*
X1269600Y161200D01*
X1313400Y161200D01*
X1313400Y166000D01*
X1293800Y166000D01*
X1293800Y172200D01*
X1312000Y190400D01*
X1313400Y190400D01*
X1313400Y195200D01*
X1310520Y195140D01*
X1310080Y195000D01*
X1309300Y194400D01*
X1293800Y179100D01*
X1293760Y188580D01*
X1293400Y189440D01*
X1288300Y194500D01*
X1287520Y195020D01*
X1287080Y195159D01*
G37*
G36*
X1363600Y280500D02*
G01*
X1363600Y251900D01*
X1368400Y251900D01*
X1368400Y275700D01*
X1370100Y275700D01*
X1383800Y261800D01*
X1384620Y261280D01*
X1385500Y261100D01*
X1385980Y261140D01*
X1386840Y261500D01*
X1387200Y261800D01*
X1387720Y262620D01*
X1387900Y263500D01*
X1387900Y267300D01*
X1396300Y275600D01*
X1399700Y275600D01*
X1407600Y267700D01*
X1407600Y254899D01*
X1403000Y250300D01*
X1406399Y247000D01*
X1411699Y252200D01*
X1412220Y253020D01*
X1412400Y253900D01*
X1412360Y269080D01*
X1412000Y269940D01*
X1402300Y279700D01*
X1401519Y280220D01*
X1401080Y280360D01*
X1394820Y280360D01*
X1393959Y280000D01*
X1383800Y269900D01*
X1383500Y269500D01*
X1383400Y269100D01*
X1372340Y280100D01*
X1371480Y280460D01*
G37*
G36*
X1368600Y237900D02*
G01*
X1368600Y233100D01*
X1375400Y233100D01*
X1404000Y220700D01*
X1375400Y208600D01*
X1368600Y208600D01*
X1368600Y203800D01*
X1376800Y203800D01*
X1411100Y218500D01*
X1411759Y218860D01*
X1412220Y219340D01*
X1412500Y219960D01*
X1412600Y220700D01*
X1412500Y221439D01*
X1412220Y222079D01*
X1411759Y222600D01*
X1411100Y223000D01*
X1376900Y237800D01*
X1376300Y237880D01*
G37*
G36*
X1363600Y194700D02*
G01*
X1363600Y166200D01*
X1368400Y166200D01*
X1368400Y189899D01*
X1370100Y189899D01*
X1383800Y176100D01*
X1384620Y175580D01*
X1385500Y175400D01*
X1385980Y175440D01*
X1386840Y175799D01*
X1387500Y176460D01*
X1387860Y177320D01*
X1387900Y181500D01*
X1396300Y189800D01*
X1399700Y189800D01*
X1407600Y181900D01*
X1407600Y169100D01*
X1403000Y164600D01*
X1406399Y161200D01*
X1412000Y166860D01*
X1412360Y167719D01*
X1412400Y182900D01*
X1412220Y183780D01*
X1411699Y184600D01*
X1401940Y194200D01*
X1401080Y194560D01*
X1394820Y194560D01*
X1393959Y194200D01*
X1383800Y184200D01*
X1383500Y183800D01*
X1383400Y183400D01*
X1372340Y194300D01*
X1371480Y194660D01*
G37*
G36*
X1467700Y237900D02*
G01*
X1467700Y233100D01*
X1474500Y233100D01*
X1503100Y220700D01*
X1474400Y208600D01*
X1467700Y208600D01*
X1467700Y203800D01*
X1475900Y203800D01*
X1510200Y218500D01*
X1510820Y218860D01*
X1511260Y219340D01*
X1511519Y219960D01*
X1511600Y220700D01*
X1511519Y221439D01*
X1511260Y222079D01*
X1510820Y222600D01*
X1510200Y223000D01*
X1475900Y237800D01*
X1475380Y237880D01*
G37*
G36*
X1462700Y194700D02*
G01*
X1462700Y161200D01*
X1482100Y161200D01*
X1482100Y181800D01*
X1490300Y189899D01*
X1498300Y189899D01*
X1506699Y181700D01*
X1506699Y161400D01*
X1511500Y161400D01*
X1511500Y182600D01*
X1511300Y183619D01*
X1511040Y184000D01*
X1501100Y194000D01*
X1500280Y194520D01*
X1499400Y194700D01*
X1488779Y194660D01*
X1488320Y194520D01*
X1487600Y194000D01*
X1477700Y184040D01*
X1477340Y183180D01*
X1477300Y166000D01*
X1467500Y166000D01*
X1467500Y194700D01*
G37*
G36*
X1580500Y280800D02*
G01*
X1580060Y280760D01*
X1579259Y280400D01*
X1569100Y270500D01*
X1568580Y269720D01*
X1568440Y269280D01*
X1568400Y256700D01*
X1573100Y256700D01*
X1573100Y267800D01*
X1581500Y276000D01*
X1599100Y276000D01*
X1607300Y267800D01*
X1607300Y256700D01*
X1568400Y256700D01*
X1568400Y247000D01*
X1573100Y247000D01*
X1573100Y251800D01*
X1607400Y251800D01*
X1607400Y247000D01*
X1612200Y247000D01*
X1612160Y269140D01*
X1611759Y270000D01*
X1601800Y280100D01*
X1601020Y280620D01*
X1600580Y280760D01*
G37*
G36*
X1568400Y237900D02*
G01*
X1568400Y233100D01*
X1592800Y233100D01*
X1568400Y208700D01*
X1568400Y203800D01*
X1612100Y203800D01*
X1612100Y208700D01*
X1575500Y208700D01*
X1600100Y233100D01*
X1612100Y233100D01*
X1612100Y237900D01*
G37*
G36*
X1592700Y195100D02*
G01*
X1592700Y175700D01*
X1597600Y175700D01*
X1597600Y185300D01*
X1607300Y185300D01*
X1607300Y174200D01*
X1599199Y166000D01*
X1581300Y166000D01*
X1573100Y174200D01*
X1573100Y182000D01*
X1577300Y186100D01*
X1573899Y189500D01*
X1569000Y184700D01*
X1568540Y183980D01*
X1568400Y183000D01*
X1568440Y172540D01*
X1568540Y172079D01*
X1569000Y171400D01*
X1578500Y161800D01*
X1579319Y161340D01*
X1580400Y161200D01*
X1600680Y161240D01*
X1601540Y161600D01*
X1611399Y171500D01*
X1611920Y172280D01*
X1612060Y172719D01*
X1612100Y187600D01*
X1611900Y188600D01*
X1611300Y189400D01*
X1610500Y189920D01*
X1609700Y190100D01*
X1597600Y190100D01*
X1597600Y195100D01*
G37*
G36*
X1679600Y280800D02*
G01*
X1679120Y280760D01*
X1678260Y280400D01*
X1667840Y270140D01*
X1667440Y269280D01*
X1667400Y256700D01*
X1672200Y256700D01*
X1672200Y267800D01*
X1680600Y276000D01*
X1698200Y276000D01*
X1706399Y267800D01*
X1706399Y256700D01*
X1667400Y256700D01*
X1667400Y247000D01*
X1672200Y247000D01*
X1672200Y251800D01*
X1706500Y251800D01*
X1706500Y247000D01*
X1711300Y247000D01*
X1711260Y269140D01*
X1710860Y270000D01*
X1700900Y280100D01*
X1700100Y280620D01*
X1699620Y280760D01*
G37*
G36*
X1667400Y237900D02*
G01*
X1667400Y233100D01*
X1691800Y233100D01*
X1667400Y208700D01*
X1667400Y203800D01*
X1711200Y203800D01*
X1711200Y208700D01*
X1674600Y208700D01*
X1699199Y233100D01*
X1711200Y233100D01*
X1711200Y237900D01*
G37*
G36*
X1691800Y195100D02*
G01*
X1691800Y175700D01*
X1696600Y175700D01*
X1696600Y185300D01*
X1706300Y185300D01*
X1706300Y174200D01*
X1698200Y166000D01*
X1680400Y166000D01*
X1672200Y174200D01*
X1672200Y182000D01*
X1676300Y186100D01*
X1673000Y189500D01*
X1667800Y184360D01*
X1667580Y183980D01*
X1667440Y183520D01*
X1667440Y172540D01*
X1667580Y172079D01*
X1667800Y171700D01*
X1677600Y161800D01*
X1678340Y161340D01*
X1679400Y161200D01*
X1699740Y161240D01*
X1700600Y161600D01*
X1701000Y161900D01*
X1710500Y171500D01*
X1710940Y172280D01*
X1711100Y173200D01*
X1711060Y188120D01*
X1710700Y189020D01*
X1710400Y189400D01*
X1709600Y189920D01*
X1708800Y190100D01*
X1696600Y190100D01*
X1696600Y195100D01*
G37*
G36*
X1776399Y281000D02*
G01*
X1776399Y276200D01*
X1800800Y276200D01*
X1776399Y251800D01*
X1776399Y246900D01*
X1820200Y246900D01*
X1820200Y251800D01*
X1783500Y251800D01*
X1808200Y276200D01*
X1820200Y276200D01*
X1820200Y281000D01*
G37*
G36*
X1776399Y228400D02*
G01*
X1776399Y213800D01*
X1781200Y213800D01*
X1781200Y218700D01*
X1815500Y218700D01*
X1815500Y213800D01*
X1820300Y213800D01*
X1820300Y228400D01*
X1815500Y228400D01*
X1815500Y223600D01*
X1781200Y223600D01*
X1781200Y228400D01*
G37*
G36*
X1776399Y195200D02*
G01*
X1776399Y190400D01*
X1783200Y190400D01*
X1811800Y178000D01*
X1783100Y166000D01*
X1776399Y166000D01*
X1776399Y161200D01*
X1784600Y161200D01*
X1818899Y175799D01*
X1819520Y176160D01*
X1819940Y176640D01*
X1820220Y177260D01*
X1820300Y178000D01*
X1820220Y178740D01*
X1819940Y179380D01*
X1819520Y179899D01*
X1818899Y180300D01*
X1784700Y195100D01*
X1784100Y195180D01*
G37*
G36*
X1992440Y268800D02*
G01*
X1991960Y268760D01*
X1991160Y268400D01*
X1980940Y258299D01*
X1980420Y257520D01*
X1980280Y257079D01*
X1980240Y248600D01*
X1985040Y248600D01*
X1985040Y255600D01*
X1993440Y264000D01*
X2016140Y264000D01*
X2024340Y255799D01*
X2024340Y248400D01*
X2016040Y240100D01*
X1993440Y240100D01*
X1985040Y248600D01*
X1980240Y248600D01*
X1980280Y247120D01*
X1980640Y246320D01*
X1991120Y235700D01*
X1991480Y235479D01*
X1991920Y235340D01*
X2017420Y235340D01*
X2018280Y235700D01*
X2028440Y245799D01*
X2028959Y246520D01*
X2029100Y246980D01*
X2029100Y257280D01*
X2028740Y258140D01*
X2018839Y268100D01*
X2018120Y268620D01*
X2017660Y268760D01*
G37*
G36*
X1999940Y254400D02*
G01*
X1999019Y254200D01*
X1998600Y253960D01*
X1997940Y253240D01*
X1997580Y252440D01*
X1997580Y251480D01*
X1997940Y250580D01*
X1998240Y250200D01*
X1999019Y249760D01*
X1999940Y249600D01*
X2010220Y249640D01*
X2011080Y249940D01*
X2011440Y250200D01*
X2011960Y251000D01*
X2012100Y251480D01*
X2012100Y252440D01*
X2011740Y253240D01*
X2011080Y253939D01*
X2010660Y254200D01*
X2009740Y254400D01*
G37*
G36*
X1992640Y226300D02*
G01*
X1992160Y226260D01*
X1991300Y225900D01*
X1985700Y220500D01*
X1985440Y220120D01*
X1985240Y219100D01*
X1985240Y200400D01*
X1990040Y200400D01*
X1990040Y218000D01*
X1993640Y221500D01*
X2020840Y221500D01*
X2024240Y218000D01*
X2024240Y200300D01*
X2021040Y197200D01*
X1993540Y197200D01*
X1990040Y200400D01*
X1985240Y200400D01*
X1985300Y198780D01*
X1985440Y198320D01*
X1986040Y197600D01*
X1991339Y192659D01*
X1991740Y192399D01*
X1992540Y192200D01*
X2022560Y192240D01*
X2023460Y192600D01*
X2023839Y192900D01*
X2028440Y197600D01*
X2028899Y198380D01*
X2029040Y199300D01*
X2029000Y219480D01*
X2028640Y220340D01*
X2023540Y225600D01*
X2022820Y226119D01*
X2022360Y226260D01*
G37*
G36*
X1985240Y173700D02*
G01*
X1985240Y159100D01*
X1990040Y159100D01*
X1990040Y164000D01*
X2024340Y164000D01*
X2024340Y159100D01*
X2029240Y159100D01*
X2029240Y173700D01*
X2024340Y173700D01*
X2024340Y168800D01*
X1990040Y168800D01*
X1990040Y173700D01*
G37*
G36*
X2081920Y254600D02*
G01*
X2081220Y254520D01*
X2080640Y254259D01*
X2080160Y253820D01*
X2079680Y252880D01*
X2079540Y252440D01*
X2079560Y251900D01*
X2079960Y251100D01*
X2091819Y239600D01*
X2094920Y242900D01*
X2087520Y250000D01*
X2128220Y250000D01*
X2128220Y254600D01*
G37*
G36*
X2091720Y226300D02*
G01*
X2091240Y226260D01*
X2090380Y225900D01*
X2084760Y220500D01*
X2084520Y220120D01*
X2084360Y219660D01*
X2084319Y200400D01*
X2089120Y200400D01*
X2089120Y218000D01*
X2092720Y221500D01*
X2119920Y221500D01*
X2123320Y218000D01*
X2123320Y200300D01*
X2120120Y197200D01*
X2092620Y197200D01*
X2089120Y200400D01*
X2084319Y200400D01*
X2084360Y198780D01*
X2084520Y198320D01*
X2084760Y197940D01*
X2090020Y193000D01*
X2090820Y192399D01*
X2091620Y192200D01*
X2121640Y192240D01*
X2122540Y192600D01*
X2122920Y192900D01*
X2127520Y197600D01*
X2127960Y198380D01*
X2128120Y199300D01*
X2128120Y219000D01*
X2127940Y219920D01*
X2127420Y220700D01*
X2122280Y225900D01*
X2121440Y226260D01*
G37*
G36*
X2084319Y173700D02*
G01*
X2084319Y159100D01*
X2089120Y159100D01*
X2089120Y164000D01*
X2123420Y164000D01*
X2123420Y159100D01*
X2128320Y159100D01*
X2128320Y173700D01*
X2123420Y173700D01*
X2123420Y168800D01*
X2089120Y168800D01*
X2089120Y173700D01*
G37*
G36*
X2185680Y268800D02*
G01*
X2185200Y268760D01*
X2184360Y268400D01*
X2183980Y268100D01*
X2178780Y262840D01*
X2178420Y262040D01*
X2178420Y246920D01*
X2178780Y246060D01*
X2188880Y236000D01*
X2189660Y235479D01*
X2190100Y235340D01*
X2193080Y235300D01*
X2193080Y240100D01*
X2191480Y240100D01*
X2183180Y248400D01*
X2183180Y260600D01*
X2186580Y264000D01*
X2194680Y264000D01*
X2223180Y236000D01*
X2223960Y235479D01*
X2224400Y235340D01*
X2225320Y235340D01*
X2226180Y235700D01*
X2226580Y236000D01*
X2227100Y236820D01*
X2227280Y237700D01*
X2227280Y268800D01*
X2222480Y268800D01*
X2222480Y243600D01*
X2197380Y268100D01*
X2196560Y268620D01*
X2195680Y268800D01*
G37*
G36*
X2190780Y226300D02*
G01*
X2190300Y226260D01*
X2189460Y225900D01*
X2183840Y220500D01*
X2183580Y220120D01*
X2183380Y219100D01*
X2183380Y200400D01*
X2188180Y200400D01*
X2188180Y218000D01*
X2191780Y221500D01*
X2218980Y221500D01*
X2222380Y218000D01*
X2222380Y200300D01*
X2219180Y197200D01*
X2191680Y197200D01*
X2188180Y200400D01*
X2183380Y200400D01*
X2183440Y198780D01*
X2183580Y198320D01*
X2184180Y197600D01*
X2189480Y192659D01*
X2189880Y192399D01*
X2190680Y192200D01*
X2220700Y192240D01*
X2221600Y192600D01*
X2221980Y192900D01*
X2226580Y197600D01*
X2227040Y198380D01*
X2227180Y199300D01*
X2227140Y219480D01*
X2226780Y220340D01*
X2221360Y225900D01*
X2220500Y226260D01*
G37*
G36*
X2183380Y173700D02*
G01*
X2183380Y159100D01*
X2188180Y159100D01*
X2188180Y164000D01*
X2222480Y164000D01*
X2222480Y159100D01*
X2227380Y159100D01*
X2227380Y173700D01*
X2222480Y173700D01*
X2222480Y168800D01*
X2188180Y168800D01*
X2188180Y173700D01*
G37*
G36*
X2277460Y268800D02*
G01*
X2277460Y240300D01*
X2282260Y240300D01*
X2282260Y264000D01*
X2283960Y264000D01*
X2297660Y250200D01*
X2298480Y249680D01*
X2299360Y249500D01*
X2299840Y249540D01*
X2300680Y249899D01*
X2301360Y250560D01*
X2301720Y251420D01*
X2301760Y255600D01*
X2310160Y264000D01*
X2313560Y264000D01*
X2321460Y256000D01*
X2321460Y243200D01*
X2316860Y238700D01*
X2320260Y235300D01*
X2325860Y240960D01*
X2326220Y241820D01*
X2326220Y257480D01*
X2325860Y258340D01*
X2315780Y268360D01*
X2314940Y268760D01*
X2308680Y268760D01*
X2308220Y268600D01*
X2307460Y268000D01*
X2297480Y258100D01*
X2297280Y257700D01*
X2297260Y257500D01*
X2286560Y268100D01*
X2285780Y268620D01*
X2285340Y268760D01*
G37*
G36*
X2289860Y226300D02*
G01*
X2289380Y226260D01*
X2288520Y225900D01*
X2282900Y220500D01*
X2282660Y220120D01*
X2282500Y219660D01*
X2282460Y200400D01*
X2287260Y200400D01*
X2287260Y218000D01*
X2290860Y221500D01*
X2318060Y221500D01*
X2321460Y218000D01*
X2321460Y200300D01*
X2318260Y197200D01*
X2290760Y197200D01*
X2287260Y200400D01*
X2282460Y200400D01*
X2282500Y198780D01*
X2282660Y198320D01*
X2282900Y197940D01*
X2288160Y193000D01*
X2288960Y192399D01*
X2289760Y192200D01*
X2319780Y192240D01*
X2320680Y192600D01*
X2321060Y192900D01*
X2325660Y197600D01*
X2326100Y198380D01*
X2326260Y199300D01*
X2326220Y219480D01*
X2325860Y220340D01*
X2320760Y225600D01*
X2320020Y226119D01*
X2319580Y226260D01*
G37*
G36*
X2282460Y173700D02*
G01*
X2282460Y159100D01*
X2287260Y159100D01*
X2287260Y164000D01*
X2321560Y164000D01*
X2321560Y159100D01*
X2326460Y159100D01*
X2326460Y173700D01*
X2321560Y173700D01*
X2321560Y168800D01*
X2287260Y168800D01*
X2287260Y173700D01*
G37*
G36*
X2405920Y268800D02*
G01*
X2405920Y264300D01*
X2378440Y264260D01*
X2377600Y263900D01*
X2377220Y263600D01*
X2376700Y262780D01*
X2376520Y261900D01*
X2376520Y259500D01*
X2405920Y259500D01*
X2405920Y240100D01*
X2399420Y240100D01*
X2381320Y258000D01*
X2381320Y259500D01*
X2376520Y259500D01*
X2376560Y256380D01*
X2376700Y255920D01*
X2377220Y255200D01*
X2396720Y236000D01*
X2397560Y235479D01*
X2397980Y235340D01*
X2408800Y235340D01*
X2409660Y235700D01*
X2410340Y236400D01*
X2410560Y236820D01*
X2410720Y237700D01*
X2410720Y259500D01*
X2427120Y259500D01*
X2427120Y264300D01*
X2410720Y264300D01*
X2410720Y268800D01*
G37*
G36*
X2388920Y226300D02*
G01*
X2388440Y226260D01*
X2387600Y225900D01*
X2381980Y220500D01*
X2381720Y220120D01*
X2381520Y219100D01*
X2381520Y200400D01*
X2386320Y200400D01*
X2386320Y218000D01*
X2389920Y221500D01*
X2417120Y221500D01*
X2420520Y218000D01*
X2420520Y200300D01*
X2417320Y197200D01*
X2389820Y197200D01*
X2386320Y200400D01*
X2381520Y200400D01*
X2381580Y198780D01*
X2381720Y198320D01*
X2382320Y197600D01*
X2387620Y192659D01*
X2388020Y192399D01*
X2388820Y192200D01*
X2418860Y192240D01*
X2419760Y192600D01*
X2424720Y197600D01*
X2425180Y198380D01*
X2425320Y199300D01*
X2425280Y219480D01*
X2425160Y219920D01*
X2424940Y220340D01*
X2419500Y225900D01*
X2418640Y226260D01*
G37*
G36*
X2381520Y173700D02*
G01*
X2381520Y159100D01*
X2386320Y159100D01*
X2386320Y164000D01*
X2420620Y164000D01*
X2420620Y159100D01*
X2425520Y159100D01*
X2425520Y173700D01*
X2420620Y173700D01*
X2420620Y168800D01*
X2386320Y168800D01*
X2386320Y173700D01*
G37*
G36*
X2477200Y268800D02*
G01*
X2477200Y235300D01*
X2496600Y235300D01*
X2496600Y255900D01*
X2504800Y264000D01*
X2512900Y264000D01*
X2521200Y255799D01*
X2521200Y235600D01*
X2526000Y235600D01*
X2525960Y257320D01*
X2525820Y257760D01*
X2525600Y258120D01*
X2515600Y268100D01*
X2514820Y268620D01*
X2514380Y268760D01*
X2503280Y268760D01*
X2502840Y268620D01*
X2502480Y268400D01*
X2492240Y258140D01*
X2491840Y257280D01*
X2491800Y240100D01*
X2482000Y240100D01*
X2482000Y268800D01*
G37*
G36*
X2489600Y226300D02*
G01*
X2489120Y226260D01*
X2488260Y225900D01*
X2482640Y220500D01*
X2482400Y220120D01*
X2482240Y219660D01*
X2482200Y200400D01*
X2487000Y200400D01*
X2487000Y218000D01*
X2490600Y221500D01*
X2517800Y221500D01*
X2521200Y218000D01*
X2521200Y200300D01*
X2518000Y197200D01*
X2490500Y197200D01*
X2487000Y200400D01*
X2482200Y200400D01*
X2482240Y198780D01*
X2482400Y198320D01*
X2482640Y197940D01*
X2487900Y193000D01*
X2488700Y192399D01*
X2489500Y192200D01*
X2519520Y192240D01*
X2520420Y192600D01*
X2520800Y192900D01*
X2525400Y197600D01*
X2525840Y198380D01*
X2526000Y199300D01*
X2525960Y219480D01*
X2525600Y220340D01*
X2520500Y225600D01*
X2519760Y226119D01*
X2519320Y226260D01*
G37*
G36*
X2482200Y173700D02*
G01*
X2482200Y159100D01*
X2487000Y159100D01*
X2487000Y164000D01*
X2521300Y164000D01*
X2521300Y159100D01*
X2526200Y159100D01*
X2526200Y173700D01*
X2521300Y173700D01*
X2521300Y168800D01*
X2487000Y168800D01*
X2487000Y173700D01*
G37*
G36*
X720600Y1938800D02*
G01*
X720120Y1938760D01*
X719260Y1938400D01*
X713600Y1932880D01*
X713240Y1932020D01*
X713199Y1918400D01*
X718000Y1918400D01*
X718000Y1930500D01*
X721600Y1934000D01*
X724700Y1934000D01*
X737700Y1921000D01*
X737700Y1913200D01*
X734599Y1910100D01*
X726400Y1910100D01*
X718000Y1918400D01*
X713199Y1918400D01*
X713240Y1916940D01*
X713379Y1916480D01*
X713600Y1916100D01*
X724040Y1905700D01*
X724419Y1905480D01*
X724880Y1905340D01*
X736120Y1905340D01*
X736919Y1905700D01*
X741800Y1910600D01*
X742320Y1911380D01*
X742460Y1911819D01*
X742460Y1922460D01*
X742320Y1922920D01*
X742099Y1923300D01*
X731400Y1934000D01*
X753900Y1934000D01*
X758800Y1929100D01*
X762099Y1932500D01*
X756140Y1938400D01*
X755280Y1938760D01*
G37*
G36*
X720500Y1895900D02*
G01*
X720020Y1895860D01*
X719160Y1895500D01*
X713900Y1890300D01*
X713379Y1889560D01*
X713240Y1889139D01*
X713240Y1874019D01*
X713600Y1873180D01*
X713900Y1872800D01*
X724060Y1862800D01*
X724920Y1862440D01*
X728000Y1862400D01*
X728000Y1867200D01*
X726400Y1867200D01*
X718000Y1875500D01*
X718000Y1887700D01*
X721500Y1891100D01*
X729500Y1891100D01*
X758000Y1863100D01*
X758820Y1862580D01*
X759700Y1862400D01*
X760180Y1862440D01*
X761040Y1862800D01*
X761400Y1863100D01*
X761919Y1863920D01*
X762099Y1864800D01*
X762099Y1895900D01*
X757300Y1895900D01*
X757300Y1870700D01*
X731840Y1895500D01*
X730980Y1895860D01*
G37*
G36*
X725600Y1853400D02*
G01*
X725120Y1853360D01*
X724260Y1853000D01*
X718700Y1847600D01*
X718480Y1847220D01*
X718340Y1846759D01*
X718300Y1827500D01*
X723000Y1827500D01*
X723000Y1845100D01*
X726600Y1848600D01*
X753800Y1848600D01*
X757200Y1845100D01*
X757200Y1827400D01*
X754000Y1824300D01*
X726500Y1824300D01*
X723000Y1827500D01*
X718300Y1827500D01*
X718340Y1825880D01*
X718480Y1825420D01*
X719000Y1824700D01*
X724300Y1819760D01*
X724720Y1819500D01*
X725600Y1819300D01*
X755580Y1819340D01*
X756440Y1819700D01*
X761400Y1824700D01*
X761840Y1825480D01*
X762000Y1826399D01*
X761960Y1846579D01*
X761600Y1847440D01*
X756200Y1853000D01*
X755819Y1853220D01*
X755360Y1853360D01*
G37*
G36*
X718300Y1800800D02*
G01*
X718300Y1786200D01*
X723100Y1786200D01*
X723100Y1791100D01*
X757300Y1791100D01*
X757300Y1786200D01*
X762200Y1786200D01*
X762200Y1800800D01*
X757300Y1800800D01*
X757300Y1795900D01*
X723100Y1795900D01*
X723100Y1800800D01*
G37*
G36*
X853800Y1938800D02*
G01*
X852900Y1938680D01*
X852200Y1938300D01*
X843600Y1930300D01*
X840500Y1933460D01*
X839700Y1933860D01*
X828860Y1933860D01*
X828060Y1933500D01*
X822900Y1928600D01*
X822440Y1927820D01*
X822300Y1926900D01*
X822300Y1918200D01*
X826800Y1918200D01*
X826800Y1925900D01*
X830200Y1929199D01*
X838400Y1929199D01*
X841500Y1926000D01*
X841500Y1918300D01*
X846000Y1918300D01*
X846000Y1925900D01*
X854700Y1934199D01*
X858400Y1934199D01*
X866700Y1925900D01*
X866700Y1918000D01*
X858400Y1910100D01*
X854700Y1910100D01*
X846000Y1918300D01*
X841500Y1918300D01*
X838400Y1914800D01*
X830699Y1914800D01*
X826800Y1918200D01*
X822300Y1918200D01*
X822300Y1916399D01*
X822560Y1915960D01*
X823100Y1915400D01*
X828660Y1910600D01*
X829800Y1910100D01*
X839300Y1910100D01*
X840240Y1910300D01*
X841100Y1910900D01*
X843800Y1913899D01*
X852600Y1905760D01*
X853340Y1905360D01*
X853700Y1905300D01*
X859840Y1905340D01*
X860639Y1905700D01*
X870500Y1915400D01*
X870800Y1915900D01*
X871020Y1916500D01*
X871100Y1917100D01*
X871100Y1928000D01*
X870500Y1928400D01*
X861000Y1938100D01*
X860500Y1938300D01*
X859900Y1938680D01*
X859500Y1938800D01*
G37*
G36*
X829500Y1895900D02*
G01*
X829020Y1895860D01*
X828160Y1895500D01*
X822900Y1890300D01*
X822380Y1889560D01*
X822240Y1889139D01*
X822240Y1874019D01*
X822600Y1873180D01*
X822900Y1872800D01*
X833060Y1862800D01*
X833920Y1862440D01*
X836900Y1862400D01*
X836900Y1867200D01*
X835300Y1867200D01*
X827000Y1875500D01*
X827000Y1887700D01*
X830400Y1891100D01*
X838500Y1891100D01*
X867360Y1862800D01*
X868220Y1862440D01*
X869140Y1862440D01*
X870000Y1862800D01*
X870400Y1863100D01*
X870920Y1863920D01*
X871100Y1864800D01*
X871100Y1895900D01*
X866300Y1895900D01*
X866300Y1870700D01*
X841200Y1895200D01*
X840380Y1895720D01*
X839500Y1895900D01*
G37*
G36*
X834599Y1853400D02*
G01*
X834120Y1853360D01*
X833259Y1853000D01*
X827660Y1847600D01*
X827400Y1847220D01*
X827200Y1846200D01*
X827200Y1827500D01*
X832000Y1827500D01*
X832000Y1845100D01*
X835600Y1848600D01*
X862800Y1848600D01*
X866200Y1845100D01*
X866200Y1827400D01*
X863000Y1824300D01*
X835500Y1824300D01*
X832000Y1827500D01*
X827200Y1827500D01*
X827260Y1825880D01*
X827400Y1825420D01*
X828000Y1824700D01*
X833300Y1819760D01*
X833700Y1819500D01*
X834500Y1819300D01*
X864520Y1819340D01*
X865420Y1819700D01*
X865800Y1820000D01*
X870400Y1824700D01*
X870860Y1825480D01*
X871000Y1826399D01*
X870960Y1846579D01*
X870600Y1847440D01*
X865500Y1852700D01*
X864780Y1853220D01*
X864320Y1853360D01*
G37*
G36*
X827200Y1800800D02*
G01*
X827200Y1786200D01*
X832000Y1786200D01*
X832000Y1791100D01*
X866300Y1791100D01*
X866300Y1786200D01*
X871200Y1786200D01*
X871200Y1800800D01*
X866300Y1800800D01*
X866300Y1795900D01*
X832000Y1795900D01*
X832000Y1800800D01*
G37*
G36*
X2484500Y1938800D02*
G01*
X2484020Y1938760D01*
X2483160Y1938400D01*
X2477900Y1933200D01*
X2477380Y1932420D01*
X2477240Y1931980D01*
X2477240Y1916920D01*
X2477600Y1916060D01*
X2487700Y1906000D01*
X2488480Y1905480D01*
X2488920Y1905340D01*
X2491900Y1905300D01*
X2491900Y1910100D01*
X2490300Y1910100D01*
X2482000Y1918400D01*
X2482000Y1930600D01*
X2485400Y1934000D01*
X2493500Y1934000D01*
X2522360Y1905700D01*
X2523220Y1905340D01*
X2524140Y1905340D01*
X2525000Y1905700D01*
X2525400Y1906000D01*
X2525920Y1906780D01*
X2526060Y1907220D01*
X2526100Y1938800D01*
X2521300Y1938800D01*
X2521300Y1913500D01*
X2496200Y1938100D01*
X2495380Y1938620D01*
X2494500Y1938800D01*
G37*
G36*
X2479800Y1881699D02*
G01*
X2479100Y1881620D01*
X2478520Y1881360D01*
X2478060Y1880920D01*
X2477560Y1879980D01*
X2477420Y1879540D01*
X2477440Y1879000D01*
X2477840Y1878200D01*
X2489700Y1866699D01*
X2492800Y1870000D01*
X2485400Y1877100D01*
X2526100Y1877100D01*
X2526100Y1881699D01*
G37*
G36*
X2489600Y1853400D02*
G01*
X2489120Y1853360D01*
X2488260Y1853000D01*
X2482660Y1847600D01*
X2482400Y1847220D01*
X2482200Y1846200D01*
X2482200Y1827500D01*
X2487000Y1827500D01*
X2487000Y1845100D01*
X2490600Y1848600D01*
X2517800Y1848600D01*
X2521200Y1845100D01*
X2521200Y1827400D01*
X2518000Y1824300D01*
X2490500Y1824300D01*
X2487000Y1827500D01*
X2482200Y1827500D01*
X2482260Y1825880D01*
X2482400Y1825420D01*
X2483000Y1824700D01*
X2488300Y1819760D01*
X2489100Y1819340D01*
X2519520Y1819340D01*
X2520420Y1819700D01*
X2520800Y1820000D01*
X2525400Y1824700D01*
X2525860Y1825480D01*
X2526000Y1826399D01*
X2525960Y1846579D01*
X2525600Y1847440D01*
X2520500Y1852700D01*
X2519780Y1853220D01*
X2519320Y1853360D01*
G37*
G36*
X2482200Y1800800D02*
G01*
X2482200Y1786200D01*
X2487000Y1786200D01*
X2487000Y1791100D01*
X2521300Y1791100D01*
X2521300Y1786200D01*
X2526200Y1786200D01*
X2526200Y1800800D01*
X2521300Y1800800D01*
X2521300Y1795900D01*
X2487000Y1795900D01*
X2487000Y1800800D01*
G37*
G36*
X2375300Y1938800D02*
G01*
X2375300Y1910300D01*
X2380100Y1910300D01*
X2380100Y1934000D01*
X2381800Y1934000D01*
X2395960Y1919900D01*
X2396820Y1919540D01*
X2397740Y1919540D01*
X2398540Y1919900D01*
X2399260Y1920560D01*
X2399660Y1921420D01*
X2399700Y1925600D01*
X2408100Y1933899D01*
X2411400Y1933899D01*
X2419300Y1926000D01*
X2419300Y1913200D01*
X2414800Y1908700D01*
X2418100Y1905300D01*
X2423700Y1910960D01*
X2424060Y1911819D01*
X2424100Y1927000D01*
X2423920Y1927880D01*
X2423400Y1928700D01*
X2414100Y1938000D01*
X2413280Y1938520D01*
X2412400Y1938700D01*
X2406560Y1938660D01*
X2405700Y1938300D01*
X2405300Y1938000D01*
X2395420Y1928100D01*
X2395100Y1927500D01*
X2384500Y1938100D01*
X2383680Y1938620D01*
X2382800Y1938800D01*
G37*
G36*
X2377900Y1881699D02*
G01*
X2377240Y1881620D01*
X2376680Y1881360D01*
X2376200Y1880920D01*
X2375660Y1879980D01*
X2375520Y1879540D01*
X2375560Y1879000D01*
X2375700Y1878600D01*
X2376300Y1877800D01*
X2387800Y1866699D01*
X2390900Y1870000D01*
X2383600Y1877100D01*
X2424200Y1877100D01*
X2424200Y1881699D01*
G37*
G36*
X2387700Y1853400D02*
G01*
X2387220Y1853360D01*
X2386420Y1853000D01*
X2380800Y1847600D01*
X2380580Y1847220D01*
X2380440Y1846759D01*
X2380400Y1827500D01*
X2385100Y1827500D01*
X2385100Y1845100D01*
X2388700Y1848600D01*
X2415900Y1848600D01*
X2419300Y1845100D01*
X2419300Y1827400D01*
X2416100Y1824300D01*
X2388600Y1824300D01*
X2385100Y1827500D01*
X2380400Y1827500D01*
X2380440Y1825880D01*
X2380580Y1825420D01*
X2381100Y1824700D01*
X2386500Y1819760D01*
X2387300Y1819340D01*
X2417680Y1819340D01*
X2418540Y1819700D01*
X2423500Y1824700D01*
X2423960Y1825480D01*
X2424100Y1826399D01*
X2424060Y1846579D01*
X2423700Y1847440D01*
X2418300Y1853000D01*
X2417920Y1853220D01*
X2417460Y1853360D01*
G37*
G36*
X2380400Y1800800D02*
G01*
X2380400Y1786200D01*
X2385200Y1786200D01*
X2385200Y1791100D01*
X2419400Y1791100D01*
X2419400Y1786200D01*
X2424300Y1786200D01*
X2424300Y1800800D01*
X2419400Y1800800D01*
X2419400Y1795900D01*
X2385200Y1795900D01*
X2385200Y1800800D01*
G37*
G36*
X2302900Y1938700D02*
G01*
X2302900Y1934300D01*
X2275900Y1934300D01*
X2274980Y1934100D01*
X2274200Y1933500D01*
X2273680Y1932760D01*
X2273540Y1932340D01*
X2273500Y1929500D01*
X2302900Y1929500D01*
X2302900Y1910100D01*
X2296400Y1910100D01*
X2278300Y1927900D01*
X2278300Y1929500D01*
X2273500Y1929500D01*
X2273540Y1926380D01*
X2273680Y1925920D01*
X2274200Y1925200D01*
X2294060Y1905700D01*
X2294920Y1905340D01*
X2305780Y1905340D01*
X2306640Y1905700D01*
X2307300Y1906360D01*
X2307660Y1907220D01*
X2307700Y1929500D01*
X2324100Y1929500D01*
X2324100Y1934300D01*
X2307700Y1934300D01*
X2307700Y1938700D01*
G37*
G36*
X2276000Y1881699D02*
G01*
X2275340Y1881620D01*
X2274800Y1881360D01*
X2274360Y1880920D01*
X2273620Y1879540D01*
X2273640Y1879000D01*
X2274040Y1878200D01*
X2286000Y1866699D01*
X2289100Y1870000D01*
X2281700Y1877100D01*
X2322400Y1877100D01*
X2322400Y1881699D01*
G37*
G36*
X2285900Y1853400D02*
G01*
X2285420Y1853360D01*
X2284560Y1853000D01*
X2278900Y1847600D01*
X2278680Y1847220D01*
X2278540Y1846759D01*
X2278500Y1827500D01*
X2283200Y1827500D01*
X2283200Y1845100D01*
X2286800Y1848600D01*
X2314000Y1848600D01*
X2317500Y1845100D01*
X2317500Y1827400D01*
X2314300Y1824300D01*
X2286800Y1824300D01*
X2283200Y1827500D01*
X2278500Y1827500D01*
X2278540Y1825880D01*
X2278680Y1825420D01*
X2279200Y1824700D01*
X2284600Y1819760D01*
X2285400Y1819340D01*
X2315820Y1819340D01*
X2316720Y1819700D01*
X2317100Y1820000D01*
X2321900Y1825060D01*
X2322260Y1825920D01*
X2322260Y1846579D01*
X2321900Y1847440D01*
X2316800Y1852700D01*
X2316080Y1853220D01*
X2315620Y1853360D01*
G37*
G36*
X2278500Y1800800D02*
G01*
X2278500Y1786200D01*
X2283300Y1786200D01*
X2283300Y1791100D01*
X2317600Y1791100D01*
X2317600Y1786200D01*
X2322400Y1786200D01*
X2322400Y1800800D01*
X2317600Y1800800D01*
X2317600Y1795900D01*
X2283300Y1795900D01*
X2283300Y1800800D01*
G37*
G36*
X2171600Y1938800D02*
G01*
X2171600Y1905300D01*
X2191100Y1905300D01*
X2191100Y1925900D01*
X2199200Y1934000D01*
X2207300Y1934000D01*
X2215600Y1925800D01*
X2215600Y1905500D01*
X2220400Y1905500D01*
X2220360Y1927260D01*
X2220220Y1927720D01*
X2220000Y1928100D01*
X2209640Y1938400D01*
X2208840Y1938760D01*
X2197780Y1938760D01*
X2197320Y1938620D01*
X2196600Y1938100D01*
X2186700Y1928140D01*
X2186340Y1927280D01*
X2186300Y1910100D01*
X2176400Y1910100D01*
X2176400Y1938800D01*
G37*
G36*
X2174200Y1881699D02*
G01*
X2173500Y1881620D01*
X2172920Y1881360D01*
X2172460Y1880920D01*
X2171960Y1879980D01*
X2171820Y1879540D01*
X2171860Y1879000D01*
X2172000Y1878600D01*
X2172600Y1877800D01*
X2184100Y1866699D01*
X2187200Y1870000D01*
X2179900Y1877100D01*
X2220500Y1877100D01*
X2220500Y1881699D01*
G37*
G36*
X2184000Y1853400D02*
G01*
X2183520Y1853360D01*
X2182720Y1853000D01*
X2177100Y1847600D01*
X2176880Y1847220D01*
X2176740Y1846759D01*
X2176700Y1827500D01*
X2181400Y1827500D01*
X2181400Y1845100D01*
X2185000Y1848600D01*
X2212200Y1848600D01*
X2215600Y1845100D01*
X2215600Y1827400D01*
X2212400Y1824300D01*
X2184900Y1824300D01*
X2181400Y1827500D01*
X2176700Y1827500D01*
X2176740Y1825880D01*
X2176880Y1825420D01*
X2177400Y1824700D01*
X2182800Y1819760D01*
X2183600Y1819340D01*
X2213980Y1819340D01*
X2214840Y1819700D01*
X2219800Y1824700D01*
X2220240Y1825480D01*
X2220400Y1826399D01*
X2220360Y1846579D01*
X2220000Y1847440D01*
X2214600Y1853000D01*
X2214220Y1853220D01*
X2213760Y1853360D01*
G37*
G36*
X2176700Y1800800D02*
G01*
X2176700Y1786200D01*
X2181500Y1786200D01*
X2181500Y1791100D01*
X2215700Y1791100D01*
X2215700Y1786200D01*
X2220600Y1786200D01*
X2220600Y1800800D01*
X2215700Y1800800D01*
X2215700Y1795900D01*
X2181500Y1795900D01*
X2181500Y1800800D01*
G37*
G36*
X2094300Y1939700D02*
G01*
X2093820Y1939660D01*
X2092960Y1939300D01*
X2082900Y1929500D01*
X2082380Y1928680D01*
X2082200Y1927800D01*
X2082200Y1918700D01*
X2087000Y1918700D01*
X2087000Y1926699D01*
X2095200Y1934900D01*
X2099400Y1934900D01*
X2108000Y1926399D01*
X2108000Y1918400D01*
X2099500Y1910100D01*
X2095700Y1910100D01*
X2087000Y1918700D01*
X2082200Y1918700D01*
X2082240Y1917320D01*
X2082600Y1916459D01*
X2088899Y1910100D01*
X2076000Y1910100D01*
X2066100Y1920000D01*
X2062700Y1916699D01*
X2073760Y1905700D01*
X2074620Y1905340D01*
X2100600Y1905300D01*
X2102200Y1906000D01*
X2112300Y1916160D01*
X2112660Y1917020D01*
X2112700Y1927400D01*
X2112520Y1928280D01*
X2112000Y1929100D01*
X2101640Y1939300D01*
X2100780Y1939660D01*
G37*
G36*
X2065200Y1881699D02*
G01*
X2064540Y1881620D01*
X2063980Y1881360D01*
X2063500Y1880920D01*
X2062960Y1879980D01*
X2062820Y1879540D01*
X2062840Y1879000D01*
X2063240Y1878200D01*
X2075100Y1866699D01*
X2078300Y1870000D01*
X2070900Y1877100D01*
X2111500Y1877100D01*
X2111500Y1881699D01*
G37*
G36*
X2075100Y1853400D02*
G01*
X2074580Y1853360D01*
X2074120Y1853220D01*
X2073400Y1852700D01*
X2068100Y1847600D01*
X2067880Y1847220D01*
X2067740Y1846759D01*
X2067700Y1827500D01*
X2072400Y1827500D01*
X2072400Y1845100D01*
X2076000Y1848600D01*
X2103200Y1848600D01*
X2106700Y1845100D01*
X2106700Y1827400D01*
X2103500Y1824300D01*
X2075900Y1824300D01*
X2072400Y1827500D01*
X2067700Y1827500D01*
X2067740Y1825880D01*
X2067880Y1825420D01*
X2068400Y1824700D01*
X2073800Y1819760D01*
X2074600Y1819340D01*
X2104500Y1819300D01*
X2105460Y1819480D01*
X2106300Y1820000D01*
X2111100Y1825060D01*
X2111460Y1825920D01*
X2111500Y1846100D01*
X2111300Y1847020D01*
X2110700Y1847800D01*
X2105620Y1853000D01*
X2104820Y1853360D01*
G37*
G36*
X2067700Y1800800D02*
G01*
X2067700Y1786200D01*
X2072500Y1786200D01*
X2072500Y1791100D01*
X2106700Y1791100D01*
X2106700Y1786200D01*
X2111600Y1786200D01*
X2111600Y1800800D01*
X2106700Y1800800D01*
X2106700Y1795900D01*
X2072500Y1795900D01*
X2072500Y1800800D01*
G37*
G36*
X1967500Y1938800D02*
G01*
X1967500Y1905300D01*
X1972300Y1905300D01*
X1972300Y1934000D01*
X1973800Y1934000D01*
X1993040Y1914760D01*
X1993420Y1914500D01*
X1993880Y1914340D01*
X2016399Y1914300D01*
X2016399Y1919100D01*
X1995300Y1919100D01*
X1976060Y1938400D01*
X1975680Y1938620D01*
X1975220Y1938760D01*
G37*
G36*
X1970100Y1881699D02*
G01*
X1969400Y1881620D01*
X1968820Y1881360D01*
X1968360Y1880920D01*
X1967860Y1879980D01*
X1967720Y1879540D01*
X1967760Y1879000D01*
X1967900Y1878600D01*
X1968500Y1877800D01*
X1980000Y1866699D01*
X1983100Y1870000D01*
X1975700Y1877100D01*
X2016399Y1877100D01*
X2016399Y1881699D01*
G37*
G36*
X1979900Y1853400D02*
G01*
X1979420Y1853360D01*
X1978560Y1853000D01*
X1973000Y1847600D01*
X1972780Y1847220D01*
X1972640Y1846759D01*
X1972600Y1827500D01*
X1977300Y1827500D01*
X1977300Y1845100D01*
X1980900Y1848600D01*
X2008100Y1848600D01*
X2011500Y1845100D01*
X2011500Y1827400D01*
X2008300Y1824300D01*
X1980800Y1824300D01*
X1977300Y1827500D01*
X1972600Y1827500D01*
X1972640Y1825880D01*
X1972780Y1825420D01*
X1973300Y1824700D01*
X1978600Y1819760D01*
X1979400Y1819340D01*
X2009820Y1819340D01*
X2010720Y1819700D01*
X2011100Y1820000D01*
X2015700Y1824700D01*
X2016140Y1825480D01*
X2016300Y1826399D01*
X2016260Y1846579D01*
X2015900Y1847440D01*
X2010800Y1852700D01*
X2010080Y1853220D01*
X2009620Y1853360D01*
G37*
G36*
X1972600Y1800800D02*
G01*
X1972600Y1786200D01*
X1977400Y1786200D01*
X1977400Y1791100D01*
X2011600Y1791100D01*
X2011600Y1786200D01*
X2016500Y1786200D01*
X2016500Y1800800D01*
X2011600Y1800800D01*
X2011600Y1795900D01*
X1977400Y1795900D01*
X1977400Y1800800D01*
G37*
G36*
X1904000Y1938800D02*
G01*
X1903060Y1938680D01*
X1902680Y1938520D01*
X1893800Y1930300D01*
X1890700Y1933460D01*
X1889900Y1933839D01*
X1889500Y1933899D01*
X1879060Y1933860D01*
X1878260Y1933500D01*
X1873100Y1928600D01*
X1872580Y1927820D01*
X1872440Y1927380D01*
X1872400Y1918200D01*
X1877000Y1918200D01*
X1877000Y1925900D01*
X1880400Y1929199D01*
X1888500Y1929199D01*
X1891600Y1926000D01*
X1891600Y1918300D01*
X1896100Y1918300D01*
X1896100Y1925900D01*
X1904800Y1934199D01*
X1908500Y1934199D01*
X1916800Y1925900D01*
X1916800Y1918000D01*
X1908600Y1910100D01*
X1904800Y1910100D01*
X1896100Y1918300D01*
X1891600Y1918300D01*
X1888500Y1914800D01*
X1880800Y1914800D01*
X1877000Y1918200D01*
X1872400Y1918200D01*
X1872400Y1916399D01*
X1872700Y1915940D01*
X1873200Y1915400D01*
X1878600Y1910740D01*
X1880000Y1910100D01*
X1889500Y1910100D01*
X1890380Y1910300D01*
X1891200Y1910900D01*
X1894000Y1913899D01*
X1902800Y1905740D01*
X1903540Y1905340D01*
X1909600Y1905300D01*
X1910400Y1905480D01*
X1911200Y1906000D01*
X1920700Y1915400D01*
X1921120Y1916500D01*
X1921200Y1917100D01*
X1921180Y1928060D01*
X1920820Y1928300D01*
X1911200Y1938100D01*
X1909820Y1938760D01*
G37*
G36*
X1874900Y1881699D02*
G01*
X1874240Y1881620D01*
X1873680Y1881360D01*
X1873200Y1880920D01*
X1872660Y1879980D01*
X1872520Y1879540D01*
X1872560Y1879000D01*
X1872700Y1878600D01*
X1873300Y1877800D01*
X1884800Y1866699D01*
X1888000Y1870000D01*
X1880600Y1877100D01*
X1921200Y1877100D01*
X1921200Y1881699D01*
G37*
G36*
X1884800Y1853400D02*
G01*
X1884280Y1853360D01*
X1883820Y1853220D01*
X1883100Y1852700D01*
X1877800Y1847600D01*
X1877580Y1847220D01*
X1877440Y1846759D01*
X1877400Y1827500D01*
X1882100Y1827500D01*
X1882100Y1845100D01*
X1885700Y1848600D01*
X1912900Y1848600D01*
X1916399Y1845100D01*
X1916399Y1827400D01*
X1913200Y1824300D01*
X1885600Y1824300D01*
X1882100Y1827500D01*
X1877400Y1827500D01*
X1877440Y1825880D01*
X1877580Y1825420D01*
X1878100Y1824700D01*
X1883500Y1819760D01*
X1884300Y1819340D01*
X1914199Y1819300D01*
X1915160Y1819480D01*
X1916000Y1820000D01*
X1920800Y1825060D01*
X1921160Y1825920D01*
X1921200Y1846100D01*
X1921000Y1847020D01*
X1920400Y1847800D01*
X1915320Y1853000D01*
X1914520Y1853360D01*
G37*
G36*
X1877400Y1800800D02*
G01*
X1877400Y1786200D01*
X1882200Y1786200D01*
X1882200Y1791100D01*
X1916399Y1791100D01*
X1916399Y1786200D01*
X1921300Y1786200D01*
X1921300Y1800800D01*
X1916399Y1800800D01*
X1916399Y1795900D01*
X1882200Y1795900D01*
X1882200Y1800800D01*
G37*
G36*
X1784600Y1938800D02*
G01*
X1784120Y1938760D01*
X1783260Y1938400D01*
X1777900Y1933200D01*
X1777380Y1932480D01*
X1777240Y1932020D01*
X1777200Y1918400D01*
X1782000Y1918400D01*
X1782000Y1930500D01*
X1785500Y1934000D01*
X1788600Y1934000D01*
X1801699Y1921000D01*
X1801699Y1913200D01*
X1798600Y1910100D01*
X1790300Y1910100D01*
X1782000Y1918400D01*
X1777200Y1918400D01*
X1777240Y1916940D01*
X1777380Y1916480D01*
X1777600Y1916100D01*
X1788000Y1905700D01*
X1788380Y1905480D01*
X1788839Y1905340D01*
X1800020Y1905340D01*
X1800480Y1905480D01*
X1801200Y1906000D01*
X1806100Y1910960D01*
X1806459Y1911819D01*
X1806459Y1922460D01*
X1806320Y1922920D01*
X1806100Y1923300D01*
X1795400Y1934000D01*
X1817800Y1934000D01*
X1822700Y1929100D01*
X1826100Y1932500D01*
X1820140Y1938400D01*
X1819280Y1938760D01*
G37*
G36*
X1779800Y1881699D02*
G01*
X1779100Y1881620D01*
X1778520Y1881360D01*
X1778060Y1880920D01*
X1777560Y1879980D01*
X1777420Y1879540D01*
X1777440Y1879000D01*
X1777840Y1878200D01*
X1789700Y1866699D01*
X1792800Y1870000D01*
X1785400Y1877100D01*
X1826100Y1877100D01*
X1826100Y1881699D01*
G37*
G36*
X1789600Y1853400D02*
G01*
X1789120Y1853360D01*
X1788260Y1853000D01*
X1782660Y1847600D01*
X1782400Y1847220D01*
X1782200Y1846200D01*
X1782200Y1827500D01*
X1787000Y1827500D01*
X1787000Y1845100D01*
X1790600Y1848600D01*
X1817800Y1848600D01*
X1821200Y1845100D01*
X1821200Y1827400D01*
X1818000Y1824300D01*
X1790500Y1824300D01*
X1787000Y1827500D01*
X1782200Y1827500D01*
X1782260Y1825880D01*
X1782400Y1825420D01*
X1783000Y1824700D01*
X1788300Y1819760D01*
X1789100Y1819340D01*
X1819520Y1819340D01*
X1820420Y1819700D01*
X1820800Y1820000D01*
X1825400Y1824700D01*
X1825860Y1825480D01*
X1826000Y1826399D01*
X1825960Y1846579D01*
X1825600Y1847440D01*
X1820500Y1852700D01*
X1819780Y1853220D01*
X1819319Y1853360D01*
G37*
G36*
X1782200Y1800800D02*
G01*
X1782200Y1786200D01*
X1787000Y1786200D01*
X1787000Y1791100D01*
X1821300Y1791100D01*
X1821300Y1786200D01*
X1826200Y1786200D01*
X1826200Y1800800D01*
X1821300Y1800800D01*
X1821300Y1795900D01*
X1787000Y1795900D01*
X1787000Y1800800D01*
G37*
G36*
X1629400Y1938800D02*
G01*
X1628920Y1938760D01*
X1628120Y1938400D01*
X1617900Y1928300D01*
X1617380Y1927480D01*
X1617200Y1926600D01*
X1617200Y1918600D01*
X1622000Y1918600D01*
X1622000Y1925500D01*
X1630400Y1934000D01*
X1653100Y1934000D01*
X1661300Y1925800D01*
X1661300Y1918400D01*
X1653000Y1910100D01*
X1630400Y1910100D01*
X1622000Y1918600D01*
X1617200Y1918600D01*
X1617240Y1917120D01*
X1617600Y1916260D01*
X1628080Y1905700D01*
X1628440Y1905480D01*
X1628880Y1905340D01*
X1654379Y1905340D01*
X1655240Y1905700D01*
X1665700Y1916100D01*
X1665920Y1916480D01*
X1666060Y1916940D01*
X1666060Y1927280D01*
X1665700Y1928140D01*
X1655800Y1938100D01*
X1655080Y1938620D01*
X1654620Y1938760D01*
G37*
G36*
X1636900Y1924300D02*
G01*
X1636420Y1924259D01*
X1635560Y1923899D01*
X1634900Y1923240D01*
X1634540Y1922380D01*
X1634540Y1921420D01*
X1634900Y1920560D01*
X1635560Y1919900D01*
X1636420Y1919540D01*
X1647180Y1919540D01*
X1648040Y1919900D01*
X1648700Y1920560D01*
X1649060Y1921420D01*
X1649060Y1922380D01*
X1648700Y1923240D01*
X1648040Y1923899D01*
X1647180Y1924259D01*
G37*
G36*
X1624500Y1895900D02*
G01*
X1624019Y1895860D01*
X1623160Y1895500D01*
X1617900Y1890300D01*
X1617380Y1889560D01*
X1617240Y1889139D01*
X1617240Y1874019D01*
X1617600Y1873160D01*
X1627700Y1863100D01*
X1628480Y1862580D01*
X1628920Y1862440D01*
X1631900Y1862400D01*
X1631900Y1867200D01*
X1630300Y1867200D01*
X1622000Y1875500D01*
X1622000Y1887700D01*
X1625400Y1891100D01*
X1633500Y1891100D01*
X1662360Y1862800D01*
X1663220Y1862440D01*
X1664139Y1862440D01*
X1665000Y1862800D01*
X1665400Y1863100D01*
X1665920Y1863920D01*
X1666100Y1864800D01*
X1666100Y1895900D01*
X1661300Y1895900D01*
X1661300Y1870700D01*
X1636200Y1895200D01*
X1635380Y1895720D01*
X1634500Y1895900D01*
G37*
G36*
X1629600Y1853400D02*
G01*
X1629120Y1853360D01*
X1628260Y1853000D01*
X1622660Y1847600D01*
X1622400Y1847220D01*
X1622200Y1846200D01*
X1622200Y1827500D01*
X1627000Y1827500D01*
X1627000Y1845100D01*
X1630600Y1848600D01*
X1657800Y1848600D01*
X1661200Y1845100D01*
X1661200Y1827400D01*
X1658000Y1824300D01*
X1630500Y1824300D01*
X1627000Y1827500D01*
X1622200Y1827500D01*
X1622260Y1825880D01*
X1622400Y1825420D01*
X1623000Y1824700D01*
X1628300Y1819760D01*
X1629100Y1819340D01*
X1659520Y1819340D01*
X1660420Y1819700D01*
X1660800Y1820000D01*
X1665400Y1824700D01*
X1665860Y1825480D01*
X1666000Y1826399D01*
X1665960Y1846579D01*
X1665600Y1847440D01*
X1660500Y1852700D01*
X1659780Y1853220D01*
X1659319Y1853360D01*
G37*
G36*
X1622200Y1800800D02*
G01*
X1622200Y1786200D01*
X1627000Y1786200D01*
X1627000Y1791100D01*
X1661300Y1791100D01*
X1661300Y1786200D01*
X1666200Y1786200D01*
X1666200Y1800800D01*
X1661300Y1800800D01*
X1661300Y1795900D01*
X1627000Y1795900D01*
X1627000Y1800800D01*
G37*
G36*
X1518100Y1924600D02*
G01*
X1517400Y1924500D01*
X1516819Y1924220D01*
X1516360Y1923760D01*
X1515720Y1922420D01*
X1515740Y1921900D01*
X1516140Y1921100D01*
X1528000Y1909500D01*
X1531100Y1912900D01*
X1523700Y1920000D01*
X1564400Y1920000D01*
X1564400Y1924600D01*
G37*
G36*
X1522800Y1895900D02*
G01*
X1522320Y1895860D01*
X1521459Y1895500D01*
X1516200Y1890300D01*
X1515680Y1889560D01*
X1515540Y1889139D01*
X1515540Y1874019D01*
X1515900Y1873160D01*
X1526000Y1863100D01*
X1526780Y1862580D01*
X1527220Y1862440D01*
X1530200Y1862400D01*
X1530200Y1867200D01*
X1528600Y1867200D01*
X1520300Y1875500D01*
X1520300Y1887700D01*
X1523700Y1891100D01*
X1531800Y1891100D01*
X1560660Y1862800D01*
X1561519Y1862440D01*
X1562440Y1862440D01*
X1563300Y1862800D01*
X1563700Y1863100D01*
X1564220Y1863920D01*
X1564400Y1864800D01*
X1564400Y1895900D01*
X1559600Y1895900D01*
X1559600Y1870700D01*
X1534500Y1895200D01*
X1533680Y1895720D01*
X1532800Y1895900D01*
G37*
G36*
X1527900Y1853400D02*
G01*
X1527420Y1853360D01*
X1526560Y1853000D01*
X1520960Y1847600D01*
X1520700Y1847220D01*
X1520500Y1846200D01*
X1520500Y1827500D01*
X1525300Y1827500D01*
X1525300Y1845100D01*
X1528899Y1848600D01*
X1556100Y1848600D01*
X1559500Y1845100D01*
X1559500Y1827400D01*
X1556300Y1824300D01*
X1528800Y1824300D01*
X1525300Y1827500D01*
X1520500Y1827500D01*
X1520560Y1825880D01*
X1520700Y1825420D01*
X1521300Y1824700D01*
X1526600Y1819760D01*
X1527400Y1819340D01*
X1557820Y1819340D01*
X1558720Y1819700D01*
X1559100Y1820000D01*
X1563700Y1824700D01*
X1564139Y1825480D01*
X1564300Y1826399D01*
X1564259Y1846579D01*
X1563899Y1847440D01*
X1558800Y1852700D01*
X1558080Y1853220D01*
X1557620Y1853360D01*
G37*
G36*
X1520500Y1800800D02*
G01*
X1520500Y1786200D01*
X1525300Y1786200D01*
X1525300Y1791100D01*
X1559600Y1791100D01*
X1559600Y1786200D01*
X1564500Y1786200D01*
X1564500Y1800800D01*
X1559600Y1800800D01*
X1559600Y1795900D01*
X1525300Y1795900D01*
X1525300Y1800800D01*
G37*
G36*
X1422300Y1938800D02*
G01*
X1421819Y1938760D01*
X1420960Y1938400D01*
X1415700Y1933200D01*
X1415180Y1932420D01*
X1415040Y1931980D01*
X1415040Y1916920D01*
X1415400Y1916060D01*
X1425500Y1906000D01*
X1426279Y1905480D01*
X1426720Y1905340D01*
X1429700Y1905300D01*
X1429700Y1910100D01*
X1428100Y1910100D01*
X1419800Y1918400D01*
X1419800Y1930600D01*
X1423200Y1934000D01*
X1431300Y1934000D01*
X1460160Y1905700D01*
X1461020Y1905340D01*
X1461940Y1905340D01*
X1462800Y1905700D01*
X1463200Y1906000D01*
X1463720Y1906780D01*
X1463860Y1907220D01*
X1463899Y1938800D01*
X1459100Y1938800D01*
X1459100Y1913500D01*
X1434000Y1938100D01*
X1433180Y1938620D01*
X1432300Y1938800D01*
G37*
G36*
X1422300Y1895900D02*
G01*
X1421819Y1895860D01*
X1420960Y1895500D01*
X1415700Y1890300D01*
X1415180Y1889560D01*
X1415040Y1889139D01*
X1415040Y1874019D01*
X1415400Y1873160D01*
X1425500Y1863100D01*
X1426279Y1862580D01*
X1426720Y1862440D01*
X1429700Y1862400D01*
X1429700Y1867200D01*
X1428100Y1867200D01*
X1419800Y1875500D01*
X1419800Y1887700D01*
X1423200Y1891100D01*
X1431300Y1891100D01*
X1460160Y1862800D01*
X1461020Y1862440D01*
X1461940Y1862440D01*
X1462800Y1862800D01*
X1463200Y1863100D01*
X1463720Y1863920D01*
X1463899Y1864800D01*
X1463899Y1895900D01*
X1459100Y1895900D01*
X1459100Y1870700D01*
X1434000Y1895200D01*
X1433180Y1895720D01*
X1432300Y1895900D01*
G37*
G36*
X1427400Y1853400D02*
G01*
X1426920Y1853360D01*
X1426060Y1853000D01*
X1420460Y1847600D01*
X1420200Y1847220D01*
X1420000Y1846200D01*
X1420000Y1827500D01*
X1424800Y1827500D01*
X1424800Y1845100D01*
X1428400Y1848600D01*
X1455600Y1848600D01*
X1459000Y1845100D01*
X1459000Y1827400D01*
X1455800Y1824300D01*
X1428300Y1824300D01*
X1424800Y1827500D01*
X1420000Y1827500D01*
X1420060Y1825880D01*
X1420200Y1825420D01*
X1420800Y1824700D01*
X1426100Y1819760D01*
X1426900Y1819340D01*
X1457320Y1819340D01*
X1458220Y1819700D01*
X1458600Y1820000D01*
X1463200Y1824700D01*
X1463640Y1825480D01*
X1463800Y1826399D01*
X1463760Y1846579D01*
X1463400Y1847440D01*
X1458300Y1852700D01*
X1457580Y1853220D01*
X1457120Y1853360D01*
G37*
G36*
X1420000Y1800800D02*
G01*
X1420000Y1786200D01*
X1424800Y1786200D01*
X1424800Y1791100D01*
X1459100Y1791100D01*
X1459100Y1786200D01*
X1464000Y1786200D01*
X1464000Y1800800D01*
X1459100Y1800800D01*
X1459100Y1795900D01*
X1424800Y1795900D01*
X1424800Y1800800D01*
G37*
G36*
X1319500Y1938800D02*
G01*
X1319500Y1910300D01*
X1324300Y1910300D01*
X1324300Y1934000D01*
X1326000Y1934000D01*
X1339700Y1920200D01*
X1340520Y1919680D01*
X1341399Y1919500D01*
X1341879Y1919540D01*
X1342740Y1919900D01*
X1343400Y1920560D01*
X1343760Y1921420D01*
X1343800Y1925600D01*
X1352200Y1933899D01*
X1355600Y1933899D01*
X1363500Y1926000D01*
X1363500Y1913200D01*
X1358899Y1908700D01*
X1362300Y1905300D01*
X1367900Y1910960D01*
X1368260Y1911819D01*
X1368300Y1927000D01*
X1368120Y1927880D01*
X1367600Y1928700D01*
X1357840Y1938300D01*
X1356980Y1938660D01*
X1350720Y1938660D01*
X1349860Y1938300D01*
X1339700Y1928300D01*
X1339400Y1927900D01*
X1339300Y1927500D01*
X1328240Y1938400D01*
X1327380Y1938760D01*
G37*
G36*
X1326800Y1895900D02*
G01*
X1326320Y1895860D01*
X1325460Y1895500D01*
X1320200Y1890300D01*
X1319680Y1889560D01*
X1319540Y1889139D01*
X1319540Y1874019D01*
X1319900Y1873160D01*
X1330000Y1863100D01*
X1330780Y1862580D01*
X1331220Y1862440D01*
X1334199Y1862400D01*
X1334199Y1867200D01*
X1332600Y1867200D01*
X1324300Y1875500D01*
X1324300Y1887700D01*
X1327700Y1891100D01*
X1335800Y1891100D01*
X1364660Y1862800D01*
X1365520Y1862440D01*
X1366440Y1862440D01*
X1367300Y1862800D01*
X1367700Y1863100D01*
X1368220Y1863920D01*
X1368400Y1864800D01*
X1368400Y1895900D01*
X1363600Y1895900D01*
X1363600Y1870700D01*
X1338500Y1895200D01*
X1337680Y1895720D01*
X1336800Y1895900D01*
G37*
G36*
X1331900Y1853400D02*
G01*
X1331420Y1853360D01*
X1330560Y1853000D01*
X1324940Y1847600D01*
X1324700Y1847220D01*
X1324540Y1846759D01*
X1324500Y1827500D01*
X1329300Y1827500D01*
X1329300Y1845100D01*
X1332900Y1848600D01*
X1360100Y1848600D01*
X1363500Y1845100D01*
X1363500Y1827400D01*
X1360300Y1824300D01*
X1332800Y1824300D01*
X1329300Y1827500D01*
X1324500Y1827500D01*
X1324540Y1825880D01*
X1324700Y1825420D01*
X1324940Y1825040D01*
X1330200Y1820100D01*
X1331000Y1819500D01*
X1331399Y1819340D01*
X1361819Y1819340D01*
X1362720Y1819700D01*
X1363100Y1820000D01*
X1367700Y1824700D01*
X1368160Y1825480D01*
X1368300Y1826399D01*
X1368260Y1846579D01*
X1367900Y1847440D01*
X1362800Y1852700D01*
X1362080Y1853220D01*
X1361620Y1853360D01*
G37*
G36*
X1324500Y1800800D02*
G01*
X1324500Y1786200D01*
X1329300Y1786200D01*
X1329300Y1791100D01*
X1363600Y1791100D01*
X1363600Y1786200D01*
X1368500Y1786200D01*
X1368500Y1800800D01*
X1363600Y1800800D01*
X1363600Y1795900D01*
X1329300Y1795900D01*
X1329300Y1800800D01*
G37*
G36*
X1253300Y1938700D02*
G01*
X1253300Y1934300D01*
X1225820Y1934259D01*
X1224960Y1933860D01*
X1224300Y1933140D01*
X1223940Y1932340D01*
X1223900Y1929500D01*
X1253300Y1929500D01*
X1253300Y1910100D01*
X1246800Y1910100D01*
X1228700Y1927900D01*
X1228700Y1929500D01*
X1223900Y1929500D01*
X1223940Y1926380D01*
X1224080Y1925920D01*
X1224600Y1925200D01*
X1244100Y1906000D01*
X1244920Y1905480D01*
X1245800Y1905300D01*
X1256180Y1905340D01*
X1257040Y1905700D01*
X1257700Y1906380D01*
X1258060Y1907220D01*
X1258100Y1929500D01*
X1274500Y1929500D01*
X1274500Y1934300D01*
X1258100Y1934300D01*
X1258100Y1938700D01*
G37*
G36*
X1231200Y1895900D02*
G01*
X1230720Y1895860D01*
X1229860Y1895500D01*
X1224600Y1890300D01*
X1224080Y1889560D01*
X1223940Y1889139D01*
X1223940Y1874019D01*
X1224300Y1873180D01*
X1224600Y1872800D01*
X1234760Y1862800D01*
X1235620Y1862440D01*
X1238600Y1862400D01*
X1238600Y1867200D01*
X1237000Y1867200D01*
X1228700Y1875500D01*
X1228700Y1887700D01*
X1232100Y1891100D01*
X1240200Y1891100D01*
X1269060Y1862800D01*
X1269920Y1862440D01*
X1270840Y1862440D01*
X1271700Y1862800D01*
X1272100Y1863100D01*
X1272620Y1863920D01*
X1272800Y1864800D01*
X1272800Y1895900D01*
X1268000Y1895900D01*
X1268000Y1870700D01*
X1242900Y1895200D01*
X1242080Y1895720D01*
X1241200Y1895900D01*
G37*
G36*
X1236300Y1853400D02*
G01*
X1235820Y1853360D01*
X1234960Y1853000D01*
X1229360Y1847600D01*
X1229100Y1847220D01*
X1228900Y1846200D01*
X1228900Y1827500D01*
X1233700Y1827500D01*
X1233700Y1845100D01*
X1237300Y1848600D01*
X1264500Y1848600D01*
X1267900Y1845100D01*
X1267900Y1827400D01*
X1264700Y1824300D01*
X1237200Y1824300D01*
X1233700Y1827500D01*
X1228900Y1827500D01*
X1228960Y1825880D01*
X1229100Y1825420D01*
X1229700Y1824700D01*
X1235000Y1819760D01*
X1235400Y1819500D01*
X1236200Y1819300D01*
X1266220Y1819340D01*
X1267120Y1819700D01*
X1267500Y1820000D01*
X1272100Y1824700D01*
X1272560Y1825480D01*
X1272700Y1826399D01*
X1272660Y1846579D01*
X1272300Y1847440D01*
X1267200Y1852700D01*
X1266480Y1853220D01*
X1266020Y1853360D01*
G37*
G36*
X1228900Y1800800D02*
G01*
X1228900Y1786200D01*
X1233700Y1786200D01*
X1233700Y1791100D01*
X1268000Y1791100D01*
X1268000Y1786200D01*
X1272900Y1786200D01*
X1272900Y1800800D01*
X1268000Y1800800D01*
X1268000Y1795900D01*
X1233700Y1795900D01*
X1233700Y1800800D01*
G37*
G36*
X1123300Y1938800D02*
G01*
X1123300Y1905300D01*
X1142700Y1905300D01*
X1142700Y1925900D01*
X1150900Y1934000D01*
X1159000Y1934000D01*
X1167300Y1925800D01*
X1167300Y1905500D01*
X1172100Y1905500D01*
X1172060Y1927260D01*
X1171920Y1927720D01*
X1171700Y1928100D01*
X1161340Y1938400D01*
X1160480Y1938760D01*
X1149380Y1938760D01*
X1148580Y1938400D01*
X1138700Y1928500D01*
X1138100Y1927720D01*
X1137900Y1926800D01*
X1137900Y1910100D01*
X1128100Y1910100D01*
X1128100Y1938800D01*
G37*
G36*
X1130600Y1895900D02*
G01*
X1130120Y1895860D01*
X1129260Y1895500D01*
X1124000Y1890300D01*
X1123480Y1889560D01*
X1123340Y1889139D01*
X1123340Y1874019D01*
X1123700Y1873180D01*
X1124000Y1872800D01*
X1134160Y1862800D01*
X1135020Y1862440D01*
X1138000Y1862400D01*
X1138000Y1867200D01*
X1136400Y1867200D01*
X1128100Y1875500D01*
X1128100Y1887700D01*
X1131500Y1891100D01*
X1139600Y1891100D01*
X1168460Y1862800D01*
X1169320Y1862440D01*
X1170240Y1862440D01*
X1171100Y1862800D01*
X1171500Y1863100D01*
X1172020Y1863920D01*
X1172200Y1864800D01*
X1172200Y1895900D01*
X1167400Y1895900D01*
X1167400Y1870700D01*
X1142300Y1895200D01*
X1141480Y1895720D01*
X1140600Y1895900D01*
G37*
G36*
X1135700Y1853400D02*
G01*
X1135220Y1853360D01*
X1134360Y1853000D01*
X1128760Y1847600D01*
X1128500Y1847220D01*
X1128300Y1846200D01*
X1128300Y1827500D01*
X1133100Y1827500D01*
X1133100Y1845100D01*
X1136700Y1848600D01*
X1163900Y1848600D01*
X1167300Y1845100D01*
X1167300Y1827400D01*
X1164100Y1824300D01*
X1136600Y1824300D01*
X1133100Y1827500D01*
X1128300Y1827500D01*
X1128360Y1825880D01*
X1128500Y1825420D01*
X1129100Y1824700D01*
X1134400Y1819760D01*
X1134800Y1819500D01*
X1135600Y1819300D01*
X1165620Y1819340D01*
X1166520Y1819700D01*
X1166900Y1820000D01*
X1171500Y1824700D01*
X1171940Y1825480D01*
X1172100Y1826399D01*
X1172060Y1846579D01*
X1171700Y1847440D01*
X1166600Y1852700D01*
X1165880Y1853220D01*
X1165420Y1853360D01*
G37*
G36*
X1128300Y1800800D02*
G01*
X1128300Y1786200D01*
X1133100Y1786200D01*
X1133100Y1791100D01*
X1167400Y1791100D01*
X1167400Y1786200D01*
X1172300Y1786200D01*
X1172300Y1800800D01*
X1167400Y1800800D01*
X1167400Y1795900D01*
X1133100Y1795900D01*
X1133100Y1800800D01*
G37*
G36*
X1054300Y1939700D02*
G01*
X1053820Y1939660D01*
X1052960Y1939300D01*
X1042900Y1929500D01*
X1042380Y1928680D01*
X1042200Y1927800D01*
X1042200Y1918700D01*
X1047000Y1918700D01*
X1047000Y1926699D01*
X1055300Y1934900D01*
X1059400Y1934900D01*
X1068000Y1926399D01*
X1068000Y1918400D01*
X1059600Y1910100D01*
X1055700Y1910100D01*
X1047000Y1918700D01*
X1042200Y1918700D01*
X1042240Y1917320D01*
X1042600Y1916480D01*
X1042900Y1916100D01*
X1048900Y1910100D01*
X1036100Y1910100D01*
X1026100Y1920000D01*
X1022800Y1916699D01*
X1033760Y1905700D01*
X1034620Y1905340D01*
X1060600Y1905300D01*
X1062200Y1906000D01*
X1072100Y1915800D01*
X1072620Y1916579D01*
X1072760Y1917020D01*
X1072800Y1927400D01*
X1072620Y1928280D01*
X1072100Y1929100D01*
X1062100Y1939000D01*
X1061280Y1939520D01*
X1060400Y1939700D01*
G37*
G36*
X1030000Y1895900D02*
G01*
X1029520Y1895860D01*
X1028660Y1895500D01*
X1023400Y1890300D01*
X1022880Y1889560D01*
X1022740Y1889139D01*
X1022740Y1874019D01*
X1023100Y1873180D01*
X1023400Y1872800D01*
X1033560Y1862800D01*
X1034419Y1862440D01*
X1037400Y1862400D01*
X1037400Y1867200D01*
X1035800Y1867200D01*
X1027500Y1875500D01*
X1027500Y1887700D01*
X1030900Y1891100D01*
X1039000Y1891100D01*
X1067860Y1862800D01*
X1068720Y1862440D01*
X1069640Y1862440D01*
X1070500Y1862800D01*
X1070900Y1863100D01*
X1071420Y1863920D01*
X1071600Y1864800D01*
X1071600Y1895900D01*
X1066800Y1895900D01*
X1066800Y1870700D01*
X1041700Y1895200D01*
X1040879Y1895720D01*
X1040000Y1895900D01*
G37*
G36*
X1035100Y1853400D02*
G01*
X1034620Y1853360D01*
X1033760Y1853000D01*
X1028160Y1847600D01*
X1027900Y1847220D01*
X1027700Y1846200D01*
X1027700Y1827500D01*
X1032500Y1827500D01*
X1032500Y1845100D01*
X1036100Y1848600D01*
X1063300Y1848600D01*
X1066700Y1845100D01*
X1066700Y1827400D01*
X1063500Y1824300D01*
X1036000Y1824300D01*
X1032500Y1827500D01*
X1027700Y1827500D01*
X1027760Y1825880D01*
X1027900Y1825420D01*
X1028500Y1824700D01*
X1033800Y1819760D01*
X1034200Y1819500D01*
X1035000Y1819300D01*
X1065020Y1819340D01*
X1065920Y1819700D01*
X1066300Y1820000D01*
X1070900Y1824700D01*
X1071360Y1825480D01*
X1071500Y1826399D01*
X1071460Y1846579D01*
X1071100Y1847440D01*
X1066000Y1852700D01*
X1065280Y1853220D01*
X1064820Y1853360D01*
G37*
G36*
X1027700Y1800800D02*
G01*
X1027700Y1786200D01*
X1032500Y1786200D01*
X1032500Y1791100D01*
X1066800Y1791100D01*
X1066800Y1786200D01*
X1071700Y1786200D01*
X1071700Y1800800D01*
X1066800Y1800800D01*
X1066800Y1795900D01*
X1032500Y1795900D01*
X1032500Y1800800D01*
G37*
G36*
X922200Y1938800D02*
G01*
X922200Y1905300D01*
X927000Y1905300D01*
X927000Y1934000D01*
X928400Y1934000D01*
X947740Y1914760D01*
X948120Y1914500D01*
X949100Y1914300D01*
X971100Y1914300D01*
X971100Y1919100D01*
X950000Y1919100D01*
X930759Y1938400D01*
X930380Y1938620D01*
X929920Y1938760D01*
G37*
G36*
X929500Y1895900D02*
G01*
X929020Y1895860D01*
X928160Y1895500D01*
X922900Y1890300D01*
X922380Y1889560D01*
X922240Y1889139D01*
X922240Y1874019D01*
X922600Y1873180D01*
X922900Y1872800D01*
X933060Y1862800D01*
X933920Y1862440D01*
X936900Y1862400D01*
X936900Y1867200D01*
X935300Y1867200D01*
X927000Y1875500D01*
X927000Y1887700D01*
X930400Y1891100D01*
X938500Y1891100D01*
X967360Y1862800D01*
X968220Y1862440D01*
X969140Y1862440D01*
X970000Y1862800D01*
X970400Y1863100D01*
X970920Y1863920D01*
X971100Y1864800D01*
X971100Y1895900D01*
X966300Y1895900D01*
X966300Y1870700D01*
X941200Y1895200D01*
X940380Y1895720D01*
X939500Y1895900D01*
G37*
G36*
X934599Y1853400D02*
G01*
X934120Y1853360D01*
X933259Y1853000D01*
X927660Y1847600D01*
X927400Y1847220D01*
X927200Y1846200D01*
X927200Y1827500D01*
X932000Y1827500D01*
X932000Y1845100D01*
X935600Y1848600D01*
X962800Y1848600D01*
X966200Y1845100D01*
X966200Y1827400D01*
X963000Y1824300D01*
X935500Y1824300D01*
X932000Y1827500D01*
X927200Y1827500D01*
X927260Y1825880D01*
X927400Y1825420D01*
X928000Y1824700D01*
X933300Y1819760D01*
X933700Y1819500D01*
X934500Y1819300D01*
X964520Y1819340D01*
X965420Y1819700D01*
X965800Y1820000D01*
X970400Y1824700D01*
X970860Y1825480D01*
X971000Y1826399D01*
X970960Y1846579D01*
X970600Y1847440D01*
X965500Y1852700D01*
X964780Y1853220D01*
X964320Y1853360D01*
G37*
G36*
X927200Y1800800D02*
G01*
X927200Y1786200D01*
X932000Y1786200D01*
X932000Y1791100D01*
X966300Y1791100D01*
X966300Y1786200D01*
X971200Y1786200D01*
X971200Y1800800D01*
X966300Y1800800D01*
X966300Y1795900D01*
X932000Y1795900D01*
X932000Y1800800D01*
G37*
G36*
X2250300Y378200D02*
G01*
X2239300Y367239D01*
X2238940Y366380D01*
X2238900Y341400D01*
X2243700Y341400D01*
X2243700Y345300D01*
X2252400Y354000D01*
X2260400Y354000D01*
X2268500Y345700D01*
X2268500Y341599D01*
X2260000Y333000D01*
X2252000Y333000D01*
X2243700Y341400D01*
X2238900Y341400D01*
X2238900Y340400D01*
X2239600Y338800D01*
X2249760Y328600D01*
X2250620Y328240D01*
X2261480Y328240D01*
X2262340Y328600D01*
X2272600Y338900D01*
X2273120Y339720D01*
X2273300Y340600D01*
X2273260Y347180D01*
X2272900Y348040D01*
X2263100Y358100D01*
X2262320Y358620D01*
X2261880Y358760D01*
X2250920Y358760D01*
X2250060Y358400D01*
X2243700Y352100D01*
X2243700Y364900D01*
X2253600Y374900D01*
G37*
G36*
X2162700Y373300D02*
G01*
X2162700Y368500D01*
X2167600Y368500D01*
X2167600Y334200D01*
X2162700Y334200D01*
X2162700Y329300D01*
X2177300Y329300D01*
X2177300Y334200D01*
X2172400Y334200D01*
X2172400Y368500D01*
X2177300Y368500D01*
X2177300Y373300D01*
G37*
G36*
X2202900Y373300D02*
G01*
X2201920Y373100D01*
X2201200Y372500D01*
X2196260Y367200D01*
X2196000Y366800D01*
X2195800Y366000D01*
X2195800Y337500D01*
X2200800Y337500D01*
X2200800Y365000D01*
X2204000Y368500D01*
X2221600Y368500D01*
X2225100Y364900D01*
X2225100Y337700D01*
X2221600Y334300D01*
X2203900Y334300D01*
X2200800Y337500D01*
X2195800Y337500D01*
X2195840Y335980D01*
X2196200Y335080D01*
X2196500Y334700D01*
X2201200Y330100D01*
X2201980Y329640D01*
X2202900Y329500D01*
X2223080Y329540D01*
X2223940Y329900D01*
X2229200Y335000D01*
X2229720Y335720D01*
X2229860Y336180D01*
X2229860Y366380D01*
X2229500Y367239D01*
X2224100Y372840D01*
X2223720Y373100D01*
X2222700Y373300D01*
G37*
G36*
X2250000Y477299D02*
G01*
X2249540Y477000D01*
X2249000Y476500D01*
X2244340Y471100D01*
X2244000Y470200D01*
X2243700Y469799D01*
X2243700Y461200D01*
X2248400Y461200D01*
X2248400Y468900D01*
X2251800Y472700D01*
X2259600Y472700D01*
X2262800Y469400D01*
X2262800Y461200D01*
X2259600Y458100D01*
X2251900Y458100D01*
X2248400Y461200D01*
X2243700Y461200D01*
X2243760Y459760D01*
X2244140Y458900D01*
X2244500Y458500D01*
X2247600Y455800D01*
X2239360Y447000D01*
X2239100Y446599D01*
X2238900Y445800D01*
X2238900Y441100D01*
X2243700Y441100D01*
X2243700Y444900D01*
X2252000Y453600D01*
X2259600Y453600D01*
X2267800Y444900D01*
X2267800Y441200D01*
X2259600Y432900D01*
X2251600Y432900D01*
X2243700Y441100D01*
X2238900Y441100D01*
X2238940Y439760D01*
X2239300Y438960D01*
X2249000Y429000D01*
X2250100Y428579D01*
X2250700Y428500D01*
X2261600Y428500D01*
X2262000Y429000D01*
X2271980Y438980D01*
X2272380Y439920D01*
X2272400Y445800D01*
X2272280Y446700D01*
X2271900Y447400D01*
X2263900Y455900D01*
X2267160Y459000D01*
X2267560Y459799D01*
X2267560Y470640D01*
X2267160Y471440D01*
X2262200Y476599D01*
X2261480Y477120D01*
X2261020Y477260D01*
G37*
G36*
X2162700Y472299D02*
G01*
X2162700Y467500D01*
X2167600Y467500D01*
X2167600Y433300D01*
X2162700Y433300D01*
X2162700Y428400D01*
X2177300Y428400D01*
X2177300Y433300D01*
X2172400Y433300D01*
X2172400Y467500D01*
X2177300Y467500D01*
X2177300Y472299D01*
G37*
G36*
X2202900Y472299D02*
G01*
X2202380Y472260D01*
X2201920Y472120D01*
X2201200Y471599D01*
X2196260Y466200D01*
X2196000Y465800D01*
X2195800Y465000D01*
X2195800Y436599D01*
X2200800Y436599D01*
X2200800Y464099D01*
X2204000Y467600D01*
X2221600Y467600D01*
X2225100Y464000D01*
X2225100Y436800D01*
X2221600Y433400D01*
X2203900Y433400D01*
X2200800Y436599D01*
X2195800Y436599D01*
X2195840Y435020D01*
X2196200Y434159D01*
X2201200Y429200D01*
X2201980Y428760D01*
X2202900Y428600D01*
X2223080Y428640D01*
X2223940Y429000D01*
X2229500Y434400D01*
X2229720Y434780D01*
X2229860Y435240D01*
X2229860Y465480D01*
X2229500Y466280D01*
X2224100Y471900D01*
X2223720Y472120D01*
X2223260Y472260D01*
G37*
G36*
X2255900Y576280D02*
G01*
X2255100Y576080D01*
X2254300Y575480D01*
X2243200Y563980D01*
X2246500Y560880D01*
X2253600Y568180D01*
X2253600Y527580D01*
X2258200Y527580D01*
X2258200Y573880D01*
X2258120Y574540D01*
X2257860Y575100D01*
X2257420Y575580D01*
X2256480Y576120D01*
G37*
G36*
X2298800Y576280D02*
G01*
X2298000Y576080D01*
X2297200Y575480D01*
X2286000Y563980D01*
X2289400Y560880D01*
X2296500Y568180D01*
X2296500Y527580D01*
X2301100Y527580D01*
X2301100Y573880D01*
X2301000Y574540D01*
X2300720Y575100D01*
X2300260Y575580D01*
X2299320Y576120D01*
G37*
G36*
X2162700Y571380D02*
G01*
X2162700Y566580D01*
X2167600Y566580D01*
X2167600Y532380D01*
X2162700Y532380D01*
X2162700Y527480D01*
X2177300Y527480D01*
X2177300Y532380D01*
X2172400Y532380D01*
X2172400Y566580D01*
X2177300Y566580D01*
X2177300Y571380D01*
G37*
G36*
X2202900Y571380D02*
G01*
X2202380Y571340D01*
X2201920Y571200D01*
X2201200Y570680D01*
X2196260Y565280D01*
X2196000Y564880D01*
X2195800Y564080D01*
X2195800Y535680D01*
X2200800Y535680D01*
X2200800Y563180D01*
X2204000Y566680D01*
X2221600Y566680D01*
X2225100Y563080D01*
X2225100Y535880D01*
X2221600Y532480D01*
X2203900Y532480D01*
X2200800Y535680D01*
X2195800Y535680D01*
X2195840Y534100D01*
X2196200Y533240D01*
X2201200Y528280D01*
X2201980Y527820D01*
X2202900Y527680D01*
X2223080Y527720D01*
X2223940Y528080D01*
X2229500Y533480D01*
X2229720Y533860D01*
X2229860Y534320D01*
X2229860Y564560D01*
X2229500Y565360D01*
X2224100Y570980D01*
X2223720Y571200D01*
X2223260Y571340D01*
G37*
G36*
X2422300Y375060D02*
G01*
X2422300Y370260D01*
X2451000Y370260D01*
X2451000Y368860D01*
X2431800Y349520D01*
X2431580Y349140D01*
X2431440Y348680D01*
X2431400Y326160D01*
X2436200Y326160D01*
X2436200Y347260D01*
X2455400Y366480D01*
X2455760Y367340D01*
X2455800Y375060D01*
G37*
G36*
X2346100Y370060D02*
G01*
X2346100Y365260D01*
X2351000Y365260D01*
X2351000Y330959D01*
X2346100Y330959D01*
X2346100Y326060D01*
X2360700Y326060D01*
X2360700Y330959D01*
X2355800Y330959D01*
X2355800Y365260D01*
X2360700Y365260D01*
X2360700Y370060D01*
G37*
G36*
X2386300Y370060D02*
G01*
X2385320Y369860D01*
X2384600Y369260D01*
X2379660Y363960D01*
X2379400Y363560D01*
X2379200Y362760D01*
X2379200Y334260D01*
X2384200Y334260D01*
X2384200Y361760D01*
X2387400Y365260D01*
X2405000Y365260D01*
X2408500Y361659D01*
X2408500Y334460D01*
X2405000Y331060D01*
X2387300Y331060D01*
X2384200Y334260D01*
X2379200Y334260D01*
X2379240Y332740D01*
X2379600Y331840D01*
X2379900Y331460D01*
X2384600Y326860D01*
X2385380Y326400D01*
X2386300Y326260D01*
X2406480Y326300D01*
X2407340Y326640D01*
X2412900Y332080D01*
X2413260Y332939D01*
X2413260Y363140D01*
X2412900Y363980D01*
X2407500Y369600D01*
X2407120Y369860D01*
X2406100Y370060D01*
G37*
G36*
X2434500Y474159D02*
G01*
X2433980Y474120D01*
X2433520Y473980D01*
X2432800Y473459D01*
X2422700Y463320D01*
X2422480Y462939D01*
X2422340Y462480D01*
X2422300Y452760D01*
X2427100Y452760D01*
X2427100Y461060D01*
X2435400Y469360D01*
X2447500Y469360D01*
X2451000Y465860D01*
X2451000Y462660D01*
X2438000Y449660D01*
X2430200Y449660D01*
X2427100Y452760D01*
X2422300Y452760D01*
X2422340Y451300D01*
X2422700Y450439D01*
X2427980Y445240D01*
X2428820Y444900D01*
X2439520Y444900D01*
X2440320Y445240D01*
X2451000Y455959D01*
X2451000Y433459D01*
X2446200Y428660D01*
X2449500Y425260D01*
X2455400Y431220D01*
X2455760Y432080D01*
X2455760Y467239D01*
X2455400Y468080D01*
X2450200Y473459D01*
X2449500Y473980D01*
X2449080Y474120D01*
G37*
G36*
X2346100Y469060D02*
G01*
X2346100Y464260D01*
X2351000Y464260D01*
X2351000Y430060D01*
X2346100Y430060D01*
X2346100Y425160D01*
X2360700Y425160D01*
X2360700Y430060D01*
X2355800Y430060D01*
X2355800Y464260D01*
X2360700Y464260D01*
X2360700Y469060D01*
G37*
G36*
X2386300Y469060D02*
G01*
X2385780Y469020D01*
X2385320Y468880D01*
X2384600Y468360D01*
X2379660Y463060D01*
X2379400Y462660D01*
X2379200Y461860D01*
X2379200Y433360D01*
X2384200Y433360D01*
X2384200Y460860D01*
X2387400Y464360D01*
X2405000Y464360D01*
X2408500Y460760D01*
X2408500Y433560D01*
X2405000Y430160D01*
X2387300Y430160D01*
X2384200Y433360D01*
X2379200Y433360D01*
X2379240Y431780D01*
X2379600Y430920D01*
X2384600Y425959D01*
X2385380Y425500D01*
X2386300Y425360D01*
X2406480Y425400D01*
X2407340Y425740D01*
X2412900Y431180D01*
X2413260Y432040D01*
X2413260Y462239D01*
X2412900Y463080D01*
X2407500Y468660D01*
X2407120Y468880D01*
X2406660Y469020D01*
G37*
G36*
X2477520Y574760D02*
G01*
X2476600Y574600D01*
X2475820Y574060D01*
X2465620Y563940D01*
X2465400Y563540D01*
X2465220Y562560D01*
X2465220Y539060D01*
X2470020Y539060D01*
X2470020Y561560D01*
X2478520Y569960D01*
X2485420Y569960D01*
X2493920Y561560D01*
X2493920Y538860D01*
X2485720Y530760D01*
X2478320Y530760D01*
X2470020Y539060D01*
X2465220Y539060D01*
X2465280Y537620D01*
X2465620Y536780D01*
X2465920Y536360D01*
X2476020Y526360D01*
X2476380Y526140D01*
X2477320Y525960D01*
X2486720Y525960D01*
X2487660Y526140D01*
X2488420Y526660D01*
X2498340Y536560D01*
X2498560Y536940D01*
X2498720Y537960D01*
X2498680Y563040D01*
X2498560Y563500D01*
X2498340Y563900D01*
X2488120Y574060D01*
X2487380Y574600D01*
X2486520Y574760D01*
G37*
G36*
X2439320Y574660D02*
G01*
X2438920Y574620D01*
X2438120Y574220D01*
X2426520Y562360D01*
X2429920Y559160D01*
X2437020Y566560D01*
X2437020Y525960D01*
X2441620Y525960D01*
X2441620Y572260D01*
X2441540Y572920D01*
X2441260Y573500D01*
X2440780Y573980D01*
X2439860Y574500D01*
G37*
G36*
X2346120Y569760D02*
G01*
X2346120Y564960D01*
X2350920Y564960D01*
X2350920Y530760D01*
X2346120Y530760D01*
X2346120Y525860D01*
X2360720Y525860D01*
X2360720Y530760D01*
X2355820Y530760D01*
X2355820Y564960D01*
X2360720Y564960D01*
X2360720Y569760D01*
G37*
G36*
X2386320Y569760D02*
G01*
X2385320Y569600D01*
X2384900Y569380D01*
X2384520Y569060D01*
X2379680Y563660D01*
X2379420Y563260D01*
X2379220Y562460D01*
X2379220Y533960D01*
X2384120Y533960D01*
X2384120Y561560D01*
X2387320Y565060D01*
X2405020Y565060D01*
X2408520Y561460D01*
X2408520Y534260D01*
X2405020Y530760D01*
X2387320Y530760D01*
X2384120Y533960D01*
X2379220Y533960D01*
X2379280Y532480D01*
X2379400Y532020D01*
X2379920Y531160D01*
X2385000Y526360D01*
X2385400Y526140D01*
X2386320Y525960D01*
X2406020Y525960D01*
X2406900Y526160D01*
X2407720Y526760D01*
X2412880Y531860D01*
X2413120Y532220D01*
X2413280Y532660D01*
X2413320Y562360D01*
X2413160Y563340D01*
X2412940Y563740D01*
X2407540Y569380D01*
X2407160Y569600D01*
X2406120Y569760D01*
G37*
G36*
X2481820Y557560D02*
G01*
X2481340Y557520D01*
X2480500Y557120D01*
X2479820Y556400D01*
X2479600Y556020D01*
X2479420Y555160D01*
X2479420Y545260D01*
X2479600Y544400D01*
X2480120Y543560D01*
X2480900Y543040D01*
X2481820Y542860D01*
X2482760Y543040D01*
X2483520Y543560D01*
X2484060Y544400D01*
X2484220Y545260D01*
X2484180Y555600D01*
X2484060Y556020D01*
X2483520Y556760D01*
X2483160Y557120D01*
X2482320Y557520D01*
G37*
G36*
X357200Y2049900D02*
G01*
X357200Y2015800D01*
X362000Y2015800D01*
X362000Y2030400D01*
X401100Y2030400D01*
X401100Y2035300D01*
X362000Y2035300D01*
X362000Y2049900D01*
G37*
G36*
X357200Y2007000D02*
G01*
X357200Y1973200D01*
X401100Y1973200D01*
X401100Y2007000D01*
X396300Y2007000D01*
X396300Y1978100D01*
X381599Y1978100D01*
X381599Y1997300D01*
X376700Y1997300D01*
X376700Y1978100D01*
X362000Y1978100D01*
X362000Y2007000D01*
G37*
G36*
X364200Y1964199D02*
G01*
X363280Y1964000D01*
X362860Y1963760D01*
X357600Y1958460D01*
X357380Y1958080D01*
X357239Y1957620D01*
X357239Y1937120D01*
X357600Y1936260D01*
X362800Y1931000D01*
X363560Y1930480D01*
X363960Y1930340D01*
X369200Y1930300D01*
X369820Y1930360D01*
X370360Y1930580D01*
X370820Y1930920D01*
X390300Y1959199D01*
X392800Y1959199D01*
X396300Y1956000D01*
X396300Y1938300D01*
X392900Y1934900D01*
X391400Y1934900D01*
X391400Y1930100D01*
X394340Y1930140D01*
X395200Y1930500D01*
X395600Y1930800D01*
X400740Y1936060D01*
X401160Y1936920D01*
X401200Y1957000D01*
X400980Y1957900D01*
X400700Y1958360D01*
X395300Y1963400D01*
X394500Y1963860D01*
X393700Y1964000D01*
X389000Y1964000D01*
X388380Y1963940D01*
X387840Y1963760D01*
X387380Y1963440D01*
X387000Y1963000D01*
X368000Y1935100D01*
X365400Y1935100D01*
X362000Y1938600D01*
X362000Y1956200D01*
X365200Y1959199D01*
X366800Y1959199D01*
X366800Y1964199D01*
G37*
G36*
X357200Y1921300D02*
G01*
X357200Y1887400D01*
X401100Y1887400D01*
X401100Y1921300D01*
X396300Y1921300D01*
X396300Y1892300D01*
X381599Y1892300D01*
X381599Y1911500D01*
X376700Y1911500D01*
X376700Y1892300D01*
X362000Y1892300D01*
X362000Y1921300D01*
G37*
G36*
X364400Y1878400D02*
G01*
X363960Y1878360D01*
X363160Y1878000D01*
X358000Y1872800D01*
X357400Y1872020D01*
X357239Y1871579D01*
X357200Y1849100D01*
X362000Y1849100D01*
X362000Y1870200D01*
X365500Y1873600D01*
X373300Y1873600D01*
X376700Y1870200D01*
X376700Y1849100D01*
X357200Y1849100D01*
X357200Y1844300D01*
X401100Y1844300D01*
X401100Y1849100D01*
X381500Y1849100D01*
X381500Y1855400D01*
X399600Y1873600D01*
X401100Y1873600D01*
X401100Y1878300D01*
X398220Y1878260D01*
X397360Y1877900D01*
X381500Y1862200D01*
X381460Y1871740D01*
X381100Y1872600D01*
X380800Y1873000D01*
X376000Y1877700D01*
X375180Y1878220D01*
X374300Y1878400D01*
G37*
G36*
X1072200Y656200D02*
G01*
X1072200Y651400D01*
X1078400Y651400D01*
X1090700Y639200D01*
X1078400Y627000D01*
X1072200Y627000D01*
X1072200Y622200D01*
X1079840Y622240D01*
X1080640Y622600D01*
X1094200Y635800D01*
X1107560Y622600D01*
X1108420Y622240D01*
X1116000Y622200D01*
X1116000Y627000D01*
X1109800Y627000D01*
X1097500Y639200D01*
X1109800Y651400D01*
X1116000Y651400D01*
X1116000Y656200D01*
X1108420Y656160D01*
X1107560Y655800D01*
X1094100Y642600D01*
X1080640Y655800D01*
X1079840Y656160D01*
G37*
G36*
X1079400Y613400D02*
G01*
X1078960Y613360D01*
X1078160Y613000D01*
X1073000Y607800D01*
X1072400Y607020D01*
X1072200Y606100D01*
X1072200Y584100D01*
X1077000Y584100D01*
X1077000Y605200D01*
X1080500Y608600D01*
X1088300Y608600D01*
X1091700Y605200D01*
X1091700Y584100D01*
X1072200Y584100D01*
X1072200Y579300D01*
X1116100Y579300D01*
X1116100Y584100D01*
X1096500Y584100D01*
X1096500Y590400D01*
X1114600Y608600D01*
X1116100Y608600D01*
X1116100Y613300D01*
X1113220Y613260D01*
X1112360Y612900D01*
X1096500Y597200D01*
X1096460Y606740D01*
X1096100Y607600D01*
X1095800Y608000D01*
X1091000Y612700D01*
X1090180Y613220D01*
X1089300Y613400D01*
G37*
G36*
X1172200Y656200D02*
G01*
X1172200Y651400D01*
X1178400Y651400D01*
X1190700Y639200D01*
X1178400Y627000D01*
X1172200Y627000D01*
X1172200Y622200D01*
X1179840Y622240D01*
X1180640Y622600D01*
X1194200Y635800D01*
X1207560Y622600D01*
X1208420Y622240D01*
X1216000Y622200D01*
X1216000Y627000D01*
X1209800Y627000D01*
X1197500Y639200D01*
X1209800Y651400D01*
X1216000Y651400D01*
X1216000Y656200D01*
X1208420Y656160D01*
X1207560Y655800D01*
X1194100Y642600D01*
X1180640Y655800D01*
X1179840Y656160D01*
G37*
G36*
X1172200Y613400D02*
G01*
X1172200Y579300D01*
X1177000Y579300D01*
X1177000Y593900D01*
X1216100Y593900D01*
X1216100Y598800D01*
X1177000Y598800D01*
X1177000Y613400D01*
G37*
G36*
X1443140Y683100D02*
G01*
X1443140Y661000D01*
X1424340Y661000D01*
X1423700Y660939D01*
X1423100Y660720D01*
X1422500Y660380D01*
X1421940Y659900D01*
X1407540Y645400D01*
X1407100Y644840D01*
X1406800Y644220D01*
X1406600Y643580D01*
X1406540Y642900D01*
X1406540Y629600D01*
X1413540Y629600D01*
X1413540Y641400D01*
X1425940Y653900D01*
X1443140Y653900D01*
X1443140Y617100D01*
X1426339Y617100D01*
X1413540Y629600D01*
X1406540Y629600D01*
X1406600Y627420D01*
X1406800Y626780D01*
X1407100Y626160D01*
X1407540Y625600D01*
X1422340Y611100D01*
X1422880Y610660D01*
X1423480Y610340D01*
X1424120Y610160D01*
X1424840Y610100D01*
X1450340Y610100D01*
X1450340Y683100D01*
G37*
G36*
X1556740Y683100D02*
G01*
X1556740Y675800D01*
X1564040Y675800D01*
X1564040Y683100D01*
G37*
G36*
X1367640Y683000D02*
G01*
X1367040Y682920D01*
X1366440Y682700D01*
X1365840Y682320D01*
X1365240Y681800D01*
X1348540Y664500D01*
X1353540Y659800D01*
X1364240Y670800D01*
X1364240Y609900D01*
X1371140Y609900D01*
X1371140Y679400D01*
X1371000Y680380D01*
X1370600Y681220D01*
X1369900Y681940D01*
X1368500Y682720D01*
G37*
G36*
X1277540Y675600D02*
G01*
X1277540Y668400D01*
X1309040Y668400D01*
X1321440Y656400D01*
X1321440Y651800D01*
X1308940Y639200D01*
X1284940Y639200D01*
X1284940Y668400D01*
X1277540Y668400D01*
X1277540Y609800D01*
X1284940Y609800D01*
X1284940Y631700D01*
X1310540Y631700D01*
X1311160Y631780D01*
X1311780Y632020D01*
X1313040Y633000D01*
X1327540Y647800D01*
X1327980Y648340D01*
X1328300Y648920D01*
X1328480Y649580D01*
X1328540Y650300D01*
X1328540Y658000D01*
X1328480Y658640D01*
X1328280Y659240D01*
X1327920Y659840D01*
X1327440Y660400D01*
X1313040Y674700D01*
X1312520Y675100D01*
X1311920Y675380D01*
X1311260Y675540D01*
X1310540Y675600D01*
G37*
G36*
X1674740Y661200D02*
G01*
X1673340Y661000D01*
X1672800Y660740D01*
X1672340Y660400D01*
X1664420Y652200D01*
X1664040Y651600D01*
X1663820Y651000D01*
X1663740Y650400D01*
X1663740Y622200D01*
X1670940Y622200D01*
X1670940Y648900D01*
X1676140Y654200D01*
X1695740Y654200D01*
X1700340Y648900D01*
X1700340Y622200D01*
X1695540Y617200D01*
X1676140Y617200D01*
X1670940Y622200D01*
X1663740Y622200D01*
X1663740Y620800D01*
X1663820Y620000D01*
X1664019Y619300D01*
X1664360Y618700D01*
X1672340Y611200D01*
X1672880Y610840D01*
X1673440Y610600D01*
X1674079Y610440D01*
X1697880Y610440D01*
X1698580Y610600D01*
X1699120Y610840D01*
X1706540Y618300D01*
X1706980Y618860D01*
X1707300Y619480D01*
X1707480Y620120D01*
X1707540Y620800D01*
X1707500Y650840D01*
X1707320Y651420D01*
X1707040Y651979D01*
X1699940Y660000D01*
X1699319Y660520D01*
X1698680Y660900D01*
X1697980Y661120D01*
X1697240Y661200D01*
G37*
G36*
X1470940Y661100D02*
G01*
X1470940Y620600D01*
X1471020Y619880D01*
X1471220Y619200D01*
X1471560Y618580D01*
X1472040Y618000D01*
X1479640Y610660D01*
X1480200Y610340D01*
X1480840Y610160D01*
X1481540Y610100D01*
X1503340Y610100D01*
X1504019Y610160D01*
X1504680Y610380D01*
X1505280Y610720D01*
X1508740Y614100D01*
X1512260Y610660D01*
X1512820Y610340D01*
X1513520Y610160D01*
X1514340Y610100D01*
X1521740Y610100D01*
X1521740Y617100D01*
X1515840Y617100D01*
X1513640Y619500D01*
X1514139Y620900D01*
X1514139Y661100D01*
X1506940Y661100D01*
X1506940Y622400D01*
X1501940Y617100D01*
X1482940Y617100D01*
X1478040Y622000D01*
X1478040Y661100D01*
G37*
G36*
X1556740Y661100D02*
G01*
X1556740Y609900D01*
X1564040Y609900D01*
X1564040Y661100D01*
G37*
G36*
X1599440Y661100D02*
G01*
X1599440Y654000D01*
X1605340Y654000D01*
X1607540Y651600D01*
X1607040Y650200D01*
X1607040Y610000D01*
X1614240Y610000D01*
X1614240Y648800D01*
X1619240Y654000D01*
X1631240Y654000D01*
X1636440Y649100D01*
X1636440Y610100D01*
X1643240Y610100D01*
X1643240Y650600D01*
X1643180Y651280D01*
X1642980Y651919D01*
X1642620Y652540D01*
X1642140Y653100D01*
X1634620Y660440D01*
X1634040Y660740D01*
X1633420Y660939D01*
X1632740Y661000D01*
X1617840Y661000D01*
X1617120Y660939D01*
X1616480Y660720D01*
X1615880Y660380D01*
X1612440Y657000D01*
X1608860Y660480D01*
X1608320Y660819D01*
X1607720Y661040D01*
X1607040Y661100D01*
G37*
G36*
X1284640Y591760D02*
G01*
X1283640Y591580D01*
X1282840Y591060D01*
X1278000Y585660D01*
X1277740Y585260D01*
X1277540Y584460D01*
X1277540Y555940D01*
X1282440Y555940D01*
X1282440Y583560D01*
X1285640Y587040D01*
X1303340Y587040D01*
X1306840Y583440D01*
X1306840Y556260D01*
X1303340Y552760D01*
X1285640Y552760D01*
X1282440Y555940D01*
X1277540Y555940D01*
X1277580Y554460D01*
X1277940Y553560D01*
X1278240Y553160D01*
X1283320Y548340D01*
X1283720Y548120D01*
X1284640Y547960D01*
X1304780Y548000D01*
X1305640Y548400D01*
X1310840Y553560D01*
X1311200Y553840D01*
X1311440Y554200D01*
X1311600Y554640D01*
X1311600Y584860D01*
X1311260Y585720D01*
X1305860Y591360D01*
X1305480Y591580D01*
X1304440Y591760D01*
G37*
G36*
X1499440Y591760D02*
G01*
X1498520Y591600D01*
X1497740Y591140D01*
X1492840Y586260D01*
X1492320Y585480D01*
X1492180Y585040D01*
X1492140Y579740D01*
X1492220Y579140D01*
X1492420Y578600D01*
X1492760Y578140D01*
X1521040Y558760D01*
X1521040Y556260D01*
X1517840Y552760D01*
X1500140Y552760D01*
X1496740Y556060D01*
X1496740Y557560D01*
X1491940Y557560D01*
X1491980Y554660D01*
X1492340Y553820D01*
X1492640Y553440D01*
X1497920Y548240D01*
X1498320Y548020D01*
X1499240Y547840D01*
X1518839Y547840D01*
X1519300Y547900D01*
X1520200Y548360D01*
X1525240Y553640D01*
X1525700Y554460D01*
X1525840Y555260D01*
X1525840Y559940D01*
X1525780Y560560D01*
X1525600Y561100D01*
X1525280Y561560D01*
X1524840Y561960D01*
X1496940Y581060D01*
X1496940Y583560D01*
X1500440Y587040D01*
X1518040Y587040D01*
X1521040Y583860D01*
X1521040Y582240D01*
X1526040Y582240D01*
X1526000Y585240D01*
X1525600Y586080D01*
X1520320Y591420D01*
X1519460Y591720D01*
G37*
G36*
X1320640Y582240D02*
G01*
X1320640Y577960D01*
X1336639Y577960D01*
X1345140Y569860D01*
X1345140Y561060D01*
X1336840Y552760D01*
X1325440Y552760D01*
X1325440Y577960D01*
X1320640Y577960D01*
X1320640Y533240D01*
X1325440Y533240D01*
X1325440Y547960D01*
X1338380Y548000D01*
X1339180Y548400D01*
X1349139Y558360D01*
X1349460Y558760D01*
X1349800Y559600D01*
X1349800Y571240D01*
X1349460Y572080D01*
X1339240Y581960D01*
X1338839Y582180D01*
X1338560Y582240D01*
G37*
G36*
X1542340Y582160D02*
G01*
X1541399Y582000D01*
X1540740Y581560D01*
X1535500Y576140D01*
X1535240Y575760D01*
X1535040Y574940D01*
X1535040Y556140D01*
X1539840Y556140D01*
X1539840Y573940D01*
X1543240Y577440D01*
X1556339Y577440D01*
X1559440Y573940D01*
X1559440Y556140D01*
X1556240Y552760D01*
X1543240Y552760D01*
X1539840Y556140D01*
X1535040Y556140D01*
X1535080Y554640D01*
X1535440Y553780D01*
X1540740Y548760D01*
X1541500Y548380D01*
X1542340Y548240D01*
X1557800Y548280D01*
X1558600Y548540D01*
X1563540Y553560D01*
X1564079Y554300D01*
X1564240Y555140D01*
X1564199Y575180D01*
X1564100Y575600D01*
X1563640Y576360D01*
X1559139Y581360D01*
X1558300Y581960D01*
X1557340Y582160D01*
G37*
G36*
X1370940Y582040D02*
G01*
X1370500Y582000D01*
X1370060Y581820D01*
X1369240Y581140D01*
X1364000Y575740D01*
X1363740Y575340D01*
X1363540Y574540D01*
X1363540Y567440D01*
X1368340Y567440D01*
X1368340Y573560D01*
X1371840Y577160D01*
X1384440Y577160D01*
X1387940Y573640D01*
X1387940Y567440D01*
X1363540Y567440D01*
X1363580Y554680D01*
X1363880Y553880D01*
X1369139Y548760D01*
X1369840Y548220D01*
X1370740Y548040D01*
X1392740Y548040D01*
X1392740Y552560D01*
X1371639Y552560D01*
X1368240Y556140D01*
X1368240Y562440D01*
X1392540Y562440D01*
X1392500Y575080D01*
X1392380Y575500D01*
X1391840Y576260D01*
X1386699Y581540D01*
X1385860Y582000D01*
G37*
G36*
X1406440Y582040D02*
G01*
X1406440Y577360D01*
X1410340Y577360D01*
X1411740Y575740D01*
X1411440Y574740D01*
X1411440Y547960D01*
X1416240Y547960D01*
X1416240Y573860D01*
X1419640Y577360D01*
X1427640Y577360D01*
X1431040Y574060D01*
X1431040Y548040D01*
X1435640Y548040D01*
X1435600Y575500D01*
X1435200Y576340D01*
X1430140Y581360D01*
X1429440Y581800D01*
X1428540Y581960D01*
X1418640Y581960D01*
X1417720Y581780D01*
X1416940Y581260D01*
X1415040Y579340D01*
X1412660Y581660D01*
X1412320Y581880D01*
X1411440Y582040D01*
G37*
G36*
X1578040Y582040D02*
G01*
X1578080Y554560D01*
X1578440Y553720D01*
X1583760Y548440D01*
X1584139Y548220D01*
X1585040Y548040D01*
X1599640Y548040D01*
X1600500Y548220D01*
X1601240Y548760D01*
X1603240Y550740D01*
X1605540Y548440D01*
X1605920Y548220D01*
X1606940Y548040D01*
X1611840Y548040D01*
X1611840Y552760D01*
X1607940Y552760D01*
X1606440Y554340D01*
X1606840Y555260D01*
X1606840Y582040D01*
X1602040Y582040D01*
X1602040Y556260D01*
X1598640Y552760D01*
X1586040Y552760D01*
X1582740Y555940D01*
X1582740Y582040D01*
G37*
G36*
X1620840Y582040D02*
G01*
X1620840Y577160D01*
X1622740Y577100D01*
X1623200Y576980D01*
X1623640Y576760D01*
X1624360Y576080D01*
X1624580Y575680D01*
X1624740Y574740D01*
X1624840Y547960D01*
X1629540Y547960D01*
X1629540Y569060D01*
X1637740Y577160D01*
X1641639Y577160D01*
X1645240Y573760D01*
X1645240Y572360D01*
X1650040Y572360D01*
X1650000Y575240D01*
X1649600Y576080D01*
X1643920Y581660D01*
X1643520Y581880D01*
X1642540Y582040D01*
X1636300Y582000D01*
X1635460Y581600D01*
X1635040Y581260D01*
X1629540Y575660D01*
X1629540Y577160D01*
X1629440Y578040D01*
X1629100Y578900D01*
X1628540Y579740D01*
X1627740Y580540D01*
X1626879Y581200D01*
X1626100Y581680D01*
X1625380Y581960D01*
X1624740Y582040D01*
G37*
G36*
X1714040Y582040D02*
G01*
X1713600Y582000D01*
X1712700Y581540D01*
X1707340Y576140D01*
X1706740Y575340D01*
X1706540Y574540D01*
X1706540Y567440D01*
X1711339Y567440D01*
X1711339Y573560D01*
X1714840Y577160D01*
X1727540Y577160D01*
X1730940Y573640D01*
X1730940Y567440D01*
X1706540Y567440D01*
X1706579Y554680D01*
X1706720Y554240D01*
X1707240Y553560D01*
X1712500Y548440D01*
X1713300Y548100D01*
X1713740Y548040D01*
X1735740Y548040D01*
X1735740Y552560D01*
X1714740Y552560D01*
X1711240Y556140D01*
X1711240Y562440D01*
X1735640Y562440D01*
X1735600Y575080D01*
X1735200Y575880D01*
X1730140Y581140D01*
X1729280Y581820D01*
X1728860Y582000D01*
G37*
G36*
X1675640Y581960D02*
G01*
X1674800Y581780D01*
X1674040Y581260D01*
X1664100Y571180D01*
X1663839Y570800D01*
X1663640Y569940D01*
X1663640Y560060D01*
X1663839Y559180D01*
X1664440Y558360D01*
X1674580Y548440D01*
X1674980Y548220D01*
X1675940Y548040D01*
X1692840Y548040D01*
X1692840Y552760D01*
X1676840Y552760D01*
X1668440Y561060D01*
X1668440Y568940D01*
X1676639Y577240D01*
X1692840Y577240D01*
X1692840Y581960D01*
G37*
G36*
X1331740Y534100D02*
G01*
X1330740Y533300D01*
X1326100Y527900D01*
X1325460Y526540D01*
X1325440Y518000D01*
X1330140Y518000D01*
X1330140Y525700D01*
X1333540Y529500D01*
X1341339Y529500D01*
X1344540Y526100D01*
X1344540Y518000D01*
X1341339Y514900D01*
X1333640Y514900D01*
X1330140Y518000D01*
X1325440Y518000D01*
X1325500Y516560D01*
X1325640Y516120D01*
X1326240Y515300D01*
X1329340Y512500D01*
X1321100Y503700D01*
X1320700Y502960D01*
X1320640Y502600D01*
X1320640Y497900D01*
X1325440Y497900D01*
X1325440Y501700D01*
X1333740Y510400D01*
X1341339Y510400D01*
X1349540Y501700D01*
X1349540Y498000D01*
X1341339Y489700D01*
X1333340Y489700D01*
X1325440Y497900D01*
X1320640Y497900D01*
X1320700Y496500D01*
X1321040Y495700D01*
X1321339Y495300D01*
X1330740Y485800D01*
X1331840Y485379D01*
X1332440Y485300D01*
X1343400Y485319D01*
X1353440Y495300D01*
X1353920Y496140D01*
X1354120Y496680D01*
X1354139Y502500D01*
X1354019Y503440D01*
X1353860Y503820D01*
X1345640Y512700D01*
X1348899Y515800D01*
X1349300Y516599D01*
X1349300Y527440D01*
X1348899Y528240D01*
X1343620Y533700D01*
X1342760Y534060D01*
G37*
G36*
X1411339Y534100D02*
G01*
X1411339Y529300D01*
X1435140Y529300D01*
X1435140Y527700D01*
X1421000Y513540D01*
X1420740Y513120D01*
X1420540Y512200D01*
X1420740Y511320D01*
X1421339Y510500D01*
X1422100Y509980D01*
X1422500Y509840D01*
X1426740Y509799D01*
X1435040Y501400D01*
X1435040Y498100D01*
X1427140Y490100D01*
X1414340Y490100D01*
X1409740Y494700D01*
X1406440Y491300D01*
X1412100Y485740D01*
X1412900Y485340D01*
X1428580Y485340D01*
X1429379Y485740D01*
X1439460Y495760D01*
X1439680Y496180D01*
X1439840Y497100D01*
X1439800Y502939D01*
X1439460Y503740D01*
X1429340Y513900D01*
X1428940Y514219D01*
X1428540Y514400D01*
X1439560Y525360D01*
X1439780Y525780D01*
X1439940Y526700D01*
X1439940Y534100D01*
G37*
G36*
X1461339Y534100D02*
G01*
X1460900Y534060D01*
X1460100Y533700D01*
X1450040Y523700D01*
X1449520Y522879D01*
X1449340Y522000D01*
X1449340Y519400D01*
X1454139Y519400D01*
X1454139Y521000D01*
X1462440Y529300D01*
X1474540Y529300D01*
X1478040Y525900D01*
X1478040Y517800D01*
X1449740Y488940D01*
X1449400Y488140D01*
X1449340Y487700D01*
X1449520Y486780D01*
X1450040Y486000D01*
X1450820Y485480D01*
X1451260Y485340D01*
X1482840Y485300D01*
X1482840Y490100D01*
X1457540Y490100D01*
X1482460Y515560D01*
X1482680Y515980D01*
X1482840Y516900D01*
X1482800Y527340D01*
X1482460Y528140D01*
X1477240Y533400D01*
X1476480Y533920D01*
X1476020Y534060D01*
G37*
G36*
X1277540Y529100D02*
G01*
X1277540Y524300D01*
X1298540Y524300D01*
X1306840Y516300D01*
X1306840Y513200D01*
X1298540Y504799D01*
X1282540Y504799D01*
X1282540Y524300D01*
X1277540Y524300D01*
X1277540Y485200D01*
X1282540Y485200D01*
X1282540Y499799D01*
X1299540Y499799D01*
X1300380Y500020D01*
X1301240Y500700D01*
X1310940Y510500D01*
X1311399Y511280D01*
X1311540Y512200D01*
X1311500Y517740D01*
X1311160Y518540D01*
X1301240Y528500D01*
X1300480Y528940D01*
X1299540Y529100D01*
G37*
G36*
X1363340Y529100D02*
G01*
X1363340Y522000D01*
X1363520Y521079D01*
X1364040Y520300D01*
X1376940Y507200D01*
X1363740Y493740D01*
X1363400Y492939D01*
X1363340Y492500D01*
X1363340Y485300D01*
X1368140Y485300D01*
X1368140Y491500D01*
X1380240Y503800D01*
X1392540Y491500D01*
X1392540Y485300D01*
X1397340Y485300D01*
X1397300Y492939D01*
X1396900Y493740D01*
X1383740Y507299D01*
X1396900Y520660D01*
X1397300Y521520D01*
X1397340Y529100D01*
X1392540Y529100D01*
X1392540Y522900D01*
X1380340Y510600D01*
X1368140Y522900D01*
X1368140Y529100D01*
G37*
G36*
X1508940Y529100D02*
G01*
X1508480Y529060D01*
X1508040Y528920D01*
X1507340Y528400D01*
X1492600Y513540D01*
X1492340Y513140D01*
X1492140Y512299D01*
X1492140Y504799D01*
X1496940Y504799D01*
X1496940Y511300D01*
X1508940Y523300D01*
X1521240Y511200D01*
X1521240Y504799D01*
X1492140Y504799D01*
X1492140Y485300D01*
X1496940Y485300D01*
X1496940Y499900D01*
X1521240Y499900D01*
X1521240Y485300D01*
X1526040Y485300D01*
X1526000Y512620D01*
X1525880Y513080D01*
X1525660Y513459D01*
X1510380Y528700D01*
X1509480Y529060D01*
G37*
G36*
X1463540Y484320D02*
G01*
X1463580Y439940D01*
X1463940Y439080D01*
X1466740Y436220D01*
X1467500Y435700D01*
X1467900Y435560D01*
X1473240Y435520D01*
X1473240Y440319D01*
X1469340Y440319D01*
X1468340Y441420D01*
X1468340Y484320D01*
G37*
G36*
X1720740Y484320D02*
G01*
X1720740Y469720D01*
X1710940Y469720D01*
X1710940Y464820D01*
X1720740Y464820D01*
X1720740Y440420D01*
X1720940Y439500D01*
X1721540Y438720D01*
X1723940Y436220D01*
X1724780Y435700D01*
X1725200Y435560D01*
X1730540Y435520D01*
X1730540Y440319D01*
X1726639Y440319D01*
X1725540Y441420D01*
X1725540Y464820D01*
X1735440Y464820D01*
X1735440Y469720D01*
X1725540Y469720D01*
X1725540Y484320D01*
G37*
G36*
X1277540Y479420D02*
G01*
X1277540Y474620D01*
X1298340Y474620D01*
X1306639Y466220D01*
X1306639Y448620D01*
X1298340Y440420D01*
X1287340Y440420D01*
X1287340Y474620D01*
X1282440Y474620D01*
X1282440Y440319D01*
X1277540Y440319D01*
X1277540Y435520D01*
X1299780Y435560D01*
X1300640Y435959D01*
X1311060Y446300D01*
X1311279Y446719D01*
X1311440Y447720D01*
X1311399Y467700D01*
X1311279Y468140D01*
X1310740Y468920D01*
X1300740Y478960D01*
X1300320Y479219D01*
X1299440Y479420D01*
G37*
G36*
X1499240Y469820D02*
G01*
X1498340Y469660D01*
X1497640Y469219D01*
X1492400Y463820D01*
X1492140Y463420D01*
X1491940Y462620D01*
X1491940Y443820D01*
X1496740Y443820D01*
X1496740Y461520D01*
X1500240Y465020D01*
X1513240Y465020D01*
X1516339Y461520D01*
X1516339Y443820D01*
X1513140Y440420D01*
X1500240Y440420D01*
X1496740Y443820D01*
X1491940Y443820D01*
X1492000Y442299D01*
X1492140Y441820D01*
X1492740Y441019D01*
X1497640Y436420D01*
X1498400Y435959D01*
X1499240Y435820D01*
X1514700Y435860D01*
X1515160Y435959D01*
X1515560Y436160D01*
X1520760Y441480D01*
X1521100Y442340D01*
X1521140Y462420D01*
X1521000Y463240D01*
X1520540Y463920D01*
X1516040Y469020D01*
X1515220Y469620D01*
X1514340Y469820D01*
G37*
G36*
X1534840Y469820D02*
G01*
X1534840Y465520D01*
X1550840Y465520D01*
X1559340Y457420D01*
X1559340Y448620D01*
X1551140Y440319D01*
X1539640Y440319D01*
X1539640Y465520D01*
X1534840Y465520D01*
X1534840Y420920D01*
X1539640Y420920D01*
X1539640Y435620D01*
X1552580Y435660D01*
X1553380Y436019D01*
X1563660Y446380D01*
X1564000Y447239D01*
X1564000Y458900D01*
X1563660Y459739D01*
X1563340Y460120D01*
X1553540Y469520D01*
X1553080Y469739D01*
X1552440Y469820D01*
G37*
G36*
X1327940Y469720D02*
G01*
X1327040Y469500D01*
X1326140Y468820D01*
X1320900Y463420D01*
X1320640Y463020D01*
X1320440Y462220D01*
X1320440Y455020D01*
X1325240Y455020D01*
X1325240Y461220D01*
X1328740Y464820D01*
X1341440Y464820D01*
X1344840Y461320D01*
X1344840Y455020D01*
X1320440Y455020D01*
X1320480Y442340D01*
X1320840Y441480D01*
X1326040Y436320D01*
X1326800Y435860D01*
X1327640Y435720D01*
X1349640Y435720D01*
X1349640Y440220D01*
X1328640Y440220D01*
X1325140Y443820D01*
X1325140Y450120D01*
X1349540Y450120D01*
X1349500Y462660D01*
X1349100Y463459D01*
X1344040Y468820D01*
X1343180Y469500D01*
X1342340Y469720D01*
G37*
G36*
X1413640Y469720D02*
G01*
X1413200Y469660D01*
X1412780Y469500D01*
X1411940Y468820D01*
X1406699Y463420D01*
X1406440Y463020D01*
X1406240Y462220D01*
X1406240Y455020D01*
X1411040Y455020D01*
X1411040Y461220D01*
X1414540Y464820D01*
X1427140Y464820D01*
X1430640Y461320D01*
X1430640Y455020D01*
X1406240Y455020D01*
X1406279Y442340D01*
X1406579Y441480D01*
X1406840Y441120D01*
X1412180Y436060D01*
X1412540Y435860D01*
X1413440Y435720D01*
X1435440Y435720D01*
X1435440Y440220D01*
X1414340Y440220D01*
X1410940Y443820D01*
X1410940Y450120D01*
X1435240Y450120D01*
X1435200Y462660D01*
X1434860Y463459D01*
X1429840Y468820D01*
X1428959Y469500D01*
X1428560Y469660D01*
X1428140Y469720D01*
G37*
G36*
X1585040Y469720D02*
G01*
X1584560Y469680D01*
X1583720Y469320D01*
X1583340Y469020D01*
X1582640Y468220D01*
X1582640Y469620D01*
X1577740Y469620D01*
X1577740Y435520D01*
X1582540Y435520D01*
X1582540Y461420D01*
X1586040Y464820D01*
X1588940Y464820D01*
X1592240Y461420D01*
X1592240Y435520D01*
X1597140Y435520D01*
X1597140Y461420D01*
X1600340Y464820D01*
X1603540Y464820D01*
X1606740Y461520D01*
X1606740Y435520D01*
X1611540Y435520D01*
X1611500Y462960D01*
X1611160Y463820D01*
X1610840Y464219D01*
X1605780Y469219D01*
X1604920Y469580D01*
X1598860Y469580D01*
X1598020Y469219D01*
X1597640Y468920D01*
X1594640Y465820D01*
X1591740Y469020D01*
X1591380Y469320D01*
X1590460Y469680D01*
G37*
G36*
X1628040Y469720D02*
G01*
X1627600Y469660D01*
X1627180Y469500D01*
X1626339Y468820D01*
X1621100Y463420D01*
X1620840Y463020D01*
X1620640Y462220D01*
X1620640Y455020D01*
X1625440Y455020D01*
X1625440Y461220D01*
X1628940Y464820D01*
X1641540Y464820D01*
X1645040Y461320D01*
X1645040Y455020D01*
X1620640Y455020D01*
X1620680Y442340D01*
X1620980Y441480D01*
X1621240Y441120D01*
X1626579Y436060D01*
X1626940Y435860D01*
X1627840Y435720D01*
X1649840Y435720D01*
X1649840Y440220D01*
X1628740Y440220D01*
X1625340Y443820D01*
X1625340Y450120D01*
X1649640Y450120D01*
X1649600Y462660D01*
X1649259Y463459D01*
X1644240Y468820D01*
X1643380Y469500D01*
X1642540Y469720D01*
G37*
G36*
X1663540Y469720D02*
G01*
X1663540Y465020D01*
X1667440Y465020D01*
X1668839Y463420D01*
X1668560Y462560D01*
X1668540Y435620D01*
X1673340Y435620D01*
X1673340Y461420D01*
X1676740Y465020D01*
X1684740Y465020D01*
X1688140Y461719D01*
X1688140Y435720D01*
X1692740Y435720D01*
X1692700Y463100D01*
X1692300Y463940D01*
X1687240Y469020D01*
X1686540Y469460D01*
X1685640Y469620D01*
X1675260Y469580D01*
X1674420Y469219D01*
X1672140Y467020D01*
X1669760Y469320D01*
X1669019Y469680D01*
G37*
G36*
X1363340Y469620D02*
G01*
X1363360Y461920D01*
X1363520Y461320D01*
X1378140Y436620D01*
X1378540Y436100D01*
X1379019Y435720D01*
X1379580Y435500D01*
X1380240Y435420D01*
X1380860Y435500D01*
X1381420Y435720D01*
X1381920Y436100D01*
X1382340Y436620D01*
X1397080Y461580D01*
X1397220Y462180D01*
X1397240Y469620D01*
X1392440Y469620D01*
X1392440Y463120D01*
X1380240Y442620D01*
X1368140Y462920D01*
X1368140Y469620D01*
G37*
G36*
X1473440Y421760D02*
G01*
X1473440Y406960D01*
X1461040Y406960D01*
X1460200Y406780D01*
X1459440Y406260D01*
X1449500Y396180D01*
X1449240Y395800D01*
X1449040Y394940D01*
X1449040Y386060D01*
X1453839Y386060D01*
X1453839Y393940D01*
X1462040Y402239D01*
X1473440Y402239D01*
X1473440Y377760D01*
X1462240Y377760D01*
X1453839Y386060D01*
X1449040Y386060D01*
X1449100Y384600D01*
X1449240Y384180D01*
X1449840Y383360D01*
X1459980Y373440D01*
X1460380Y373220D01*
X1461339Y373040D01*
X1478240Y373040D01*
X1478240Y421760D01*
G37*
G36*
X1277540Y416760D02*
G01*
X1277540Y412040D01*
X1298340Y412040D01*
X1305640Y404540D01*
X1298240Y397360D01*
X1287340Y397360D01*
X1287340Y412040D01*
X1282440Y412040D01*
X1282440Y392440D01*
X1298240Y392440D01*
X1305640Y385260D01*
X1298240Y377760D01*
X1287340Y377760D01*
X1287340Y392440D01*
X1282440Y392440D01*
X1282440Y377760D01*
X1277540Y377760D01*
X1277540Y372960D01*
X1299720Y373000D01*
X1300180Y373120D01*
X1300940Y373640D01*
X1311000Y384020D01*
X1311399Y384860D01*
X1311399Y385780D01*
X1311000Y386580D01*
X1302640Y394940D01*
X1311000Y403040D01*
X1311399Y403980D01*
X1311399Y404980D01*
X1311279Y405400D01*
X1310740Y406140D01*
X1301140Y416140D01*
X1300280Y416599D01*
X1299440Y416760D01*
G37*
G36*
X1327740Y407160D02*
G01*
X1326800Y407000D01*
X1326140Y406560D01*
X1320900Y401140D01*
X1320640Y400760D01*
X1320440Y399940D01*
X1320440Y381140D01*
X1325240Y381140D01*
X1325240Y398940D01*
X1328640Y402440D01*
X1341740Y402440D01*
X1344840Y398940D01*
X1344840Y381140D01*
X1341639Y377760D01*
X1328640Y377760D01*
X1325240Y381140D01*
X1320440Y381140D01*
X1320500Y379640D01*
X1320620Y379180D01*
X1321140Y378440D01*
X1326140Y373760D01*
X1326900Y373380D01*
X1327740Y373240D01*
X1343200Y373280D01*
X1344000Y373540D01*
X1348940Y378560D01*
X1349480Y379300D01*
X1349640Y380140D01*
X1349600Y400180D01*
X1349500Y400600D01*
X1349040Y401360D01*
X1344540Y406360D01*
X1343700Y406960D01*
X1342740Y407160D01*
G37*
G36*
X1367940Y407040D02*
G01*
X1367940Y402360D01*
X1384240Y402360D01*
X1387540Y398940D01*
X1387540Y392360D01*
X1369960Y392320D01*
X1369120Y392020D01*
X1368740Y391760D01*
X1363740Y386480D01*
X1363520Y386079D01*
X1363340Y385140D01*
X1363340Y381260D01*
X1368040Y381260D01*
X1368040Y384140D01*
X1371440Y387760D01*
X1387540Y387760D01*
X1387540Y377760D01*
X1371440Y377640D01*
X1368040Y381260D01*
X1363340Y381260D01*
X1363400Y379860D01*
X1363520Y379420D01*
X1364040Y378640D01*
X1368640Y373760D01*
X1369480Y373160D01*
X1369900Y373000D01*
X1397240Y372960D01*
X1397240Y377640D01*
X1392340Y377640D01*
X1392300Y400379D01*
X1392180Y400800D01*
X1391639Y401560D01*
X1386579Y406659D01*
X1386180Y406880D01*
X1385240Y407040D01*
G37*
G36*
X1406240Y407040D02*
G01*
X1406240Y402160D01*
X1408140Y402100D01*
X1408600Y401980D01*
X1409040Y401760D01*
X1409760Y401079D01*
X1409980Y400680D01*
X1410140Y399739D01*
X1410240Y372960D01*
X1414940Y372960D01*
X1414940Y394060D01*
X1423140Y402160D01*
X1427040Y402160D01*
X1430640Y398760D01*
X1430640Y397360D01*
X1435440Y397360D01*
X1435400Y400240D01*
X1435000Y401079D01*
X1429319Y406659D01*
X1428920Y406880D01*
X1427940Y407040D01*
X1421699Y407000D01*
X1420860Y406599D01*
X1420440Y406260D01*
X1414940Y400660D01*
X1414940Y402160D01*
X1414840Y403040D01*
X1414500Y403900D01*
X1413940Y404739D01*
X1413140Y405540D01*
X1412280Y406200D01*
X1411500Y406680D01*
X1410780Y406960D01*
X1410140Y407040D01*
G37*
G36*
X1442640Y362000D02*
G01*
X1442640Y349900D01*
X1455540Y349900D01*
X1460640Y344799D01*
X1460640Y339700D01*
X1455440Y334500D01*
X1442840Y334500D01*
X1442840Y331500D01*
X1456380Y331540D01*
X1456920Y331780D01*
X1463360Y338260D01*
X1463620Y338800D01*
X1463640Y345400D01*
X1463520Y346000D01*
X1456940Y352620D01*
X1456440Y352860D01*
X1445640Y352900D01*
X1445640Y359000D01*
X1463640Y359000D01*
X1463640Y362000D01*
G37*
G36*
X1399640Y361900D02*
G01*
X1399139Y361780D01*
X1398640Y361400D01*
X1391740Y354200D01*
X1393839Y352299D01*
X1398240Y356900D01*
X1398240Y331500D01*
X1401140Y331500D01*
X1401100Y360820D01*
X1400920Y361180D01*
X1400640Y361460D01*
G37*
G36*
X1281740Y358900D02*
G01*
X1281740Y355900D01*
X1297840Y355900D01*
X1300040Y353700D01*
X1300040Y348800D01*
X1297940Y346700D01*
X1284740Y346700D01*
X1284740Y355900D01*
X1281740Y355900D01*
X1281740Y331500D01*
X1284740Y331500D01*
X1284740Y343700D01*
X1288640Y343700D01*
X1300040Y332400D01*
X1300040Y331500D01*
X1302940Y331500D01*
X1302920Y333280D01*
X1302720Y333780D01*
X1292940Y343700D01*
X1298839Y343740D01*
X1299400Y343980D01*
X1302920Y347640D01*
X1303040Y348200D01*
X1303020Y354680D01*
X1302760Y355180D01*
X1299300Y358620D01*
X1298740Y358860D01*
G37*
G36*
X1313340Y352800D02*
G01*
X1312780Y352680D01*
X1312240Y352299D01*
X1308920Y348840D01*
X1308680Y348340D01*
X1308640Y343700D01*
X1311639Y343700D01*
X1311639Y347500D01*
X1313839Y349799D01*
X1321740Y349799D01*
X1323940Y347600D01*
X1323940Y343700D01*
X1308640Y343700D01*
X1308680Y335720D01*
X1308880Y335220D01*
X1312140Y332000D01*
X1312600Y331700D01*
X1313140Y331599D01*
X1326940Y331599D01*
X1326940Y334400D01*
X1313740Y334400D01*
X1311639Y336599D01*
X1311639Y340600D01*
X1326840Y340600D01*
X1326819Y348440D01*
X1326560Y348940D01*
X1323440Y352299D01*
X1322880Y352680D01*
X1322340Y352800D01*
G37*
G36*
X1335440Y352800D02*
G01*
X1335460Y348000D01*
X1335560Y347600D01*
X1344980Y331840D01*
X1345620Y331440D01*
X1346420Y331440D01*
X1347080Y331840D01*
X1356600Y347920D01*
X1356639Y352800D01*
X1353640Y352800D01*
X1353640Y348700D01*
X1346040Y335900D01*
X1338440Y348600D01*
X1338440Y352800D01*
G37*
G36*
X1421840Y337600D02*
G01*
X1421840Y331500D01*
X1427940Y331500D01*
X1427940Y337600D01*
G37*
G36*
X1289440Y324000D02*
G01*
X1288880Y323900D01*
X1288340Y323600D01*
X1282120Y317240D01*
X1281879Y316700D01*
X1281840Y314800D01*
X1284840Y314800D01*
X1284840Y315800D01*
X1290040Y321000D01*
X1297640Y321000D01*
X1299840Y318900D01*
X1299840Y313800D01*
X1282120Y295780D01*
X1281879Y295280D01*
X1281879Y294700D01*
X1282120Y294160D01*
X1282560Y293720D01*
X1283060Y293520D01*
X1302840Y293500D01*
X1302840Y296500D01*
X1287040Y296500D01*
X1302560Y312420D01*
X1302820Y312920D01*
X1302840Y319500D01*
X1302720Y320040D01*
X1299100Y323780D01*
X1298540Y323980D01*
G37*
G36*
X1308640Y324000D02*
G01*
X1308640Y311900D01*
X1321540Y311900D01*
X1326639Y306800D01*
X1326639Y301700D01*
X1321440Y296500D01*
X1308839Y296500D01*
X1308839Y293500D01*
X1322380Y293540D01*
X1322920Y293780D01*
X1329360Y300260D01*
X1329620Y300800D01*
X1329640Y307400D01*
X1329520Y308000D01*
X1322940Y314620D01*
X1322440Y314860D01*
X1311639Y314900D01*
X1311639Y321000D01*
X1329640Y321000D01*
X1329640Y324000D01*
G37*
G36*
X1477140Y324000D02*
G01*
X1476600Y323900D01*
X1476140Y323600D01*
X1469720Y317220D01*
X1469480Y316720D01*
X1469440Y301700D01*
X1472440Y301700D01*
X1472440Y315800D01*
X1477740Y321000D01*
X1482140Y321000D01*
X1487440Y315800D01*
X1487440Y301600D01*
X1482240Y296500D01*
X1477640Y296500D01*
X1472440Y301700D01*
X1469440Y301700D01*
X1469480Y300800D01*
X1469720Y300260D01*
X1476220Y293720D01*
X1476720Y293520D01*
X1482940Y293500D01*
X1483500Y293600D01*
X1483940Y293900D01*
X1490160Y300120D01*
X1490420Y300660D01*
X1490440Y316400D01*
X1490320Y316940D01*
X1489940Y317400D01*
X1483600Y323780D01*
X1483040Y323980D01*
G37*
G36*
X1372840Y323900D02*
G01*
X1372340Y323780D01*
X1371840Y323400D01*
X1364940Y316200D01*
X1367040Y314300D01*
X1371440Y318900D01*
X1371440Y293500D01*
X1374340Y293500D01*
X1374300Y322819D01*
X1374120Y323180D01*
X1373839Y323459D01*
G37*
G36*
X1399640Y323900D02*
G01*
X1399139Y323780D01*
X1398640Y323400D01*
X1391740Y316200D01*
X1393839Y314300D01*
X1398240Y318900D01*
X1398240Y293500D01*
X1401140Y293500D01*
X1401100Y322819D01*
X1400920Y323180D01*
X1400640Y323459D01*
G37*
G36*
X1453240Y323900D02*
G01*
X1452740Y323780D01*
X1452240Y323400D01*
X1445340Y316200D01*
X1447440Y314300D01*
X1451840Y318900D01*
X1451840Y293500D01*
X1454740Y293500D01*
X1454700Y322819D01*
X1454520Y323180D01*
X1454240Y323459D01*
G37*
G36*
X1479840Y313200D02*
G01*
X1479280Y313100D01*
X1478740Y312800D01*
X1478440Y312280D01*
X1478340Y311700D01*
X1478380Y305300D01*
X1478740Y304500D01*
X1479280Y304200D01*
X1479840Y304100D01*
X1480420Y304200D01*
X1480940Y304500D01*
X1481240Y305020D01*
X1481339Y305600D01*
X1481320Y312000D01*
X1481120Y312540D01*
X1480700Y312980D01*
X1480140Y313180D01*
G37*
G36*
X1341440Y299600D02*
G01*
X1341440Y293500D01*
X1347540Y293500D01*
X1347540Y299600D01*
G37*
G36*
X1421840Y299600D02*
G01*
X1421840Y293500D01*
X1427940Y293500D01*
X1427940Y299600D01*
G37*
G36*
X2231900Y2093600D02*
G01*
X2231900Y2090000D01*
X2249700Y2090000D01*
X2249700Y2088700D01*
X2239080Y2078140D01*
X2238840Y2077540D01*
X2238840Y2076819D01*
X2239080Y2076160D01*
X2239560Y2075680D01*
X2240220Y2075440D01*
X2243400Y2075400D01*
X2249600Y2069100D01*
X2249600Y2066500D01*
X2243700Y2060600D01*
X2234100Y2060600D01*
X2230700Y2064000D01*
X2228100Y2061500D01*
X2232360Y2057280D01*
X2233020Y2057040D01*
X2244400Y2057000D01*
X2245080Y2057120D01*
X2245700Y2057500D01*
X2252920Y2064860D01*
X2253160Y2065460D01*
X2253200Y2069800D01*
X2253080Y2070520D01*
X2252700Y2071100D01*
X2245240Y2078540D01*
X2244800Y2078800D01*
X2252960Y2087060D01*
X2253260Y2087660D01*
X2253300Y2093600D01*
G37*
G36*
X2296200Y2093600D02*
G01*
X2296200Y2090000D01*
X2314000Y2090000D01*
X2314000Y2088700D01*
X2303380Y2078140D01*
X2303140Y2077540D01*
X2303140Y2076819D01*
X2303380Y2076160D01*
X2303900Y2075680D01*
X2304560Y2075440D01*
X2307700Y2075400D01*
X2313900Y2069100D01*
X2313900Y2066500D01*
X2308000Y2060600D01*
X2298400Y2060600D01*
X2295000Y2064000D01*
X2292500Y2061500D01*
X2296400Y2057500D01*
X2297020Y2057120D01*
X2297700Y2057000D01*
X2309040Y2057040D01*
X2309700Y2057280D01*
X2310000Y2057500D01*
X2317220Y2064860D01*
X2317460Y2065460D01*
X2317500Y2069800D01*
X2317380Y2070520D01*
X2317000Y2071100D01*
X2309540Y2078540D01*
X2309100Y2078800D01*
X2317320Y2087060D01*
X2317560Y2087660D01*
X2317600Y2093600D01*
G37*
G36*
X2528400Y2093500D02*
G01*
X2528400Y2067900D01*
X2532000Y2067900D01*
X2532000Y2093500D01*
G37*
G36*
X2163800Y2089900D02*
G01*
X2163800Y2056900D01*
X2189200Y2056900D01*
X2189200Y2060500D01*
X2167500Y2060500D01*
X2167500Y2071600D01*
X2181900Y2071600D01*
X2181900Y2075200D01*
X2167500Y2075200D01*
X2167500Y2086200D01*
X2189200Y2086200D01*
X2189200Y2089900D01*
G37*
G36*
X1694000Y2089800D02*
G01*
X1693300Y2089680D01*
X1692800Y2089300D01*
X1681740Y2078140D01*
X1681440Y2077540D01*
X1681399Y2071600D01*
X1685000Y2071600D01*
X1685000Y2076399D01*
X1694000Y2085500D01*
X1703200Y2076399D01*
X1703200Y2071600D01*
X1681399Y2071600D01*
X1681399Y2056900D01*
X1685000Y2056900D01*
X1685000Y2067900D01*
X1703200Y2067900D01*
X1703200Y2056900D01*
X1706800Y2056900D01*
X1706759Y2077480D01*
X1706519Y2078140D01*
X1695300Y2089300D01*
X1694720Y2089680D01*
G37*
G36*
X1713600Y2089800D02*
G01*
X1713600Y2056900D01*
X1739000Y2056900D01*
X1739000Y2060500D01*
X1717200Y2060500D01*
X1717200Y2089800D01*
G37*
G36*
X1745700Y2089800D02*
G01*
X1745700Y2056900D01*
X1771100Y2056900D01*
X1771100Y2060500D01*
X1749400Y2060500D01*
X1749400Y2089800D01*
G37*
G36*
X1817200Y2089800D02*
G01*
X1817200Y2086200D01*
X1820900Y2086200D01*
X1820900Y2060500D01*
X1817200Y2060500D01*
X1817200Y2056900D01*
X1828200Y2056900D01*
X1828200Y2060500D01*
X1824500Y2060500D01*
X1824500Y2086200D01*
X1828200Y2086200D01*
X1828200Y2089800D01*
G37*
G36*
X1879500Y2089800D02*
G01*
X1878779Y2089680D01*
X1878200Y2089300D01*
X1874540Y2085300D01*
X1874240Y2084700D01*
X1874199Y2063000D01*
X1877900Y2063000D01*
X1877900Y2083600D01*
X1880300Y2086300D01*
X1893600Y2086300D01*
X1896200Y2083600D01*
X1896200Y2063200D01*
X1893600Y2060600D01*
X1880300Y2060600D01*
X1877900Y2063000D01*
X1874199Y2063000D01*
X1874240Y2061819D01*
X1874480Y2061160D01*
X1878300Y2057500D01*
X1878860Y2057120D01*
X1879500Y2057000D01*
X1894640Y2057040D01*
X1895300Y2057280D01*
X1895600Y2057500D01*
X1899460Y2061360D01*
X1899760Y2062020D01*
X1899800Y2084300D01*
X1899680Y2085020D01*
X1899300Y2085600D01*
X1895460Y2089520D01*
X1895180Y2089680D01*
X1894400Y2089800D01*
G37*
G36*
X1938500Y2089800D02*
G01*
X1938500Y2086200D01*
X1954300Y2086200D01*
X1960500Y2080200D01*
X1960500Y2077900D01*
X1954199Y2071600D01*
X1942200Y2071600D01*
X1942200Y2086200D01*
X1938500Y2086200D01*
X1938500Y2056900D01*
X1942200Y2056900D01*
X1942200Y2067900D01*
X1955300Y2067940D01*
X1955960Y2068240D01*
X1956300Y2068500D01*
X1963720Y2076160D01*
X1963959Y2076819D01*
X1964000Y2081000D01*
X1963880Y2081639D01*
X1963500Y2082200D01*
X1956040Y2089520D01*
X1955380Y2089760D01*
G37*
G36*
X1978000Y2089800D02*
G01*
X1978000Y2086200D01*
X1981699Y2086200D01*
X1981699Y2060500D01*
X1978000Y2060500D01*
X1978000Y2056900D01*
X1989000Y2056900D01*
X1989000Y2060500D01*
X1985300Y2060500D01*
X1985300Y2086200D01*
X1989000Y2086200D01*
X1989000Y2089800D01*
G37*
G36*
X2002800Y2089800D02*
G01*
X2002800Y2057000D01*
X2006500Y2057000D01*
X2006500Y2084500D01*
X2024800Y2066000D01*
X2024800Y2057000D01*
X2028400Y2057000D01*
X2028400Y2089800D01*
X2024800Y2089800D01*
X2024800Y2071500D01*
X2006500Y2089800D01*
G37*
G36*
X2040600Y2089800D02*
G01*
X2039940Y2089680D01*
X2039400Y2089300D01*
X2035700Y2085700D01*
X2035320Y2085080D01*
X2035200Y2084400D01*
X2035200Y2080800D01*
X2035400Y2079980D01*
X2036000Y2079300D01*
X2056800Y2065000D01*
X2056800Y2063200D01*
X2054400Y2060500D01*
X2041200Y2060500D01*
X2038600Y2063100D01*
X2038600Y2064199D01*
X2035000Y2064199D01*
X2035040Y2061960D01*
X2035280Y2061360D01*
X2039199Y2057400D01*
X2039780Y2057020D01*
X2040500Y2056900D01*
X2055540Y2056940D01*
X2056200Y2057240D01*
X2060000Y2061300D01*
X2060300Y2061900D01*
X2060400Y2062500D01*
X2060360Y2066459D01*
X2060220Y2066879D01*
X2059700Y2067500D01*
X2038800Y2081800D01*
X2038800Y2083700D01*
X2041399Y2086300D01*
X2054600Y2086300D01*
X2056800Y2083899D01*
X2056800Y2082700D01*
X2060600Y2082700D01*
X2060560Y2084940D01*
X2060260Y2085600D01*
X2056500Y2089300D01*
X2056000Y2089680D01*
X2055300Y2089800D01*
G37*
G36*
X2112000Y2089800D02*
G01*
X2111360Y2089680D01*
X2110800Y2089300D01*
X2099780Y2078140D01*
X2099540Y2077540D01*
X2099500Y2071600D01*
X2103100Y2071600D01*
X2103100Y2076399D01*
X2112100Y2085500D01*
X2121300Y2076399D01*
X2121300Y2071600D01*
X2099500Y2071600D01*
X2099500Y2056900D01*
X2103000Y2056900D01*
X2103000Y2067900D01*
X2121300Y2067900D01*
X2121300Y2056900D01*
X2124900Y2056900D01*
X2124860Y2077480D01*
X2124620Y2078140D01*
X2113400Y2089300D01*
X2112800Y2089680D01*
G37*
G36*
X2131500Y2089800D02*
G01*
X2131500Y2086200D01*
X2150900Y2086200D01*
X2153400Y2083600D01*
X2153400Y2077800D01*
X2150900Y2075200D01*
X2135100Y2075200D01*
X2135100Y2086200D01*
X2131500Y2086200D01*
X2131500Y2056900D01*
X2135100Y2056900D01*
X2135100Y2071600D01*
X2139800Y2071600D01*
X2153400Y2058000D01*
X2153400Y2056900D01*
X2157000Y2056900D01*
X2156960Y2059079D01*
X2156660Y2059740D01*
X2144900Y2071600D01*
X2152040Y2071639D01*
X2152700Y2071940D01*
X2156500Y2075800D01*
X2156880Y2076339D01*
X2157000Y2077000D01*
X2156960Y2084740D01*
X2156720Y2085400D01*
X2156500Y2085700D01*
X2152540Y2089520D01*
X2151940Y2089760D01*
G37*
G36*
X2324400Y2089800D02*
G01*
X2324400Y2083700D01*
X2335400Y2058000D01*
X2335700Y2057520D01*
X2336080Y2057180D01*
X2336540Y2056960D01*
X2337100Y2056900D01*
X2337660Y2056960D01*
X2338120Y2057180D01*
X2338500Y2057520D01*
X2338800Y2058000D01*
X2349900Y2083600D01*
X2349980Y2084060D01*
X2350000Y2089800D01*
X2346400Y2089800D01*
X2346400Y2084700D01*
X2337100Y2063300D01*
X2328000Y2084800D01*
X2328000Y2089800D01*
G37*
G36*
X2394100Y2089800D02*
G01*
X2393380Y2089680D01*
X2392800Y2089300D01*
X2389140Y2085300D01*
X2388840Y2084700D01*
X2388800Y2063000D01*
X2392500Y2063000D01*
X2392500Y2083600D01*
X2394900Y2086300D01*
X2408100Y2086300D01*
X2410700Y2083600D01*
X2410700Y2063200D01*
X2408100Y2060600D01*
X2394800Y2060600D01*
X2392500Y2063000D01*
X2388800Y2063000D01*
X2388840Y2061819D01*
X2389080Y2061160D01*
X2392800Y2057500D01*
X2393380Y2057120D01*
X2394100Y2057000D01*
X2409240Y2057040D01*
X2409840Y2057280D01*
X2413800Y2061100D01*
X2414180Y2061680D01*
X2414300Y2062400D01*
X2414260Y2084680D01*
X2414020Y2085340D01*
X2410200Y2089300D01*
X2409680Y2089680D01*
X2408900Y2089800D01*
G37*
G36*
X2420900Y2089800D02*
G01*
X2420900Y2057000D01*
X2424600Y2057000D01*
X2424600Y2084500D01*
X2442900Y2066000D01*
X2442900Y2057000D01*
X2446500Y2057000D01*
X2446500Y2089800D01*
X2442900Y2089800D01*
X2442900Y2071500D01*
X2424600Y2089800D01*
G37*
G36*
X2453300Y2089800D02*
G01*
X2453300Y2056900D01*
X2478600Y2056900D01*
X2478600Y2060500D01*
X2456900Y2060500D01*
X2456900Y2089800D01*
G37*
G36*
X2485300Y2089800D02*
G01*
X2485340Y2087620D01*
X2485580Y2086960D01*
X2496200Y2076300D01*
X2496200Y2056900D01*
X2499900Y2056900D01*
X2499900Y2076300D01*
X2510620Y2087040D01*
X2510780Y2087320D01*
X2510900Y2088100D01*
X2510900Y2089800D01*
X2507300Y2089800D01*
X2507300Y2088700D01*
X2498100Y2079600D01*
X2488900Y2088700D01*
X2488900Y2089800D01*
G37*
G36*
X1866200Y2086000D02*
G01*
X1865420Y2085880D01*
X1864900Y2085500D01*
X1842780Y2063340D01*
X1842540Y2062680D01*
X1842540Y2061960D01*
X1842780Y2061360D01*
X1843260Y2060840D01*
X1843920Y2060540D01*
X1844640Y2060540D01*
X1845240Y2060840D01*
X1867660Y2083260D01*
X1867960Y2083860D01*
X1867960Y2084620D01*
X1867660Y2085260D01*
X1867140Y2085720D01*
X1866540Y2085960D01*
G37*
G36*
X2267500Y2064300D02*
G01*
X2267500Y2056900D01*
X2274800Y2056900D01*
X2274800Y2064300D01*
G37*
G36*
X2528400Y2060600D02*
G01*
X2528400Y2056900D01*
X2532100Y2056900D01*
X2532100Y2060600D01*
G37*
G36*
X1435360Y959479D02*
G01*
X1434560Y959320D01*
X1433860Y959080D01*
X1433260Y958720D01*
X1432760Y958280D01*
X1432320Y957640D01*
X1432000Y957000D01*
X1431819Y956380D01*
X1431759Y955780D01*
X1431800Y955040D01*
X1431980Y954360D01*
X1432260Y953700D01*
X1432660Y953080D01*
X1460060Y926280D01*
X1432660Y898880D01*
X1432360Y898259D01*
X1432180Y897620D01*
X1432100Y896960D01*
X1432340Y895480D01*
X1432600Y894780D01*
X1432940Y894180D01*
X1433820Y893280D01*
X1434920Y892780D01*
X1435960Y892640D01*
X1437160Y893000D01*
X1437960Y893379D01*
X1466960Y922880D01*
X1466960Y929580D01*
X1437860Y958980D01*
X1436620Y959400D01*
G37*
G36*
X1164940Y1745320D02*
G01*
X1160700Y1741080D01*
X1202520Y1699259D01*
X1206760Y1703500D01*
G37*
G36*
X1024940Y1745320D02*
G01*
X1020699Y1741080D01*
X1062520Y1699259D01*
X1066760Y1703500D01*
G37*
G36*
X746940Y1745320D02*
G01*
X742700Y1741080D01*
X784520Y1699259D01*
X788760Y1703500D01*
G37*
G36*
X885939Y1745320D02*
G01*
X881700Y1741080D01*
X923520Y1699259D01*
X927760Y1703500D01*
G37*
G36*
X768180Y998379D02*
G01*
X768180Y970040D01*
X768780Y969440D01*
X789840Y969440D01*
X789840Y998379D01*
G37*
G36*
X768180Y1150560D02*
G01*
X768180Y1121620D01*
X789840Y1121620D01*
X789840Y1149960D01*
X789260Y1150560D01*
G37*
G36*
X325160Y215060D02*
G01*
X325160Y186119D01*
X346820Y186119D01*
X346820Y214460D01*
X346220Y215060D01*
G37*
G36*
X325160Y62880D02*
G01*
X325160Y34540D01*
X325740Y33940D01*
X346820Y33940D01*
X346820Y62880D01*
G37*
G36*
X325160Y770060D02*
G01*
X325160Y741120D01*
X346820Y741120D01*
X346820Y769460D01*
X346220Y770060D01*
G37*
G36*
X325160Y617880D02*
G01*
X325160Y589540D01*
X325740Y588940D01*
X346820Y588940D01*
X346820Y617880D01*
G37*
G36*
X147740Y1264980D02*
G01*
X147740Y1205840D01*
X153740Y1205840D01*
X153740Y1264980D01*
G37*
G36*
X147740Y1363480D02*
G01*
X147740Y1304340D01*
X153740Y1304340D01*
X153740Y1363480D01*
G37*
G36*
X580020Y421960D02*
G01*
X578500Y421820D01*
X577060Y421340D01*
X575760Y420560D01*
X574640Y419540D01*
X573780Y418280D01*
X573220Y416860D01*
X572980Y415379D01*
X573060Y413860D01*
X573460Y412400D01*
X574180Y411060D01*
X575180Y409900D01*
X576380Y409000D01*
X577760Y408360D01*
X578500Y408160D01*
X580020Y408020D01*
X581520Y408160D01*
X582960Y408640D01*
X584280Y409420D01*
X585380Y410460D01*
X586240Y411700D01*
X586800Y413120D01*
X586980Y413860D01*
X587060Y415379D01*
X586800Y416860D01*
X586240Y418280D01*
X585380Y419540D01*
X584280Y420560D01*
X582960Y421340D01*
X581520Y421820D01*
G37*
G36*
X694360Y726040D02*
G01*
X691780Y725800D01*
X689260Y725240D01*
X688020Y724860D01*
X685639Y723840D01*
X683400Y722540D01*
X681340Y720980D01*
X679500Y719180D01*
X677880Y717159D01*
X676540Y714940D01*
X675460Y712600D01*
X674700Y710120D01*
X674419Y708860D01*
X674120Y706300D01*
X674120Y703700D01*
X674419Y701140D01*
X675040Y698620D01*
X675960Y696220D01*
X677180Y693920D01*
X678660Y691820D01*
X680400Y689900D01*
X682360Y688199D01*
X684500Y686780D01*
X686820Y685620D01*
X688020Y685140D01*
X690500Y684440D01*
X693060Y684040D01*
X695639Y683960D01*
X698220Y684200D01*
X700740Y684760D01*
X701979Y685140D01*
X704360Y686160D01*
X706600Y687460D01*
X708660Y689020D01*
X710500Y690819D01*
X712120Y692840D01*
X713460Y695060D01*
X714539Y697400D01*
X715300Y699880D01*
X715580Y701140D01*
X715879Y703700D01*
X715879Y706300D01*
X715580Y708860D01*
X714960Y711380D01*
X714040Y713780D01*
X712820Y716080D01*
X711340Y718180D01*
X709599Y720100D01*
X707640Y721800D01*
X705500Y723220D01*
X703180Y724380D01*
X701979Y724860D01*
X699500Y725560D01*
X696940Y725960D01*
G37*
G36*
X147740Y1166380D02*
G01*
X147740Y1107240D01*
X153740Y1107240D01*
X153740Y1166380D01*
G37*
G36*
X147740Y1067780D02*
G01*
X147740Y1008640D01*
X153740Y1008640D01*
X153740Y1067780D01*
G37*
G36*
X147740Y969180D02*
G01*
X147740Y910040D01*
X153740Y910040D01*
X153740Y969180D01*
G37*
G36*
X147740Y870580D02*
G01*
X147740Y811440D01*
X153740Y811440D01*
X153740Y870580D01*
G37*
D10*
X2650000Y950000D02*
G01*
X2650000Y730001D01*
X2516998Y596999D01*
D11*
X985000Y1934000D02*
G01*
X985000Y1789000D01*
X973000Y1776999D01*
X821000Y1776999D01*
X766999Y1723000D01*
X1081999Y1935000D02*
G01*
X1081999Y1785999D01*
X1058000Y1761999D01*
X948000Y1761999D01*
X906999Y1720999D01*
X1186000Y1935000D02*
G01*
X1186000Y1775000D01*
X1173000Y1761999D01*
X1083999Y1761999D01*
X1045000Y1723000D01*
X1283000Y1935999D02*
G01*
X1283000Y1775999D01*
X1268999Y1761999D01*
X1223999Y1761999D01*
X1185000Y1723000D01*
X2141998Y399041D02*
G01*
X2516998Y399041D01*
X2141998Y496042D02*
G01*
X2516998Y496042D01*
X2166998Y596999D02*
G01*
X2501998Y596999D01*
X2501998Y596999D02*
G01*
X2516998Y596999D01*
X2516998Y366999D01*
X2461998Y311999D01*
X2156998Y311999D01*
X2141998Y326999D01*
X2141998Y571999D01*
X2166998Y596999D01*
X2324654Y596999D02*
G01*
X2324259Y311999D01*
D12*
X1055290Y1391458D02*
G01*
X1096630Y1432799D01*
X1035797Y1493632D02*
G01*
X994457Y1452292D01*
X994457Y1443807D02*
G01*
X1046805Y1391458D01*
X1189540Y1525709D02*
G01*
X1148200Y1484369D01*
X1087367Y1545203D02*
G01*
X1128707Y1586543D01*
X1137191Y1586543D02*
G01*
X1189540Y1534194D01*
X915291Y1391457D02*
G01*
X956631Y1432797D01*
X895798Y1493631D02*
G01*
X854458Y1452292D01*
X854458Y1443807D02*
G01*
X906806Y1391457D01*
X1049542Y1525707D02*
G01*
X1008202Y1484367D01*
X947367Y1545201D02*
G01*
X988707Y1586541D01*
X997192Y1586541D02*
G01*
X1049542Y1534193D01*
D13*
X1197094Y1691109D02*
G01*
X1199322Y1688881D01*
X1199322Y1677746D01*
X1061242Y1539666D01*
X1002502Y1598406D01*
X1140303Y1736208D01*
X1197094Y1691109D02*
G01*
X1151994Y1736208D01*
X1140303Y1736208D01*
X1057094Y1691109D02*
G01*
X1059322Y1688881D01*
X1059322Y1677746D01*
X921242Y1539666D01*
X862502Y1598407D01*
X1000303Y1736208D01*
X1057094Y1691109D02*
G01*
X1011994Y1736208D01*
X1000303Y1736208D01*
D12*
X637292Y1391462D02*
G01*
X678631Y1432802D01*
X617797Y1493636D02*
G01*
X576457Y1452296D01*
X576457Y1443811D02*
G01*
X628807Y1391462D01*
X771541Y1525713D02*
G01*
X730201Y1484373D01*
X669367Y1545207D02*
G01*
X710707Y1586547D01*
X719193Y1586547D02*
G01*
X771541Y1534198D01*
X776293Y1391460D02*
G01*
X817633Y1432800D01*
X756799Y1493634D02*
G01*
X715459Y1452294D01*
X715459Y1443809D02*
G01*
X767808Y1391460D01*
X910542Y1525711D02*
G01*
X869202Y1484371D01*
X808368Y1545205D02*
G01*
X849709Y1586545D01*
X858194Y1586545D02*
G01*
X910542Y1534196D01*
D13*
X779095Y1691109D02*
G01*
X781322Y1688881D01*
X781322Y1677746D01*
X643242Y1539666D01*
X584502Y1598407D01*
X722303Y1736208D01*
X779095Y1691109D02*
G01*
X733994Y1736208D01*
X722303Y1736208D01*
X918095Y1691109D02*
G01*
X920321Y1688881D01*
X920321Y1677746D01*
X782242Y1539666D01*
X723501Y1598407D01*
X861304Y1736208D01*
X918095Y1691109D02*
G01*
X872995Y1736208D01*
X861304Y1736208D01*
D14*
X856692Y1150551D02*
G01*
X856643Y969448D01*
X1045668Y969448D02*
G01*
X758267Y969448D01*
X754331Y1150551D02*
G01*
X1041732Y1150551D01*
D12*
X260070Y360684D02*
G01*
X318535Y360684D01*
X318535Y446716D02*
G01*
X260070Y446716D01*
X254070Y440716D02*
G01*
X254070Y366684D01*
X449929Y360684D02*
G01*
X391464Y360684D01*
X391464Y446716D02*
G01*
X449929Y446716D01*
X455929Y440716D02*
G01*
X455929Y366684D01*
X260070Y454384D02*
G01*
X318535Y454384D01*
X318535Y540416D02*
G01*
X260070Y540416D01*
X254070Y534416D02*
G01*
X254070Y460383D01*
X449929Y454384D02*
G01*
X391464Y454384D01*
X391464Y540416D02*
G01*
X449929Y540416D01*
X455929Y534416D02*
G01*
X455929Y460383D01*
D14*
X258306Y33948D02*
G01*
X258357Y215050D01*
X69331Y215050D02*
G01*
X356732Y215050D01*
X360668Y33948D02*
G01*
X73267Y33948D01*
D12*
X260070Y266984D02*
G01*
X318535Y266984D01*
X318535Y353015D02*
G01*
X260070Y353015D01*
X254070Y347015D02*
G01*
X254070Y272984D01*
X449929Y266984D02*
G01*
X391464Y266984D01*
X391464Y353015D02*
G01*
X449929Y353015D01*
X455929Y347015D02*
G01*
X455929Y272984D01*
X711015Y1180070D02*
G01*
X711015Y1238535D01*
X624983Y1238535D02*
G01*
X624983Y1180070D01*
X630983Y1174070D02*
G01*
X705016Y1174070D01*
X711015Y1369929D02*
G01*
X711015Y1311464D01*
X624983Y1311464D02*
G01*
X624983Y1369929D01*
X630983Y1375929D02*
G01*
X705016Y1375929D01*
X812035Y1180070D02*
G01*
X812035Y1238535D01*
X726003Y1238535D02*
G01*
X726003Y1180070D01*
X732002Y1174070D02*
G01*
X806035Y1174070D01*
X812035Y1369929D02*
G01*
X812035Y1311464D01*
X726003Y1311464D02*
G01*
X726003Y1369929D01*
X732002Y1375929D02*
G01*
X806035Y1375929D01*
X1216116Y1180070D02*
G01*
X1216116Y1238535D01*
X1130083Y1238535D02*
G01*
X1130083Y1180070D01*
X1136084Y1174070D02*
G01*
X1210115Y1174070D01*
X1216116Y1369929D02*
G01*
X1216116Y1311464D01*
X1130083Y1311464D02*
G01*
X1130083Y1369929D01*
X1136084Y1375929D02*
G01*
X1210115Y1375929D01*
D14*
X258306Y588948D02*
G01*
X258357Y770050D01*
X69331Y770050D02*
G01*
X356732Y770050D01*
X360668Y588948D02*
G01*
X73267Y588948D01*
D12*
X1743292Y1277458D02*
G01*
X1784632Y1318798D01*
X1723797Y1379632D02*
G01*
X1682457Y1338292D01*
X1682457Y1329807D02*
G01*
X1734807Y1277458D01*
X1877542Y1411707D02*
G01*
X1836202Y1370367D01*
X1775367Y1431201D02*
G01*
X1816707Y1472541D01*
X1825192Y1472541D02*
G01*
X1877542Y1420192D01*
X1876541Y686291D02*
G01*
X1835201Y727631D01*
X1774368Y666797D02*
G01*
X1815708Y625457D01*
X1824192Y625457D02*
G01*
X1876541Y677806D01*
X1742291Y820542D02*
G01*
X1783631Y779202D01*
X1722798Y718368D02*
G01*
X1681458Y759708D01*
X1681458Y768193D02*
G01*
X1733806Y820542D01*
X2469708Y822541D02*
G01*
X2428368Y781201D01*
X2489201Y720367D02*
G01*
X2530541Y761707D01*
X2530541Y770192D02*
G01*
X2478193Y822541D01*
X2335457Y688292D02*
G01*
X2376797Y729632D01*
X2437632Y668798D02*
G01*
X2396292Y627458D01*
X2387807Y627458D02*
G01*
X2335457Y679807D01*
X2332457Y1411707D02*
G01*
X2373797Y1370367D01*
X2434632Y1431201D02*
G01*
X2393292Y1472541D01*
X2384807Y1472541D02*
G01*
X2332457Y1420192D01*
X2466707Y1277458D02*
G01*
X2425367Y1318798D01*
X2486202Y1379632D02*
G01*
X2527542Y1338292D01*
X2527542Y1329807D02*
G01*
X2475192Y1277458D01*
D15*
X1850000Y150000D02*
G01*
X1125000Y150000D01*
D16*
X1850000Y150000D02*
G01*
X1850000Y50000D01*
X1050000Y50000D01*
X1050000Y150000D01*
X1125000Y150000D01*
X1615000Y1950000D02*
G01*
X1690000Y1950000D01*
X1690000Y2050000D01*
X690000Y2050000D01*
X690000Y1950000D01*
D15*
X690000Y1950000D02*
G01*
X1615000Y1950000D01*
D16*
X2030000Y150000D02*
G01*
X1955000Y150000D01*
X1955000Y50000D01*
X2555000Y50000D01*
X2555000Y150000D01*
D15*
X2555000Y150000D02*
G01*
X2030000Y150000D01*
D16*
X2450000Y950000D02*
G01*
X2650000Y950000D01*
X2650000Y1250000D01*
X2450000Y1250000D01*
X2450000Y950000D01*
X2450000Y1141669D01*
X1250000Y360000D02*
G01*
X1050000Y360000D01*
X1050000Y560000D01*
X1250000Y560000D01*
X1250000Y360000D01*
D12*
X1449929Y1158515D02*
G01*
X1391464Y1158515D01*
X1391464Y1072483D02*
G01*
X1449929Y1072483D01*
X1455928Y1078483D02*
G01*
X1455928Y1152516D01*
X1260070Y1158515D02*
G01*
X1318535Y1158515D01*
X1318535Y1072483D02*
G01*
X1260070Y1072483D01*
X1254071Y1078483D02*
G01*
X1254071Y1152516D01*
X1449929Y1058515D02*
G01*
X1391464Y1058515D01*
X1391464Y972483D02*
G01*
X1449929Y972483D01*
X1455928Y978483D02*
G01*
X1455928Y1052516D01*
X1260070Y1058515D02*
G01*
X1318535Y1058515D01*
X1318535Y972483D02*
G01*
X1260070Y972483D01*
X1254071Y978483D02*
G01*
X1254071Y1052516D01*
X827021Y1369929D02*
G01*
X827021Y1311464D01*
X913052Y1311464D02*
G01*
X913052Y1369929D01*
X907052Y1375929D02*
G01*
X833020Y1375929D01*
X827021Y1180070D02*
G01*
X827021Y1238535D01*
X913052Y1238535D02*
G01*
X913052Y1180070D01*
X907052Y1174070D02*
G01*
X833020Y1174070D01*
X585228Y1179416D02*
G01*
X526765Y1179416D01*
X526765Y1093384D02*
G01*
X585228Y1093384D01*
X591228Y1099384D02*
G01*
X591228Y1173416D01*
X395371Y1179416D02*
G01*
X453834Y1179416D01*
X453834Y1093384D02*
G01*
X395371Y1093384D01*
X389371Y1099384D02*
G01*
X389371Y1173416D01*
X585228Y1079416D02*
G01*
X526765Y1079416D01*
X526765Y993384D02*
G01*
X585228Y993384D01*
X591228Y999384D02*
G01*
X591228Y1073416D01*
X395371Y1079416D02*
G01*
X453834Y1079416D01*
X453834Y993384D02*
G01*
X395371Y993384D01*
X389371Y999384D02*
G01*
X389371Y1073416D01*
X585228Y979416D02*
G01*
X526765Y979416D01*
X526765Y893384D02*
G01*
X585228Y893384D01*
X591228Y899384D02*
G01*
X591228Y973416D01*
X395371Y979416D02*
G01*
X453834Y979416D01*
X453834Y893384D02*
G01*
X395371Y893384D01*
X389371Y899384D02*
G01*
X389371Y973416D01*
X585228Y879416D02*
G01*
X526765Y879416D01*
X526765Y793384D02*
G01*
X585228Y793384D01*
X591228Y799384D02*
G01*
X591228Y873416D01*
X395371Y879416D02*
G01*
X453834Y879416D01*
X453834Y793384D02*
G01*
X395371Y793384D01*
X389371Y799384D02*
G01*
X389371Y873416D01*
X1029065Y1369929D02*
G01*
X1029065Y1311464D01*
X1115096Y1311464D02*
G01*
X1115096Y1369929D01*
X1109097Y1375929D02*
G01*
X1035065Y1375929D01*
X1029065Y1180070D02*
G01*
X1029065Y1238535D01*
X1115096Y1238535D02*
G01*
X1115096Y1180070D01*
X1109097Y1174070D02*
G01*
X1035065Y1174070D01*
D11*
X57953Y2072046D02*
G01*
X302046Y2072046D01*
X57953Y1827953D02*
G01*
X302046Y1827953D01*
X57953Y2072046D02*
G01*
X57953Y2061462D01*
X57953Y1996017D02*
G01*
X57953Y1903982D01*
X57953Y1838537D02*
G01*
X57953Y1827953D01*
X302046Y2072046D02*
G01*
X302046Y2061462D01*
X302046Y1996017D02*
G01*
X302046Y1903982D01*
X302046Y1838537D02*
G01*
X302046Y1827953D01*
X1701499Y956700D02*
G01*
X1712899Y956700D01*
X1712899Y1173299D01*
X1712899Y1173299D01*
X1701499Y1173299D01*
X1508497Y1173267D02*
G01*
X1497520Y1173267D01*
X1558499Y1173267D02*
G01*
X1551500Y1173267D01*
X1608499Y1173267D02*
G01*
X1601502Y1173267D01*
X1658499Y1173267D02*
G01*
X1651502Y1173267D01*
X1651500Y956732D02*
G01*
X1658499Y956732D01*
X1601500Y956732D02*
G01*
X1608497Y956732D01*
X1551500Y956732D02*
G01*
X1558497Y956732D01*
X1496733Y1173267D02*
G01*
X1496733Y956732D01*
X1508497Y956732D01*
X2394206Y1017473D02*
G01*
X2427440Y1050707D01*
X2427440Y1050707D02*
G01*
X2394206Y1083940D01*
X2138234Y1339913D02*
G01*
X2105000Y1373148D01*
X2105000Y1373148D02*
G01*
X2071765Y1339913D01*
X1815793Y1083940D02*
G01*
X1782559Y1050707D01*
X1782559Y1050707D02*
G01*
X1815793Y1017473D01*
X2129041Y759378D02*
G01*
X2082372Y759378D01*
X310052Y1523022D02*
G01*
X310052Y1496060D01*
X310052Y1713856D02*
G01*
X310052Y1686893D01*
X148006Y1447478D02*
G01*
X222098Y1447478D01*
X-60025Y1447478D02*
G01*
X35091Y1447478D01*
X148006Y1762437D02*
G01*
X222098Y1762437D01*
X-60025Y1762437D02*
G01*
X35091Y1762437D01*
X-60025Y1447478D02*
G01*
X-60025Y1762437D01*
D13*
X163332Y1266902D02*
G01*
X163332Y1270052D01*
X171206Y1277926D01*
X366480Y1277926D01*
X366480Y1194854D01*
X171599Y1194854D01*
X163332Y1266902D02*
G01*
X163332Y1203121D01*
X171599Y1194854D01*
X163332Y1365401D02*
G01*
X163332Y1368551D01*
X171206Y1376426D01*
X366480Y1376426D01*
X366480Y1293355D01*
X171599Y1293355D01*
X163332Y1365401D02*
G01*
X163332Y1301622D01*
X171599Y1293355D01*
D17*
X595295Y435421D02*
G01*
X601041Y435421D01*
X557894Y435421D02*
G01*
X559535Y435421D01*
X520495Y435421D02*
G01*
X522134Y435421D01*
X478993Y435421D02*
G01*
X484735Y435421D01*
X595295Y364555D02*
G01*
X601041Y364555D01*
X520495Y364555D02*
G01*
X559535Y364555D01*
X478993Y364555D02*
G01*
X484735Y364555D01*
X478993Y364555D02*
G01*
X478993Y435421D01*
X601041Y364555D02*
G01*
X601041Y435421D01*
D11*
X1060000Y841608D02*
G01*
X1060000Y670000D01*
X660000Y729645D02*
G01*
X660000Y668386D01*
X660000Y780000D02*
G01*
X660000Y841608D01*
X660000Y841608D02*
G01*
X1060000Y841608D01*
X660000Y668386D02*
G01*
X1060000Y668386D01*
D13*
X163332Y1168301D02*
G01*
X163332Y1171451D01*
X171206Y1179326D01*
X366480Y1179326D01*
X366480Y1096255D01*
X171599Y1096255D01*
X163332Y1168301D02*
G01*
X163332Y1104522D01*
X171599Y1096255D01*
X163332Y1069702D02*
G01*
X163332Y1072851D01*
X171206Y1080725D01*
X366480Y1080725D01*
X366480Y997654D01*
X171599Y997654D01*
X163332Y1069702D02*
G01*
X163332Y1005922D01*
X171599Y997654D01*
X163332Y971102D02*
G01*
X163332Y974252D01*
X171206Y982125D01*
X366480Y982125D01*
X366480Y899054D01*
X171599Y899054D01*
X163332Y971102D02*
G01*
X163332Y907321D01*
X171599Y899054D01*
X163332Y872501D02*
G01*
X163332Y875652D01*
X171206Y883526D01*
X366480Y883526D01*
X366480Y800455D01*
X171599Y800455D01*
X163332Y872501D02*
G01*
X163332Y808721D01*
X171599Y800455D01*
D11*
X41774Y345945D02*
G01*
X238625Y345945D01*
X41774Y464054D02*
G01*
X238625Y464054D01*
X41774Y345945D02*
G01*
X41774Y376395D01*
X41774Y464054D02*
G01*
X41774Y433593D01*
X238625Y464054D02*
G01*
X238625Y345945D01*
D12*
X928045Y1369929D02*
G01*
X928045Y1311464D01*
X1014076Y1311464D02*
G01*
X1014076Y1369929D01*
X1008077Y1375929D02*
G01*
X934044Y1375929D01*
X928045Y1180070D02*
G01*
X928045Y1238535D01*
X1014076Y1238535D02*
G01*
X1014076Y1180070D01*
X1008077Y1174070D02*
G01*
X934044Y1174070D01*
X585210Y1279430D02*
G01*
X526745Y1279430D01*
X526745Y1193398D02*
G01*
X585210Y1193398D01*
X591210Y1199398D02*
G01*
X591210Y1273429D01*
X395351Y1279430D02*
G01*
X453816Y1279430D01*
X453816Y1193398D02*
G01*
X395351Y1193398D01*
X389351Y1199398D02*
G01*
X389351Y1273429D01*
X585210Y1379430D02*
G01*
X526745Y1379430D01*
X526745Y1293398D02*
G01*
X585210Y1293398D01*
X591210Y1299398D02*
G01*
X591210Y1373429D01*
X395351Y1379430D02*
G01*
X453816Y1379430D01*
X453816Y1293398D02*
G01*
X395351Y1293398D01*
X389351Y1299398D02*
G01*
X389351Y1373429D01*
D15*
X1750000Y1950000D02*
G01*
X2475000Y1950000D01*
D16*
X1750000Y1950000D02*
G01*
X1750000Y2050000D01*
X2550000Y2050000D01*
X2550000Y1950000D01*
X2475000Y1950000D01*
D11*
X624982Y1043415D02*
G01*
X624982Y998415D01*
X624982Y993415D01*
X634982Y983415D01*
X689982Y983415D01*
X694982Y983415D01*
X704982Y993415D01*
X704982Y1043415D01*
X704982Y1073415D02*
G01*
X704982Y1118415D01*
X704982Y1123415D01*
X694982Y1133415D01*
X639982Y1133415D01*
X634982Y1133415D01*
X624982Y1123415D01*
X624982Y1073415D01*
D12*
X1126193Y999913D02*
G01*
X1193806Y999913D01*
X1193806Y1040527D01*
X1126193Y1120086D02*
G01*
X1193806Y1120086D01*
X1193806Y1079472D01*
X1126193Y1042071D02*
G01*
X1126193Y1077928D01*
D19*
X1561192Y1415639D02*
G01*
X1739359Y1593807D01*
X1638807Y1694360D02*
G01*
X1460639Y1516190D01*
X1753712Y1579454D02*
G01*
X1575543Y1401286D01*
X1446286Y1530543D02*
G01*
X1624454Y1708712D01*
D12*
G75*
G01*
X994457Y1452293D02*
G03*
X994457Y1443808I4243J-4243D01*
G75*
G01*
X1046806Y1391459D02*
G03*
X1055291Y1391459I4242J4243D01*
G75*
G01*
X1128707Y1586543D02*
G02*
X1137192Y1586543I4242J-4243D01*
G75*
G01*
X1189541Y1534194D02*
G02*
X1189541Y1525709I-4243J-4242D01*
G75*
G01*
X854458Y1452292D02*
G03*
X854458Y1443807I4243J-4242D01*
G75*
G01*
X906807Y1391458D02*
G03*
X915292Y1391458I4242J4243D01*
G75*
G01*
X988708Y1586542D02*
G02*
X997193Y1586542I4242J-4243D01*
G75*
G01*
X1049542Y1534193D02*
G02*
X1049542Y1525708I-4243J-4242D01*
G75*
G01*
X576458Y1452297D02*
G03*
X576458Y1443812I4243J-4243D01*
G75*
G01*
X628807Y1391463D02*
G03*
X637292Y1391463I4243J4243D01*
G75*
G01*
X710708Y1586547D02*
G02*
X719193Y1586547I4242J-4243D01*
G75*
G01*
X771542Y1534198D02*
G02*
X771542Y1525713I-4243J-4242D01*
G75*
G01*
X715459Y1452295D02*
G03*
X715459Y1443810I4243J-4243D01*
G75*
G01*
X767808Y1391461D02*
G03*
X776293Y1391461I4243J4243D01*
G75*
G01*
X849709Y1586545D02*
G02*
X858194Y1586545I4243J-4243D01*
G75*
G01*
X910543Y1534196D02*
G02*
X910543Y1525711I-4243J-4242D01*
G75*
G01*
X260071Y446716D02*
G03*
X254071Y440716I0J-6000D01*
G75*
G01*
X254071Y366684D02*
G03*
X260071Y360684I6000J0D01*
G75*
G01*
X449929Y446716D02*
G02*
X455929Y440716I0J-6000D01*
G75*
G01*
X455929Y366684D02*
G02*
X449929Y360684I-6000J0D01*
G75*
G01*
X260071Y540416D02*
G03*
X254071Y534416I0J-6000D01*
G75*
G01*
X254071Y460384D02*
G03*
X260071Y454384I6000J0D01*
G75*
G01*
X449929Y540416D02*
G02*
X455929Y534416I0J-6000D01*
G75*
G01*
X455929Y460384D02*
G02*
X449929Y454384I-6000J0D01*
G75*
G01*
X260071Y353016D02*
G03*
X254071Y347016I0J-6000D01*
G75*
G01*
X254071Y272984D02*
G03*
X260071Y266984I6000J0D01*
G75*
G01*
X449929Y353016D02*
G02*
X455929Y347016I0J-6000D01*
G75*
G01*
X455929Y272984D02*
G02*
X449929Y266984I-6000J0D01*
G75*
G01*
X624984Y1180071D02*
G03*
X630984Y1174071I6000J0D01*
G75*
G01*
X705016Y1174071D02*
G03*
X711016Y1180071I0J6000D01*
G75*
G01*
X624984Y1369929D02*
G02*
X630984Y1375929I6000J0D01*
G75*
G01*
X705016Y1375929D02*
G02*
X711016Y1369929I0J-6000D01*
G75*
G01*
X726003Y1180071D02*
G03*
X732003Y1174071I6000J0D01*
G75*
G01*
X806035Y1174071D02*
G03*
X812035Y1180071I0J6000D01*
G75*
G01*
X726003Y1369929D02*
G02*
X732003Y1375929I6000J0D01*
G75*
G01*
X806035Y1375929D02*
G02*
X812035Y1369929I0J-6000D01*
G75*
G01*
X1130084Y1180071D02*
G03*
X1136084Y1174071I6000J0D01*
G75*
G01*
X1210116Y1174071D02*
G03*
X1216116Y1180071I0J6000D01*
G75*
G01*
X1130084Y1369929D02*
G02*
X1136084Y1375929I6000J0D01*
G75*
G01*
X1210116Y1375929D02*
G02*
X1216116Y1369929I0J-6000D01*
G75*
G01*
X1682458Y1338292D02*
G03*
X1682458Y1329807I4243J-4242D01*
G75*
G01*
X1734807Y1277458D02*
G03*
X1743292Y1277458I4243J4243D01*
G75*
G01*
X1816708Y1472542D02*
G02*
X1825193Y1472542I4242J-4243D01*
G75*
G01*
X1877542Y1420193D02*
G02*
X1877542Y1411708I-4243J-4243D01*
G75*
G01*
X1815708Y625458D02*
G03*
X1824193Y625458I4242J4243D01*
G75*
G01*
X1876542Y677807D02*
G03*
X1876542Y686292I-4243J4242D01*
G75*
G01*
X1681458Y759708D02*
G02*
X1681458Y768193I4243J4243D01*
G75*
G01*
X1733807Y820542D02*
G02*
X1742292Y820542I4242J-4243D01*
G75*
G01*
X2530542Y761708D02*
G03*
X2530542Y770193I-4243J4242D01*
G75*
G01*
X2478193Y822542D02*
G03*
X2469708Y822542I-4242J-4243D01*
G75*
G01*
X2396292Y627458D02*
G02*
X2387807Y627458I-4242J4243D01*
G75*
G01*
X2335458Y679807D02*
G02*
X2335458Y688292I4243J4243D01*
G75*
G01*
X2393292Y1472542D02*
G03*
X2384807Y1472542I-4242J-4243D01*
G75*
G01*
X2332458Y1420193D02*
G03*
X2332458Y1411708I4243J-4243D01*
G75*
G01*
X2527542Y1338292D02*
G02*
X2527542Y1329807I-4243J-4242D01*
G75*
G01*
X2475193Y1277458D02*
G02*
X2466708Y1277458I-4243J4243D01*
G75*
G01*
X1449929Y1072484D02*
G03*
X1455929Y1078484I0J6000D01*
G75*
G01*
X1455929Y1152516D02*
G03*
X1449929Y1158516I-6000J0D01*
G75*
G01*
X1260071Y1072484D02*
G02*
X1254071Y1078484I0J6000D01*
G75*
G01*
X1254071Y1152516D02*
G02*
X1260071Y1158516I6000J0D01*
G75*
G01*
X1449929Y972484D02*
G03*
X1455929Y978484I0J6000D01*
G75*
G01*
X1455929Y1052516D02*
G03*
X1449929Y1058516I-6000J0D01*
G75*
G01*
X1260071Y972484D02*
G02*
X1254071Y978484I0J6000D01*
G75*
G01*
X1254071Y1052516D02*
G02*
X1260071Y1058516I6000J0D01*
G75*
G01*
X913053Y1369929D02*
G03*
X907053Y1375929I-6000J0D01*
G75*
G01*
X833021Y1375929D02*
G03*
X827021Y1369929I0J-6000D01*
G75*
G01*
X913053Y1180071D02*
G02*
X907053Y1174071I-6000J0D01*
G75*
G01*
X833021Y1174071D02*
G02*
X827021Y1180071I0J6000D01*
G75*
G01*
X585229Y1093384D02*
G03*
X591229Y1099384I0J6000D01*
G75*
G01*
X591229Y1173416D02*
G03*
X585229Y1179416I-6000J0D01*
G75*
G01*
X395371Y1093384D02*
G02*
X389371Y1099384I0J6000D01*
G75*
G01*
X389371Y1173416D02*
G02*
X395371Y1179416I6000J0D01*
G75*
G01*
X585229Y993384D02*
G03*
X591229Y999384I0J6000D01*
G75*
G01*
X591229Y1073416D02*
G03*
X585229Y1079416I-6000J0D01*
G75*
G01*
X395371Y993384D02*
G02*
X389371Y999384I0J6000D01*
G75*
G01*
X389371Y1073416D02*
G02*
X395371Y1079416I6000J0D01*
G75*
G01*
X585229Y893384D02*
G03*
X591229Y899384I0J6000D01*
G75*
G01*
X591229Y973416D02*
G03*
X585229Y979416I-6000J0D01*
G75*
G01*
X395371Y893384D02*
G02*
X389371Y899384I0J6000D01*
G75*
G01*
X389371Y973416D02*
G02*
X395371Y979416I6000J0D01*
G75*
G01*
X585229Y793384D02*
G03*
X591229Y799384I0J6000D01*
G75*
G01*
X591229Y873416D02*
G03*
X585229Y879416I-6000J0D01*
G75*
G01*
X395371Y793384D02*
G02*
X389371Y799384I0J6000D01*
G75*
G01*
X389371Y873416D02*
G02*
X395371Y879416I6000J0D01*
G75*
G01*
X1115097Y1369929D02*
G03*
X1109097Y1375929I-6000J0D01*
G75*
G01*
X1035065Y1375929D02*
G03*
X1029065Y1369929I0J-6000D01*
G75*
G01*
X1115097Y1180071D02*
G02*
X1109097Y1174071I-6000J0D01*
G75*
G01*
X1035065Y1174071D02*
G02*
X1029065Y1180071I0J6000D01*
D11*
G75*
G01*
X660000Y729646D02*
G03*
X660000Y780000I0J25177D01*
G75*
G01*
X41775Y376395D02*
G03*
X41968Y433594I-1567J28605D01*
D12*
G75*
G01*
X1014077Y1369929D02*
G03*
X1008077Y1375929I-6000J0D01*
G75*
G01*
X934045Y1375929D02*
G03*
X928045Y1369929I0J-6000D01*
G75*
G01*
X1014077Y1180071D02*
G02*
X1008077Y1174071I-6000J0D01*
G75*
G01*
X934045Y1174071D02*
G02*
X928045Y1180071I0J6000D01*
G75*
G01*
X585210Y1193398D02*
G03*
X591210Y1199398I0J6000D01*
G75*
G01*
X591210Y1273430D02*
G03*
X585210Y1279430I-6000J0D01*
G75*
G01*
X395352Y1193398D02*
G02*
X389352Y1199398I0J6000D01*
G75*
G01*
X389352Y1273430D02*
G02*
X395352Y1279430I6000J0D01*
G75*
G01*
X585210Y1293398D02*
G03*
X591210Y1299398I0J6000D01*
G75*
G01*
X591210Y1373430D02*
G03*
X585210Y1379430I-6000J0D01*
G75*
G01*
X395352Y1293398D02*
G02*
X389352Y1299398I0J6000D01*
G75*
G01*
X389352Y1373430D02*
G02*
X395352Y1379430I6000J0D01*
D19*
G75*
G01*
X1624455Y1708713D02*
G02*
X1753725Y1579466I64435J-64824D01*
G75*
G01*
X1575544Y1401286D02*
G02*
X1446275Y1530534I-64434J64824D01*
G75*
G01*
X1638808Y1694360D02*
G02*
X1739371Y1593820I50123J-50428D01*
G75*
G01*
X1561192Y1415640D02*
G02*
X1460629Y1516180I-50123J50428D01*
D11*
G75*
G01
X256320Y1950000D02*
G03X256320Y1950000I-76320J0D01*
G75*
G01
X238310Y1950000D02*
G03X238310Y1950000I-58310J0D01*
D20*
G75*
G01
X1535910Y1008940D02*
G03X1535910Y1008940I-5910J0D01*
G75*
G01
X1499100Y925630D02*
G03X1499100Y925630I-5910J0D01*
G75*
G01
X76110Y365000D02*
G03X76110Y365000I-5910J0D01*
M02*
