G04 Layer: TopSolderMaskLayer*
G04 EasyEDA v6.5.51, 2025-11-10 16:22:34*
G04 edf426586456471d89c25727c5112f57,c2dd228c5626426dab0286b5437c322d,10*
G04 Gerber Generator version 0.2*
G04 Scale: 100 percent, Rotated: No, Reflected: No *
G04 Dimensions in inches *
G04 leading zeros omitted , absolute positions ,3 integer and 6 decimal *
%FSLAX36Y36*%
%MOIN*%

%AMMACRO1*4,1,8,0.0026,-0.0467,-0.0467,0.0026,-0.0467,0.0042,-0.0042,0.0467,-0.0026,0.0467,0.0467,-0.0026,0.0467,-0.0042,0.0042,-0.0467,0.0026,-0.0467,0*%
%AMMACRO2*4,1,8,-0.0013,-0.047,-0.047,-0.0013,-0.047,0.0003,-0.0003,0.047,0.0013,0.047,0.047,0.0013,0.047,-0.0003,0.0003,-0.047,-0.0013,-0.047,0*%
%AMMACRO3*4,1,8,-0.0559,-0.0612,-0.0571,-0.0601,-0.0571,0.0601,-0.0559,0.0612,0.0559,0.0612,0.0571,0.0601,0.0571,-0.0601,0.0559,-0.0612,-0.0559,-0.0612,0*%
%AMMACRO4*4,1,8,-0.0301,-0.036,-0.0312,-0.0348,-0.0312,0.0348,-0.0301,0.036,0.0301,0.036,0.0312,0.0348,0.0312,-0.0348,0.0301,-0.036,-0.0301,-0.036,0*%
%AMMACRO5*4,1,8,-0.0348,-0.0312,-0.036,-0.0301,-0.036,0.0301,-0.0348,0.0312,0.0348,0.0312,0.036,0.0301,0.036,-0.0301,0.0348,-0.0312,-0.0348,-0.0312,0*%
%AMMACRO6*4,1,8,-0.0042,-0.0467,-0.0467,-0.0042,-0.0467,-0.0026,0.0026,0.0467,0.0042,0.0467,0.0467,0.0042,0.0467,0.0026,-0.0026,-0.0467,-0.0042,-0.0467,0*%
%AMMACRO7*4,1,8,-0.0318,-0.033,-0.033,-0.0318,-0.033,0.0318,-0.0318,0.033,0.0318,0.033,0.033,0.0318,0.033,-0.0318,0.0318,-0.033,-0.0318,-0.033,0*%
%AMMACRO8*4,1,8,-0.0422,-0.0256,-0.0433,-0.0244,-0.0433,0.0245,-0.0422,0.0256,0.0422,0.0256,0.0433,0.0245,0.0433,-0.0244,0.0422,-0.0256,-0.0422,-0.0256,0*%
%AMMACRO9*4,1,8,0.0201,-0.034,-0.034,0.0201,-0.034,0.0217,-0.0217,0.034,-0.0201,0.034,0.034,-0.0201,0.034,-0.0217,0.0217,-0.034,0.0201,-0.034,0*%
%AMMACRO10*4,1,8,-0.0217,-0.034,-0.034,-0.0217,-0.034,-0.0201,0.0201,0.034,0.0217,0.034,0.034,0.0217,0.034,0.0201,-0.0201,-0.034,-0.0217,-0.034,0*%
%AMMACRO11*4,1,8,-0.0461,-0.0118,-0.0473,-0.0107,-0.0473,0.0107,-0.0461,0.0118,0.0461,0.0118,0.0473,0.0107,0.0473,-0.0107,0.0461,-0.0118,-0.0461,-0.0118,0*%
%AMMACRO12*4,1,8,-0.033,-0.0335,-0.0342,-0.0323,-0.0342,0.0323,-0.033,0.0335,0.033,0.0335,0.0342,0.0323,0.0342,-0.0323,0.033,-0.0335,-0.033,-0.0335,0*%
%AMMACRO13*4,1,8,-0.0126,-0.0237,-0.0138,-0.0225,-0.0138,0.0225,-0.0126,0.0237,0.0126,0.0237,0.0138,0.0225,0.0138,-0.0225,0.0126,-0.0237,-0.0126,-0.0237,0*%
%AMMACRO14*4,1,8,-0.0279,-0.0243,-0.0291,-0.0231,-0.0291,0.0231,-0.0279,0.0243,0.0279,0.0243,0.0291,0.0231,0.0291,-0.0231,0.0279,-0.0243,-0.0279,-0.0243,0*%
%AMMACRO15*4,1,8,-0.0213,-0.0125,-0.0224,-0.0113,-0.0224,0.0113,-0.0213,0.0125,0.0213,0.0125,0.0224,0.0113,0.0224,-0.0113,0.0213,-0.0125,-0.0213,-0.0125,0*%
%ADD10MACRO1*%
%ADD11MACRO2*%
%ADD12MACRO3*%
%ADD13MACRO4*%
%ADD14MACRO5*%
%ADD15MACRO6*%
%ADD16C,0.0114*%
%ADD17MACRO7*%
%ADD18C,0.0660*%
%ADD19MACRO8*%
%ADD20O,0.028803X0.092583*%
%ADD21MACRO9*%
%ADD22MACRO10*%
%ADD23MACRO11*%
%ADD24O,0.102425X0.063055*%
%ADD25MACRO12*%
%ADD26MACRO13*%
%ADD27O,0.018331X0.08335*%
%ADD28O,0.026378X0.08078*%
%ADD29MACRO14*%
%ADD30MACRO15*%
%ADD31C,0.0749*%

%LPD*%
D10*
G01*
X1047664Y1444667D03*
G01*
X1136332Y1533334D03*
G01*
X907665Y1444667D03*
G01*
X996332Y1533333D03*
D11*
G01*
X1060756Y1598756D03*
G01*
X1145241Y1683241D03*
G01*
X920756Y1598758D03*
G01*
X1005241Y1683243D03*
D10*
G01*
X629665Y1444672D03*
G01*
X718333Y1533338D03*
G01*
X768667Y1444669D03*
G01*
X857334Y1533336D03*
D11*
G01*
X642756Y1598758D03*
G01*
X727241Y1683243D03*
G01*
X781757Y1598758D03*
G01*
X866242Y1683243D03*
D12*
G01*
X781889Y1060000D03*
G01*
X1018110Y1060000D03*
D13*
G01*
X292303Y403699D03*
G01*
X417696Y403699D03*
G01*
X292303Y497400D03*
G01*
X417696Y497400D03*
D12*
G01*
X333110Y124499D03*
G01*
X96889Y124499D03*
D13*
G01*
X292303Y310000D03*
G01*
X417696Y310000D03*
D14*
G01*
X668000Y1212303D03*
G01*
X668000Y1337696D03*
G01*
X769018Y1212303D03*
G01*
X769018Y1337696D03*
G01*
X1173100Y1212303D03*
G01*
X1173100Y1337696D03*
D12*
G01*
X333110Y679499D03*
G01*
X96889Y679499D03*
D10*
G01*
X1735666Y1330667D03*
G01*
X1824333Y1419334D03*
D15*
G01*
X1823333Y678667D03*
G01*
X1734665Y767333D03*
D10*
G01*
X2477332Y769334D03*
G01*
X2388665Y680667D03*
D15*
G01*
X2385666Y1419334D03*
G01*
X2474333Y1330667D03*
D17*
G01*
X1100000Y100000D03*
D18*
G01*
X1200000Y100000D03*
G01*
X1300000Y100000D03*
G01*
X1400000Y100000D03*
G01*
X1500000Y100000D03*
G01*
X1600000Y100000D03*
G01*
X1700000Y100000D03*
G01*
X1800000Y100000D03*
G01*
X740000Y2000000D03*
G01*
X840000Y2000000D03*
G01*
X940000Y2000000D03*
G01*
X1040000Y2000000D03*
G01*
X1140000Y2000000D03*
G01*
X1240000Y2000000D03*
G01*
X1340000Y2000000D03*
G01*
X1440000Y2000000D03*
G01*
X1540000Y2000000D03*
D17*
G01*
X1640000Y2000000D03*
D18*
G01*
X2505000Y100000D03*
G01*
X2405000Y100000D03*
G01*
X2305000Y100000D03*
G01*
X2205000Y100000D03*
G01*
X2105000Y100000D03*
D17*
G01*
X2005000Y100000D03*
D18*
G01*
X2600000Y1000000D03*
G01*
X2500000Y1000000D03*
G01*
X2600000Y1100000D03*
G01*
X2500000Y1100000D03*
G01*
X2600000Y1200000D03*
D17*
G01*
X2500000Y1200000D03*
G01*
X1200000Y510000D03*
D18*
G01*
X1200000Y410000D03*
G01*
X1100000Y510000D03*
G01*
X1100000Y410000D03*
D13*
G01*
X1417696Y1115500D03*
G01*
X1292303Y1115500D03*
G01*
X1417696Y1015500D03*
G01*
X1292303Y1015500D03*
D14*
G01*
X870037Y1337696D03*
G01*
X870037Y1212303D03*
D13*
G01*
X552997Y1136399D03*
G01*
X427602Y1136399D03*
G01*
X552997Y1036399D03*
G01*
X427602Y1036399D03*
G01*
X552997Y936399D03*
G01*
X427602Y936399D03*
G01*
X552997Y836399D03*
G01*
X427602Y836399D03*
D14*
G01*
X1072080Y1337696D03*
G01*
X1072080Y1212303D03*
D19*
G01*
X298110Y1871259D03*
G01*
X61890Y1871259D03*
G01*
X298110Y2028740D03*
G01*
X61890Y2028740D03*
D20*
G01*
X1530000Y926019D03*
G01*
X1580000Y926019D03*
G01*
X1630000Y926019D03*
G01*
X1680000Y926019D03*
G01*
X1530000Y1203980D03*
G01*
X1580000Y1203980D03*
G01*
X1630000Y1203980D03*
G01*
X1680000Y1203980D03*
D21*
G01*
X2152375Y779885D03*
G01*
X2175003Y802513D03*
G01*
X2196923Y824433D03*
G01*
X2219551Y847061D03*
G01*
X2241471Y868981D03*
G01*
X2264098Y891608D03*
G01*
X2286019Y913529D03*
G01*
X2307939Y935449D03*
G01*
X2330566Y958077D03*
G01*
X2352487Y979997D03*
G01*
X2375113Y1002623D03*
D22*
G01*
X2375113Y1097376D03*
G01*
X2352487Y1120004D03*
G01*
X2330566Y1141924D03*
G01*
X2307939Y1164552D03*
G01*
X2286019Y1186472D03*
G01*
X2263391Y1209099D03*
G01*
X2241471Y1231020D03*
G01*
X2219551Y1252940D03*
G01*
X2196923Y1275567D03*
G01*
X2175003Y1297488D03*
G01*
X2152375Y1320114D03*
D21*
G01*
X2057622Y1320114D03*
G01*
X2034996Y1297488D03*
G01*
X2013076Y1275567D03*
G01*
X1990448Y1252940D03*
G01*
X1968528Y1231020D03*
G01*
X1946607Y1209099D03*
G01*
X1923980Y1186472D03*
G01*
X1902060Y1164552D03*
G01*
X1879432Y1141924D03*
G01*
X1857512Y1120004D03*
G01*
X1834884Y1097376D03*
D22*
G01*
X1834884Y1002623D03*
G01*
X1857512Y979997D03*
G01*
X1879432Y958077D03*
G01*
X1902060Y935449D03*
G01*
X1923980Y913529D03*
G01*
X1945900Y891608D03*
G01*
X1968528Y868981D03*
G01*
X1990448Y847061D03*
G01*
X2013076Y824433D03*
G01*
X2034996Y802513D03*
G01*
X2057622Y779885D03*
D23*
G01*
X278556Y1667949D03*
G01*
X278556Y1636453D03*
G01*
X278556Y1604957D03*
G01*
X278556Y1573461D03*
G01*
X278556Y1541965D03*
D24*
G01*
X278555Y1750625D03*
G01*
X91545Y1750625D03*
G01*
X91545Y1459284D03*
G01*
X278555Y1459284D03*
D25*
G01*
X325040Y1235799D03*
G01*
X205559Y1235799D03*
G01*
X325040Y1334299D03*
G01*
X205559Y1334299D03*
D26*
G01*
X577415Y348804D03*
G01*
X502615Y348804D03*
G01*
X502615Y451175D03*
G01*
X540014Y451175D03*
G01*
X577415Y451175D03*
D27*
G01*
X693659Y618969D03*
G01*
X719250Y618969D03*
G01*
X744839Y618969D03*
G01*
X770430Y618969D03*
G01*
X796019Y618969D03*
G01*
X821610Y618969D03*
G01*
X847209Y618969D03*
G01*
X872799Y618969D03*
G01*
X898389Y618969D03*
G01*
X923980Y618969D03*
G01*
X949570Y618969D03*
G01*
X975159Y618969D03*
G01*
X1000749Y618969D03*
G01*
X1026340Y618969D03*
G01*
X693659Y891030D03*
G01*
X719250Y891030D03*
G01*
X744839Y891030D03*
G01*
X770430Y891030D03*
G01*
X796019Y891030D03*
G01*
X821610Y891030D03*
G01*
X847209Y891030D03*
G01*
X872799Y891030D03*
G01*
X898389Y891030D03*
G01*
X923980Y891030D03*
G01*
X949570Y891030D03*
G01*
X975159Y891030D03*
G01*
X1000749Y891030D03*
G01*
X1026340Y891030D03*
D25*
G01*
X325040Y1137199D03*
G01*
X205559Y1137199D03*
G01*
X325040Y1038600D03*
G01*
X205559Y1038600D03*
G01*
X325040Y940000D03*
G01*
X205559Y940000D03*
G01*
X325040Y841399D03*
G01*
X205559Y841399D03*
D28*
G01*
X65199Y298499D03*
G01*
X115199Y298499D03*
G01*
X165199Y298499D03*
G01*
X215199Y298499D03*
G01*
X65199Y511500D03*
G01*
X115199Y511500D03*
G01*
X165199Y511500D03*
G01*
X215199Y511500D03*
D14*
G01*
X971060Y1337696D03*
G01*
X971060Y1212303D03*
D13*
G01*
X552977Y1236413D03*
G01*
X427584Y1236413D03*
G01*
X552977Y1336413D03*
G01*
X427584Y1336413D03*
D17*
G01*
X2500000Y2000000D03*
D18*
G01*
X2400000Y2000000D03*
G01*
X2300000Y2000000D03*
G01*
X2200000Y2000000D03*
G01*
X2100000Y2000000D03*
G01*
X2000000Y2000000D03*
G01*
X1900000Y2000000D03*
G01*
X1800000Y2000000D03*
D29*
G01*
X664978Y1021957D03*
G01*
X664978Y1098042D03*
D30*
G01*
X1116643Y1097401D03*
G01*
X1116643Y1022598D03*
G01*
X1203356Y1060000D03*
D31*
G01*
X1532075Y1487074D03*
G01*
X1667924Y1622925D03*
M02*
